<svg width="603" height="322" viewBox="0 0 603 322" fill="none" xmlns="http://www.w3.org/2000/svg">
<path opacity="0.6" d="M16.3062 74.9278C16.3062 79.4009 12.6241 83.0846 8.15309 83.0846C3.68205 83.0846 0 79.4009 0 74.9278C0 70.4547 3.68205 66.771 8.15309 66.771C12.6241 66.771 16.3062 70.4547 16.3062 74.9278Z" fill="url(#paint0_radial)"/>
<path d="M9.33652 74.9277C9.33652 75.5855 8.81051 76.1117 8.153 76.1117C7.49549 76.1117 6.96948 75.5855 6.96948 74.9277C6.96948 74.2699 7.49549 73.7437 8.153 73.7437C8.81051 73.7437 9.33652 74.2699 9.33652 74.9277Z" fill="#42E8E0"/>
<g opacity="0.2">
<path opacity="0.2" d="M274.838 133.078C273.654 118.475 261.819 101.503 248.538 95.3199C241.831 92.1625 236.177 92.294 232.232 95.0568L228.155 97.9512H229.47C227.366 100.977 226.445 105.187 226.84 110.449C228.155 125.053 239.859 142.024 253.14 148.208C257.743 150.313 261.819 150.97 265.238 150.181V151.365L269.446 148.471L269.578 148.339C273.391 145.576 275.495 140.314 274.838 133.078Z" fill="#9FFFF8"/>
<path opacity="0.2" d="M265.297 151.406C273.816 145.463 272.404 128.711 262.143 113.989C251.882 99.2672 236.658 92.1508 228.138 98.094C219.619 104.037 221.031 120.79 231.292 135.511C241.553 150.233 256.777 157.35 265.297 151.406Z" fill="#42E8E0"/>
<path opacity="0.2" d="M256.822 150.576C254.324 150.576 251.431 149.918 248.538 148.471C236.703 142.945 226.182 127.815 225.13 114.791C224.604 108.476 226.314 103.477 230.127 100.845C233.809 98.2142 239.07 98.3457 244.856 100.977C256.691 106.503 267.211 121.632 268.263 134.657C268.789 140.972 267.079 145.971 263.266 148.602C261.425 149.918 259.321 150.576 256.822 150.576ZM236.44 99.6613C234.072 99.6613 232.1 100.319 230.39 101.503C226.84 104.003 225.13 108.739 225.656 114.791C226.708 127.552 237.097 142.419 248.801 147.944C254.324 150.576 259.321 150.576 262.871 148.207C266.422 145.708 268.131 140.972 267.605 134.92C266.553 122.158 256.165 107.292 244.461 101.766C241.568 100.319 238.938 99.6613 236.44 99.6613Z" fill="#18B2A3"/>
</g>
<path d="M313.236 295.688C309.686 295.688 306.267 294.898 303.637 293.451L178.053 220.961C175.554 219.514 174.108 217.54 174.108 215.304C174.108 212.672 176.08 209.91 179.631 207.936L419.095 69.6652C425.67 65.8499 435.533 65.4553 441.187 68.7443L566.771 141.235C569.27 142.682 570.716 144.655 570.716 146.892C570.716 149.523 568.744 152.286 565.193 154.259L325.729 292.662C322.179 294.635 317.576 295.688 313.236 295.688ZM431.588 67.034C427.38 67.034 422.909 68.0865 419.358 70.0599L179.894 208.462C176.606 210.436 174.634 212.936 174.634 215.304C174.634 217.277 175.949 219.119 178.316 220.566L303.9 293.056C309.423 296.214 319.023 295.819 325.466 292.135L564.93 153.864C568.218 151.891 570.19 149.391 570.19 147.023C570.19 145.05 568.875 143.208 566.508 141.761L440.924 69.139C438.426 67.6918 435.138 67.034 431.588 67.034Z" fill="#42E8E0"/>
<path d="M570.322 113.475L552.306 116.633L441.056 52.2991C435.533 49.01 425.67 49.5363 419.226 53.22L206.326 176.23L174.502 181.755V193.07C174.502 195.175 175.686 197.148 178.316 198.595L303.9 271.086C309.423 274.375 319.285 273.848 325.729 270.165L565.193 131.894C568.612 129.92 570.453 127.289 570.453 124.921V113.475H570.322Z" fill="url(#paint1_linear)"/>
<path d="M303.768 259.64L178.184 187.149C172.661 183.86 173.319 178.335 179.762 174.52L419.226 36.117C425.67 32.4333 435.401 32.0386 441.055 35.1961L566.639 107.686C572.162 110.975 571.505 116.501 565.061 120.316L325.597 258.719C319.154 262.403 309.423 262.797 303.768 259.64Z" fill="#24126A"/>
<path d="M565.062 120.316L325.597 258.719C319.154 262.403 309.423 262.797 303.768 259.64L178.184 187.15C175.949 185.834 174.765 184.124 174.502 182.413C174.108 184.781 175.423 187.018 178.184 188.597L303.768 261.087C309.291 264.376 319.154 263.85 325.597 260.166L565.062 121.895C568.875 119.659 570.716 116.764 570.322 114.133C569.927 116.238 568.218 118.606 565.062 120.316Z" fill="white"/>
<path opacity="0.51" d="M304.031 256.745L182.918 186.755C177.527 183.597 178.184 178.203 184.496 174.52L419.49 38.8799C425.67 35.3277 435.138 34.933 440.53 37.9589L561.643 107.95C567.034 111.107 566.377 116.501 560.065 120.185L325.071 255.956C318.891 259.508 309.423 259.903 304.031 256.745Z" fill="#453C9E"/>
<path opacity="0.5" d="M304.032 253.588L182.919 183.597C177.527 180.44 178.185 175.046 184.497 171.362L419.49 35.854C425.67 32.3018 435.138 31.9071 440.53 34.933L561.643 104.924C567.034 108.081 566.377 113.475 560.065 117.159L325.072 252.799C318.891 256.351 309.423 256.745 304.032 253.588Z" fill="url(#paint2_radial)"/>
<path opacity="0.8" d="M313.236 256.088C309.686 256.088 306.398 255.43 303.9 253.983L182.787 183.992C180.288 182.545 178.973 180.571 178.973 178.335C178.973 175.704 180.946 173.072 184.365 171.099L419.227 35.4593C425.539 31.7756 435.138 31.3809 440.661 34.5383L561.774 104.529C564.273 105.976 565.588 107.95 565.588 110.186C565.588 112.817 563.615 115.449 560.196 117.422L325.335 253.062C321.784 255.167 317.444 256.088 313.236 256.088ZM304.294 253.325C309.554 256.351 318.891 255.956 324.94 252.404L559.933 116.764C563.089 114.922 564.93 112.554 564.93 110.186C564.93 108.344 563.747 106.502 561.511 105.187L440.398 35.1961C435.138 32.1702 425.802 32.5649 419.753 36.1171L184.628 171.888C181.472 173.73 179.631 176.098 179.631 178.466C179.631 180.308 180.814 182.15 183.05 183.466L304.294 253.325Z" fill="url(#paint3_linear)"/>
<path d="M313.236 255.956C309.817 255.956 306.398 255.298 303.9 253.851L182.787 183.861C180.288 182.413 178.973 180.44 178.973 178.335C178.973 175.704 180.946 173.204 184.233 171.231L419.358 35.5909C425.67 31.9071 435.27 31.5125 440.661 34.6699L561.774 104.661C564.273 106.108 565.588 108.081 565.588 110.186C565.588 112.817 563.615 115.317 560.328 117.29L325.203 253.062C321.784 255.035 317.444 255.956 313.236 255.956ZM304.163 253.456C309.423 256.482 318.759 256.088 324.94 252.536L559.933 116.764C563.089 114.922 564.93 112.554 564.93 110.055C564.93 108.081 563.747 106.371 561.38 105.055L440.398 35.1962C435.138 32.1703 425.802 32.565 419.621 36.1171L184.628 171.757C181.472 173.599 179.631 175.967 179.631 178.466C179.631 180.44 180.814 182.15 183.181 183.466L304.163 253.456Z" fill="#42E8E0"/>
<path d="M359.788 86.5051C359.262 86.5051 358.605 86.3735 357.947 85.9788L345.455 78.743L345.718 78.2167L358.21 85.4526C359.131 85.9788 359.92 86.1104 360.577 85.7157C361.235 85.321 361.498 84.5317 361.498 83.4792V80.4533C361.498 79.1376 361.892 78.2167 362.813 77.822C363.602 77.2958 364.654 77.4273 365.837 78.0852L368.467 79.5323L368.204 80.0586L365.574 78.6114C364.654 78.0852 363.865 77.9536 363.207 78.3483C362.55 78.743 362.287 79.5323 362.287 80.5848V83.6107C362.287 84.9264 361.892 85.8473 360.972 86.3735C360.577 86.3735 360.183 86.5051 359.788 86.5051Z" fill="#42E8E0"/>
<path d="M354.923 89.2677C354.397 89.2677 353.739 89.1362 353.082 88.7415L340.589 81.5056L340.852 80.9794L353.345 88.2152C354.265 88.7415 355.054 88.8731 355.712 88.4784C356.369 88.0837 356.632 87.2943 356.632 86.2418V83.2159C356.632 81.9003 357.027 80.9794 357.947 80.4531C358.736 79.9269 359.788 80.0584 360.972 80.7163L363.602 82.1634L363.339 82.6897L360.709 81.2425C359.788 80.7163 358.999 80.5847 358.342 80.9794C357.684 81.3741 357.421 82.1634 357.421 83.2159V86.2418C357.421 87.5574 357.027 88.4784 356.106 89.0046C355.712 89.1362 355.317 89.2677 354.923 89.2677Z" fill="#42E8E0"/>
<path d="M350.057 92.0307C349.531 92.0307 348.874 91.8991 348.216 91.5044L335.724 84.2686L335.987 83.7423L348.479 90.9782C349.4 91.5044 350.189 91.636 350.846 91.2413C351.504 90.8466 351.767 90.0573 351.767 89.0048V85.9789C351.767 84.6632 352.161 83.7423 353.082 83.2161C353.871 82.6898 354.923 82.8214 356.106 83.4792L358.736 84.9264L358.473 85.4526L355.843 84.0054C354.923 83.4792 354.134 83.3476 353.476 83.7423C352.819 84.137 352.556 84.9264 352.556 85.9789V89.0048C352.556 90.3204 352.161 91.2413 351.241 91.636C350.846 91.8991 350.452 92.0307 350.057 92.0307Z" fill="#42E8E0"/>
<path d="M345.192 94.7934C344.666 94.7934 344.008 94.6618 343.351 94.2671L330.858 87.0313L331.121 86.505L343.614 93.7409C344.534 94.2671 345.323 94.3987 345.981 94.004C346.638 93.6093 346.901 92.82 346.901 91.7675V88.7416C346.901 87.4259 347.296 86.505 348.216 85.9788C349.137 85.4525 350.057 85.5841 351.241 86.2419L353.871 87.6891L353.608 88.2153L350.978 86.7681C350.057 86.2419 349.268 86.1103 348.611 86.505C347.953 86.8997 347.69 87.6891 347.69 88.7416V91.7675C347.69 93.0831 347.296 94.004 346.375 94.5303C345.981 94.6618 345.586 94.7934 345.192 94.7934Z" fill="#42E8E0"/>
<path d="M340.326 97.5563C339.8 97.5563 339.143 97.4248 338.485 97.0301L325.992 89.7942L326.255 89.268L338.748 96.5038C339.669 97.0301 340.458 97.1616 341.115 96.767C341.773 96.3723 342.036 95.5829 342.036 94.5304V91.5045C342.036 90.1889 342.43 89.268 343.351 88.7417C344.14 88.2155 345.192 88.347 346.375 89.0048L349.005 90.452L348.742 90.9783L346.112 89.5311C345.192 89.0048 344.403 88.8733 343.745 89.268C343.088 89.6626 342.825 90.452 342.825 91.5045V94.5304C342.825 95.846 342.43 96.7669 341.51 97.2932C341.115 97.4248 340.721 97.5563 340.326 97.5563Z" fill="#42E8E0"/>
<path d="M335.592 100.319C335.066 100.319 334.408 100.187 333.751 99.7926L321.258 92.5567L321.521 92.0305L334.014 99.2663C334.934 99.7926 335.723 99.9241 336.381 99.5295C337.038 99.1348 337.301 98.3454 337.301 97.2929V94.3986C337.301 93.083 337.696 92.162 338.617 91.7673C339.406 91.2411 340.458 91.3727 341.641 92.0305L344.271 93.4776L344.008 94.0039L341.378 92.5567C340.457 92.0305 339.669 91.8989 339.011 92.2936C338.353 92.6883 338.09 93.4776 338.09 94.5301V97.556C338.09 98.8717 337.696 99.7926 336.775 100.319C336.381 100.319 335.986 100.319 335.592 100.319Z" fill="#42E8E0"/>
<path d="M330.727 103.213C330.201 103.213 329.543 103.082 328.885 102.687L316.393 95.4512L316.656 94.9249L329.148 102.161C330.069 102.687 330.858 102.819 331.515 102.424C332.173 102.029 332.436 101.24 332.436 100.187V97.1615C332.436 95.8459 332.831 94.9249 333.751 94.3987C334.54 93.8724 335.592 94.004 336.776 94.6618L339.406 96.109L339.143 96.6352L336.513 95.1881C335.592 94.6618 334.803 94.5303 334.146 94.9249C333.488 95.3196 333.225 96.109 333.225 97.1615V100.187C333.225 101.503 332.831 102.424 331.91 102.95C331.516 103.082 331.121 103.213 330.727 103.213Z" fill="#42E8E0"/>
<path d="M325.861 105.976C325.335 105.976 324.677 105.844 324.02 105.45L311.527 98.2139L311.79 97.6876L324.283 104.924C325.203 105.45 325.992 105.581 326.65 105.187C327.307 104.792 327.57 104.003 327.57 102.95V99.9242C327.57 98.6086 327.965 97.6876 328.885 97.1614C329.674 96.6351 330.727 96.7667 331.91 97.4245L334.54 98.8717L334.277 99.3979L331.647 97.9508C330.727 97.4245 329.938 97.2929 329.28 97.6876C328.623 98.0823 328.359 98.8717 328.359 99.9242V102.95C328.359 104.266 327.965 105.187 327.044 105.713C326.65 105.844 326.255 105.976 325.861 105.976Z" fill="#42E8E0"/>
<path d="M320.995 108.739C320.469 108.739 319.812 108.607 319.154 108.213L306.793 100.977L307.056 100.451L319.549 107.686C320.469 108.213 321.258 108.344 321.916 107.95C322.573 107.555 322.836 106.766 322.836 105.713V102.687C322.836 101.372 323.231 100.451 324.151 99.9243C324.94 99.3981 325.992 99.5296 327.176 100.187L329.806 101.635L329.543 102.161L326.913 100.714C325.992 100.187 325.203 100.056 324.546 100.451C323.888 100.845 323.625 101.635 323.625 102.687V105.713C323.625 107.029 323.231 107.95 322.31 108.476C321.784 108.607 321.39 108.739 320.995 108.739Z" fill="#42E8E0"/>
<path d="M316.13 111.502C315.604 111.502 314.946 111.37 314.289 110.975L301.796 103.74L302.059 103.213L314.552 110.449C315.472 110.975 316.261 111.107 316.919 110.712C317.576 110.318 317.839 109.528 317.839 108.476V105.45C317.839 104.134 318.234 103.213 319.154 102.819C319.943 102.292 320.995 102.424 322.179 103.082L324.809 104.529L324.546 105.055L321.916 103.608C320.995 103.082 320.206 102.95 319.549 103.345C318.891 103.74 318.628 104.529 318.628 105.581V108.607C318.628 109.923 318.234 110.844 317.313 111.37C316.919 111.37 316.524 111.502 316.13 111.502Z" fill="#42E8E0"/>
<path d="M311.396 114.265C310.87 114.265 310.212 114.133 309.555 113.738L297.062 106.502L297.325 105.976L309.818 113.212C310.738 113.738 311.527 113.87 312.185 113.475C312.842 113.081 313.105 112.291 313.105 111.239V108.213C313.105 106.897 313.5 105.976 314.42 105.45C315.209 104.924 316.261 105.055 317.445 105.713L320.075 107.16L319.812 107.687L317.182 106.239C316.261 105.713 315.472 105.582 314.815 105.976C314.157 106.371 313.894 107.16 313.894 108.213V111.239C313.894 112.554 313.5 113.475 312.579 114.001C312.185 114.133 311.79 114.265 311.396 114.265Z" fill="#42E8E0"/>
<path d="M306.53 117.027C306.004 117.027 305.347 116.896 304.689 116.501L292.197 109.265L292.46 108.739L304.952 115.975C305.873 116.501 306.662 116.633 307.319 116.238C307.977 115.843 308.24 115.054 308.24 114.001V110.975C308.24 109.66 308.634 108.739 309.555 108.213C310.344 107.686 311.396 107.818 312.579 108.476L315.209 109.923L314.946 110.449L312.316 109.002C311.396 108.476 310.607 108.344 309.949 108.739C309.292 109.134 309.029 109.923 309.029 110.975V114.001C309.029 115.317 308.634 116.238 307.714 116.633C307.319 117.027 306.925 117.027 306.53 117.027Z" fill="#42E8E0"/>
<path d="M301.664 119.922C301.138 119.922 300.481 119.79 299.823 119.395L287.331 112.159L287.594 111.633L300.086 118.869C301.007 119.395 301.796 119.527 302.453 119.132C303.111 118.738 303.374 117.948 303.374 116.896V113.87C303.374 112.554 303.768 111.633 304.689 111.107C305.478 110.581 306.53 110.712 307.714 111.37L310.344 112.817L310.081 113.343L307.451 111.896C306.53 111.37 305.741 111.239 305.084 111.633C304.426 112.028 304.163 112.817 304.163 113.87V116.896C304.163 118.211 303.768 119.132 302.848 119.658C302.453 119.79 302.059 119.922 301.664 119.922Z" fill="#42E8E0"/>
<path d="M296.799 122.684C296.273 122.684 295.615 122.553 294.958 122.158L282.465 114.922L282.728 114.396L295.221 121.632C296.141 122.158 296.93 122.29 297.588 121.895C298.245 121.5 298.508 120.711 298.508 119.658V116.632C298.508 115.317 298.903 114.396 299.824 113.87C300.613 113.343 301.665 113.475 302.848 114.133L305.478 115.58L305.215 116.106L302.585 114.659C301.664 114.133 300.876 114.001 300.218 114.396C299.56 114.791 299.297 115.58 299.297 116.632V119.658C299.297 120.974 298.903 121.895 297.982 122.421C297.588 122.553 297.193 122.684 296.799 122.684Z" fill="#42E8E0"/>
<path d="M291.934 125.447C291.408 125.447 290.75 125.316 290.092 124.921L277.6 117.685L277.863 117.159L290.355 124.395C291.276 124.921 292.065 125.053 292.723 124.658C293.38 124.263 293.643 123.474 293.643 122.421V119.395C293.643 118.08 294.038 117.159 294.958 116.764C295.747 116.238 296.799 116.369 297.983 117.027L300.613 118.474L300.35 119.001L297.72 117.554C296.799 117.027 296.01 116.896 295.353 117.29C294.695 117.685 294.432 118.474 294.432 119.527V122.553C294.432 123.868 294.038 124.789 293.117 125.316C292.723 125.316 292.328 125.447 291.934 125.447Z" fill="#42E8E0"/>
<path d="M287.199 128.21C286.673 128.21 286.016 128.079 285.358 127.684L272.866 120.448L273.129 119.922L285.621 127.158C286.542 127.684 287.331 127.815 287.988 127.421C288.646 127.026 288.909 126.237 288.909 125.184V122.158C288.909 120.843 289.303 119.922 290.224 119.396C291.013 118.869 292.065 119.001 293.248 119.659L295.878 121.106L295.615 121.632L292.985 120.185C292.065 119.659 291.276 119.527 290.618 119.922C289.961 120.316 289.698 121.106 289.698 122.158V125.184C289.698 126.5 289.303 127.421 288.383 127.947C287.988 128.079 287.594 128.21 287.199 128.21Z" fill="#42E8E0"/>
<path d="M282.334 130.973C281.808 130.973 281.15 130.841 280.493 130.447L268 123.211L268.263 122.684L280.756 129.92C281.676 130.447 282.465 130.578 283.123 130.183C283.78 129.789 284.043 128.999 284.043 127.947V124.921C284.043 123.605 284.438 122.684 285.358 122.158C286.147 121.632 287.199 121.764 288.383 122.421L291.013 123.869L290.75 124.395L288.12 122.948C287.199 122.421 286.41 122.29 285.753 122.684C285.095 123.079 284.832 123.869 284.832 124.921V127.947C284.832 129.263 284.438 130.183 283.517 130.578C283.123 130.841 282.728 130.973 282.334 130.973Z" fill="#42E8E0"/>
<path d="M277.468 133.736C276.942 133.736 276.285 133.604 275.627 133.209L263.135 125.973L263.398 125.447L275.89 132.683C276.811 133.209 277.6 133.341 278.257 132.946C278.915 132.551 279.178 131.762 279.178 130.71V127.684C279.178 126.368 279.572 125.447 280.493 124.921C281.282 124.395 282.334 124.526 283.517 125.184L286.147 126.631L285.884 127.157L283.254 125.71C282.334 125.184 281.545 125.052 280.887 125.447C280.23 125.842 279.967 126.631 279.967 127.684V130.71C279.967 132.025 279.572 132.946 278.652 133.472C278.257 133.736 277.863 133.736 277.468 133.736Z" fill="#42E8E0"/>
<path d="M272.603 136.63C272.077 136.63 271.419 136.498 270.762 136.104L258.269 128.868L258.532 128.341L271.025 135.577C271.945 136.104 272.734 136.235 273.392 135.84C274.049 135.446 274.312 134.656 274.312 133.604V130.578C274.312 129.262 274.707 128.341 275.627 127.815C276.416 127.289 277.468 127.421 278.652 128.078L281.282 129.525L281.019 130.052L278.389 128.605C277.468 128.078 276.679 127.947 276.022 128.341C275.364 128.736 275.101 129.525 275.101 130.578V133.604C275.101 134.92 274.707 135.84 273.786 136.367C273.392 136.498 272.997 136.63 272.603 136.63Z" fill="#42E8E0"/>
<path d="M267.737 139.393C267.211 139.393 266.554 139.261 265.896 138.867L253.404 131.631L253.667 131.104L266.159 138.34C267.08 138.867 267.869 138.998 268.526 138.603C269.184 138.209 269.447 137.419 269.447 136.367V133.341C269.447 132.025 269.841 131.104 270.762 130.71C271.551 130.183 272.603 130.315 273.786 130.973L276.416 132.42L276.153 132.946L273.523 131.499C272.603 130.973 271.814 130.841 271.156 131.236C270.499 131.631 270.236 132.42 270.236 133.473V136.498C270.236 137.814 269.841 138.735 268.921 139.261C268.526 139.261 268.132 139.393 267.737 139.393Z" fill="#42E8E0"/>
<path d="M379.513 86.6367C379.119 86.6367 378.724 86.5051 378.33 86.3735C377.541 85.8473 377.015 84.9264 377.015 83.6107V80.5848C377.015 79.5323 376.62 78.743 376.094 78.3483C375.437 77.9536 374.648 78.0852 373.727 78.6114L371.097 80.0586L370.834 79.5323L373.464 78.0852C374.516 77.4274 375.568 77.2958 376.489 77.822C377.278 78.3483 377.804 79.2692 377.804 80.4533V83.4792C377.804 84.5317 378.198 85.321 378.724 85.7157C379.382 86.1104 380.171 85.9788 381.091 85.4526L454.338 43.0898L454.601 43.6161L381.354 86.1104C380.697 86.5051 380.171 86.6367 379.513 86.6367Z" fill="#42E8E0"/>
<path d="M384.379 89.3994C383.984 89.3994 383.59 89.2678 383.195 89.1363C382.406 88.61 381.88 87.6891 381.88 86.3735V83.3476C381.88 82.2951 381.486 81.5057 380.96 81.111C380.302 80.7163 379.513 80.8479 378.593 81.3741L375.963 82.8213L375.7 82.2951L378.33 80.8479C379.382 80.1901 380.434 80.0585 381.354 80.5848C382.143 81.111 382.669 82.0319 382.669 83.3476V86.505C382.669 87.5575 383.064 88.3469 383.59 88.7416C384.247 89.1363 385.036 89.0047 385.957 88.4785L459.203 45.9841L459.466 46.5104L386.22 89.0047C385.562 89.2678 384.905 89.3994 384.379 89.3994Z" fill="#42E8E0"/>
<path d="M389.245 92.2937C388.85 92.2937 388.455 92.1621 388.061 92.0305C387.272 91.5043 386.746 90.5834 386.746 89.3993V86.3734C386.746 85.3209 386.351 84.5315 385.825 84.1368C385.168 83.7422 384.379 83.8737 383.458 84.4L380.828 85.8471L380.565 85.3209L383.195 83.8737C384.247 83.2159 385.299 83.0844 386.22 83.6106C387.009 84.1369 387.535 85.0578 387.535 86.3734V89.3993C387.535 90.4518 387.93 91.2412 388.456 91.6358C389.113 92.0305 389.902 91.899 390.823 91.3727L464.069 48.8784L464.332 49.4047L391.086 91.899C390.428 92.0305 389.771 92.2937 389.245 92.2937Z" fill="#42E8E0"/>
<path d="M394.11 95.0566C393.716 95.0566 393.321 94.925 392.927 94.7935C392.137 94.2672 391.611 93.3463 391.611 92.0307V89.0048C391.611 87.9523 391.217 87.1629 390.691 86.7682C390.033 86.3735 389.244 86.5051 388.324 87.0313L385.694 88.4785L385.431 87.9523L388.061 86.5051C389.113 85.8473 390.165 85.7157 391.085 86.242C392.006 86.7682 392.401 87.6892 392.401 89.0048V92.0307C392.401 93.0832 392.795 93.8725 393.321 94.2672C393.979 94.6619 394.768 94.5303 395.688 94.0041L468.934 51.5098L469.197 52.036L395.951 94.5303C395.294 94.7935 394.636 95.0566 394.11 95.0566Z" fill="#42E8E0"/>
<path d="M398.975 97.8193C398.581 97.8193 398.186 97.6877 397.792 97.5561C397.003 97.0299 396.477 96.109 396.477 94.7934V91.7674C396.477 90.715 396.082 89.9256 395.556 89.5309C394.899 89.1362 394.11 89.2678 393.189 89.794L390.559 91.2412L390.296 90.715L392.926 89.2678C393.978 88.61 395.03 88.4784 395.951 89.0047C396.74 89.5309 397.266 90.4518 397.266 91.7674V94.7934C397.266 95.8459 397.66 96.6352 398.186 97.0299C398.844 97.4246 399.633 97.293 400.553 96.7668L473.8 54.2725L474.063 54.7987L400.816 97.293C400.159 97.5561 399.501 97.8193 398.975 97.8193Z" fill="#42E8E0"/>
<path d="M403.71 100.582C403.315 100.582 402.921 100.451 402.526 100.319C401.737 99.7928 401.211 98.8719 401.211 97.5563V94.5304C401.211 93.4779 400.817 92.6885 400.291 92.2938C399.633 91.8991 398.844 92.0307 397.924 92.5569L395.293 94.0041L395.031 93.4779L397.661 92.0307C398.713 91.3729 399.765 91.2413 400.685 91.7676C401.474 92.2938 402 93.2147 402 94.3988V97.4247C402 98.4772 402.395 99.2666 402.921 99.6612C403.578 100.056 404.367 99.9244 405.288 99.3981L478.534 56.9038L478.797 57.4301L405.551 99.9244C404.893 100.451 404.367 100.582 403.71 100.582Z" fill="#42E8E0"/>
<path d="M408.575 103.345C408.181 103.345 407.786 103.213 407.392 103.082C406.603 102.556 406.077 101.635 406.077 100.319V97.2931C406.077 96.2406 405.682 95.4512 405.156 95.0565C404.499 94.6619 403.71 94.7934 402.789 95.3197L400.159 96.7668L399.896 96.2406L402.526 94.7934C403.578 94.1356 404.63 94.0041 405.551 94.5303C406.34 95.0565 406.866 95.9775 406.866 97.2931V100.319C406.866 101.371 407.26 102.161 407.786 102.556C408.444 102.95 409.233 102.819 410.153 102.292L483.399 59.7981L483.663 60.3243L410.416 102.819C409.759 103.213 409.101 103.345 408.575 103.345Z" fill="#42E8E0"/>
<path d="M413.441 106.108C413.046 106.108 412.652 105.976 412.257 105.844C411.468 105.318 410.942 104.397 410.942 103.213V100.187C410.942 99.1348 410.548 98.3455 410.022 97.9508C409.364 97.5561 408.575 97.6877 407.655 98.2139L405.024 99.6611L404.761 99.1348L407.392 97.6877C408.444 97.0299 409.496 96.8983 410.416 97.4245C411.205 97.9508 411.731 98.8717 411.731 100.187V103.213C411.731 104.266 412.126 105.055 412.652 105.45C413.309 105.844 414.098 105.713 415.019 105.187L488.265 62.5608L488.528 63.087L415.282 105.581C414.624 105.976 413.967 106.108 413.441 106.108Z" fill="#42E8E0"/>
<path d="M418.306 109.002C417.912 109.002 417.517 108.87 417.123 108.739C416.334 108.213 415.808 107.292 415.808 105.976V102.95C415.808 101.898 415.413 101.108 414.887 100.714C414.23 100.319 413.441 100.45 412.52 100.977L409.89 102.424L409.627 101.898L412.257 100.45C413.309 99.7926 414.361 99.661 415.282 100.187C416.071 100.714 416.597 101.634 416.597 102.95V105.976C416.597 107.028 416.991 107.818 417.517 108.213C418.175 108.607 418.964 108.476 419.884 107.949L493.131 65.4551L493.394 65.9813L420.147 108.476C419.49 108.739 418.832 109.002 418.306 109.002Z" fill="#42E8E0"/>
<path d="M423.172 111.765C422.777 111.765 422.383 111.633 421.988 111.502C421.199 110.975 420.673 110.055 420.673 108.739V105.713C420.673 104.661 420.279 103.871 419.753 103.476C419.095 103.082 418.306 103.213 417.386 103.74L414.756 105.187L414.493 104.661L417.123 103.213C418.175 102.556 419.227 102.424 420.147 102.95C420.936 103.476 421.462 104.397 421.462 105.713V108.739C421.462 109.791 421.857 110.581 422.383 110.975C423.04 111.37 423.829 111.239 424.75 110.712L497.996 68.218L498.259 68.7443L425.013 111.239C424.355 111.502 423.698 111.765 423.172 111.765Z" fill="#42E8E0"/>
<path d="M427.906 114.528C427.511 114.528 427.117 114.396 426.722 114.264C425.933 113.738 425.407 112.817 425.407 111.502V108.476C425.407 107.423 425.013 106.634 424.487 106.239C423.829 105.844 423.04 105.976 422.12 106.502L419.49 107.949L419.227 107.423L421.857 105.976C422.909 105.318 423.961 105.187 424.881 105.713C425.67 106.239 426.196 107.16 426.196 108.476V111.502C426.196 112.554 426.591 113.343 427.117 113.738C427.774 114.133 428.563 114.001 429.484 113.475L502.73 70.9807L502.993 71.507L429.747 114.001C429.089 114.396 428.563 114.528 427.906 114.528Z" fill="#42E8E0"/>
<path d="M432.771 117.29C432.377 117.29 431.982 117.159 431.588 117.027C430.799 116.501 430.273 115.58 430.273 114.396V111.37C430.273 110.318 429.878 109.528 429.352 109.134C428.695 108.739 427.906 108.871 426.985 109.397L424.355 110.844L424.092 110.318L426.722 108.871C427.774 108.213 428.826 108.081 429.747 108.607C430.536 109.134 431.062 110.055 431.062 111.37V114.396C431.062 115.449 431.456 116.238 431.982 116.633C432.64 117.027 433.429 116.896 434.349 116.37L507.596 73.8752L507.859 74.4015L434.612 116.764C433.955 117.159 433.297 117.29 432.771 117.29Z" fill="#42E8E0"/>
<path d="M437.637 120.053C437.242 120.053 436.848 119.922 436.453 119.79C435.664 119.264 435.138 118.343 435.138 117.027V114.133C435.138 113.08 434.744 112.291 434.218 111.896C433.56 111.502 432.771 111.633 431.851 112.159L429.221 113.607L428.958 113.08L431.588 111.633C432.64 110.975 433.692 110.844 434.612 111.37C435.401 111.896 435.927 112.817 435.927 114.133V117.159C435.927 118.211 436.322 119.001 436.848 119.395C437.505 119.79 438.294 119.658 439.215 119.132L512.461 76.6379L512.724 77.1642L439.478 119.658C438.82 119.922 438.163 120.053 437.637 120.053Z" fill="#42E8E0"/>
<path d="M442.502 122.816C442.108 122.816 441.713 122.685 441.319 122.553C440.53 122.027 440.004 121.106 440.004 119.79V116.764C440.004 115.712 439.609 114.922 439.083 114.528C438.426 114.133 437.637 114.265 436.716 114.791L434.086 116.238L433.823 115.712L436.453 114.265C437.505 113.607 438.557 113.475 439.478 114.001C440.267 114.528 440.793 115.449 440.793 116.764V119.79C440.793 120.843 441.187 121.632 441.713 122.027C442.371 122.421 443.16 122.29 444.08 121.764L517.327 79.2693L517.59 79.7955L444.343 122.29C443.686 122.685 443.028 122.816 442.502 122.816Z" fill="#42E8E0"/>
<path d="M447.368 125.71C446.974 125.71 446.579 125.579 446.185 125.447C445.396 124.921 444.87 124 444.87 122.684V119.659C444.87 118.606 444.475 117.817 443.949 117.422C443.292 117.027 442.503 117.159 441.582 117.685L438.952 119.132L438.689 118.606L441.319 117.159C442.371 116.501 443.423 116.369 444.344 116.896C445.133 117.422 445.659 118.343 445.659 119.527V122.553C445.659 123.605 446.053 124.395 446.579 124.789C447.237 125.184 448.026 125.053 448.946 124.526L522.192 82.032L522.455 82.5582L449.209 125.053C448.552 125.447 447.894 125.71 447.368 125.71Z" fill="#42E8E0"/>
<path d="M452.102 128.473C451.708 128.473 451.313 128.342 450.919 128.21C450.13 127.684 449.604 126.763 449.604 125.447V122.421C449.604 121.369 449.209 120.579 448.683 120.185C448.026 119.79 447.237 119.922 446.316 120.448L443.686 121.895L443.423 121.369L446.053 119.922C447.105 119.264 448.157 119.132 449.078 119.658C449.867 120.185 450.393 121.106 450.393 122.421V125.447C450.393 126.5 450.787 127.289 451.313 127.684C451.971 128.078 452.76 127.947 453.68 127.421L526.927 84.9263L527.19 85.4525L453.943 127.947C453.286 128.21 452.76 128.473 452.102 128.473Z" fill="#42E8E0"/>
<path d="M456.968 131.236C456.573 131.236 456.179 131.104 455.784 130.973C454.995 130.446 454.469 129.526 454.469 128.341V125.316C454.469 124.263 454.075 123.474 453.549 123.079C452.891 122.684 452.102 122.816 451.182 123.342L448.552 124.789L448.289 124.263L450.919 122.816C451.971 122.158 453.023 122.027 453.943 122.553C454.732 123.079 455.258 124 455.258 125.316V128.341C455.258 129.394 455.653 130.183 456.179 130.578C456.836 130.973 457.625 130.841 458.546 130.315L531.792 87.8206L532.055 88.3468L458.809 130.841C458.151 131.104 457.494 131.236 456.968 131.236Z" fill="#42E8E0"/>
<path d="M461.833 133.999C461.439 133.999 461.044 133.867 460.65 133.736C459.861 133.209 459.335 132.288 459.335 130.973V127.947C459.335 126.894 458.94 126.105 458.414 125.71C457.757 125.316 456.968 125.447 456.047 125.973L453.417 127.421L453.154 126.894L455.784 125.447C456.836 124.789 457.888 124.658 458.809 125.184C459.598 125.71 460.124 126.631 460.124 127.947V130.973C460.124 132.025 460.518 132.815 461.044 133.209C461.702 133.604 462.491 133.472 463.411 132.946L536.657 90.4519L536.92 90.9782L463.674 133.472C463.017 133.867 462.359 133.999 461.833 133.999Z" fill="#42E8E0"/>
<path d="M466.699 136.761C466.304 136.761 465.91 136.63 465.515 136.498C464.726 135.972 464.2 135.051 464.2 133.736V130.71C464.2 129.657 463.806 128.868 463.28 128.473C462.622 128.078 461.833 128.21 460.913 128.736L458.283 130.183L458.02 129.92L460.65 128.473C461.702 127.815 462.754 127.684 463.674 128.21C464.463 128.736 464.989 129.657 464.989 130.973V133.999C464.989 135.051 465.384 135.841 465.91 136.235C466.567 136.63 467.356 136.498 468.277 135.972L541.523 93.4778L541.786 94.004L468.54 136.235C467.882 136.63 467.225 136.761 466.699 136.761Z" fill="#42E8E0"/>
<path d="M471.564 139.524C471.17 139.524 470.775 139.393 470.381 139.261C469.592 138.735 469.066 137.814 469.066 136.498V133.472C469.066 132.42 468.671 131.63 468.145 131.236C467.488 130.841 466.699 130.973 465.778 131.499L463.148 132.946L462.885 132.42L465.515 130.973C466.567 130.315 467.619 130.183 468.54 130.709C469.329 131.236 469.855 132.157 469.855 133.341V136.367C469.855 137.419 470.249 138.208 470.775 138.603C471.433 138.998 472.222 138.866 473.142 138.34L546.389 95.8457L546.652 96.372L473.405 138.866C472.748 139.393 472.09 139.524 471.564 139.524Z" fill="#42E8E0"/>
<path d="M465.252 133.999V145.05L369.651 200.306L274.049 145.05V133.999H465.252Z" fill="url(#paint4_linear)"/>
<path d="M369.651 189.254L274.049 133.999L369.651 78.7429L465.252 133.999L369.651 189.254Z" fill="#BCBEFF"/>
<path d="M369.651 187.939L275.233 133.341L274.049 133.999L369.651 189.255L465.252 133.999L464.2 133.341L369.651 187.939Z" fill="white"/>
<path d="M369.651 176.493L296.141 133.999L369.651 91.5044L443.16 133.999L369.651 176.493Z" fill="#0F054C"/>
<path opacity="0.5" d="M369.651 176.493L296.141 133.999L369.651 91.5044L443.16 133.999L369.651 176.493Z" fill="url(#paint5_linear)"/>
<path opacity="0.5" d="M369.651 80.8479L443.16 123.342V133.999L369.651 91.5044V80.8479Z" fill="url(#paint6_linear)"/>
<path opacity="0.5" d="M369.651 91.5044L296.142 133.999V123.342L369.651 80.8479V91.5044Z" fill="url(#paint7_linear)"/>
<path opacity="0.5" d="M369.651 165.705L296.142 123.342L369.651 80.8479L443.16 123.342L369.651 165.705Z" fill="url(#paint8_linear)"/>
<path opacity="0.7" d="M369.65 153.207L317.839 123.342L369.65 93.3462L421.594 123.342L369.65 153.207Z" fill="#42E8E0"/>
<path opacity="0.5" d="M369.651 140.314L340.326 123.342L369.651 106.371L399.107 123.342L369.651 140.314Z" fill="#42E8E0"/>
<path opacity="0.5" d="M369.651 107.818L397.66 124.132L399.107 123.342L369.651 106.371L340.326 123.342L341.641 124.132L369.651 107.818Z" fill="#42E8E0"/>
<path opacity="0.5" d="M369.651 165.705V176.493L443.16 133.999V123.342L369.651 165.705Z" fill="url(#paint9_linear)"/>
<path opacity="0.5" d="M296.141 123.342V133.999L369.651 176.493V165.705L296.141 123.342Z" fill="url(#paint10_linear)"/>
<path opacity="0.8" d="M369.651 164.653L297.193 122.685L296.141 123.342L369.651 165.705L443.16 123.342L442.239 122.685L369.651 164.653Z" fill="#42E8E0"/>
<path d="M393.584 213.33L381.091 206.094C378.987 204.779 377.146 201.753 377.146 199.253V196.227C377.146 193.859 375.568 191.096 373.464 189.912L370.834 188.465L371.097 187.939L373.727 189.386C375.831 190.702 377.672 193.728 377.672 196.227V199.253C377.672 201.621 379.25 204.384 381.354 205.568L393.847 212.804L393.584 213.33Z" fill="#42E8E0"/>
<path d="M398.45 210.567L385.957 203.331C383.853 202.147 382.012 198.99 382.012 196.49V193.464C382.012 191.096 380.434 188.333 378.33 187.149L375.7 185.702L375.963 185.176L378.593 186.623C380.697 187.807 382.538 190.965 382.538 193.464V196.49C382.538 198.858 384.116 201.621 386.22 202.805L398.713 210.041L398.45 210.567Z" fill="#42E8E0"/>
<path d="M403.184 207.805L390.691 200.569C388.587 199.253 386.746 196.227 386.746 193.728V190.702C386.746 188.334 385.168 185.571 383.064 184.387L380.434 182.94L380.697 182.413L383.327 183.861C385.431 185.176 387.272 188.202 387.272 190.702V193.728C387.272 196.096 388.85 198.859 390.954 200.043L403.447 207.278L403.184 207.805Z" fill="#42E8E0"/>
<path d="M408.049 204.91L395.556 197.674C393.452 196.49 391.611 193.333 391.611 190.833V187.807C391.611 185.439 390.033 182.676 387.929 181.492L385.299 180.045L385.562 179.519L388.192 180.966C390.296 182.282 392.137 185.308 392.137 187.807V190.833C392.137 193.201 393.715 195.964 395.819 197.148L408.312 204.384L408.049 204.91Z" fill="#42E8E0"/>
<path d="M412.915 202.147L400.422 194.912C398.318 193.728 396.477 190.57 396.477 188.07V185.176C396.477 182.808 394.899 180.045 392.795 178.861L390.165 177.414L390.428 176.888L393.058 178.335C395.162 179.519 397.003 182.676 397.003 185.176V188.202C397.003 190.57 398.581 193.333 400.685 194.517L413.178 201.753L412.915 202.147Z" fill="#42E8E0"/>
<path d="M417.78 199.385L405.288 192.149C403.184 190.833 401.343 187.807 401.343 185.308V182.282C401.343 179.914 399.765 177.151 397.661 175.967L395.031 174.52L395.293 173.993L397.924 175.441C400.028 176.756 401.869 179.782 401.869 182.282V185.308C401.869 187.676 403.447 190.439 405.551 191.623L418.043 198.858L417.78 199.385Z" fill="#42E8E0"/>
<path d="M422.646 196.622L410.153 189.386C408.049 188.202 406.208 185.044 406.208 182.545V179.519C406.208 177.151 404.63 174.388 402.526 173.204L399.896 171.757L400.159 171.23L402.789 172.678C404.893 173.862 406.734 177.019 406.734 179.519V182.545C406.734 184.913 408.312 187.676 410.416 188.86L422.909 196.096L422.646 196.622Z" fill="#42E8E0"/>
<path d="M427.38 193.859L414.887 186.623C412.783 185.308 410.942 182.282 410.942 179.782V176.756C410.942 174.388 409.364 171.625 407.26 170.441L404.63 168.994L404.893 168.468L407.523 169.915C409.627 171.231 411.468 174.256 411.468 176.756V179.782C411.468 182.15 413.046 184.913 415.15 186.097L427.643 193.333L427.38 193.859Z" fill="#42E8E0"/>
<path d="M432.245 190.965L419.884 183.861C417.78 182.676 415.939 179.519 415.939 177.019V173.993C415.939 171.625 414.361 168.863 412.257 167.678L409.627 166.231L409.89 165.705L412.52 167.152C414.624 168.336 416.465 171.494 416.465 173.993V177.019C416.465 179.387 418.043 182.15 420.147 183.334L432.64 190.57L432.245 190.965Z" fill="#42E8E0"/>
<path d="M437.111 188.202L424.618 180.966C422.514 179.65 420.673 176.624 420.673 174.125V171.099C420.673 168.731 419.095 165.968 416.991 164.784L414.361 163.337L414.624 162.811L417.254 164.258C419.358 165.442 421.199 168.599 421.199 171.099V174.125C421.199 176.493 422.777 179.256 424.881 180.44L437.374 187.676L437.111 188.202Z" fill="#42E8E0"/>
<path d="M441.976 185.439L429.484 178.203C427.38 176.888 425.539 173.862 425.539 171.362V168.336C425.539 165.968 423.961 163.205 421.857 162.021L419.227 160.574L419.49 160.048L422.12 161.495C424.224 162.679 426.065 165.837 426.065 168.336V171.362C426.065 173.73 427.643 176.493 429.747 177.677L442.239 184.913L441.976 185.439Z" fill="#42E8E0"/>
<path d="M446.842 182.677L434.349 175.441C432.245 174.257 430.404 171.099 430.404 168.599V165.574C430.404 163.205 428.826 160.443 426.722 159.259L424.092 157.811L424.355 157.285L426.985 158.732C429.089 159.916 430.93 163.074 430.93 165.574V168.599C430.93 170.968 432.508 173.73 434.612 174.914L447.105 182.15L446.842 182.677Z" fill="#42E8E0"/>
<path d="M451.576 179.914L439.084 172.678C436.98 171.362 435.139 168.336 435.139 165.837V162.811C435.139 160.443 433.56 157.68 431.456 156.496L428.826 155.049L429.089 154.522L431.719 155.97C433.823 157.285 435.665 160.311 435.665 162.811V165.837C435.665 168.205 437.243 170.968 439.347 172.152L451.839 179.388L451.576 179.914Z" fill="#42E8E0"/>
<path d="M456.442 177.019L443.949 169.783C441.845 168.599 440.004 165.442 440.004 162.942V159.916C440.004 157.548 438.426 154.785 436.322 153.601L433.692 152.154L433.955 151.628L436.585 153.075C438.689 154.259 440.53 157.417 440.53 159.916V162.942C440.53 165.31 442.108 168.073 444.212 169.257L456.705 176.493L456.442 177.019Z" fill="#42E8E0"/>
<path d="M461.307 174.256L448.815 167.02C446.711 165.705 444.87 162.679 444.87 160.179V157.153C444.87 154.785 443.292 152.022 441.188 150.838L438.558 149.391L438.821 148.865L441.451 150.312C443.555 151.628 445.396 154.654 445.396 157.153V160.179C445.396 162.547 446.974 165.31 449.078 166.494L461.57 173.73L461.307 174.256Z" fill="#42E8E0"/>
<path d="M466.173 171.494L453.68 164.258C451.576 163.074 449.735 159.916 449.735 157.417V154.391C449.735 152.023 448.157 149.26 446.053 148.076L443.423 146.629L443.686 146.102L446.316 147.549C448.42 148.865 450.261 151.891 450.261 154.391V157.417C450.261 159.785 451.839 162.547 453.943 163.732L466.436 170.967L466.173 171.494Z" fill="#42E8E0"/>
<path d="M471.038 168.731L458.546 161.495C456.442 160.311 454.601 157.153 454.601 154.654V151.628C454.601 149.26 453.023 146.497 450.919 145.313L448.289 143.866L448.552 143.339L451.182 144.787C453.286 145.971 455.127 149.128 455.127 151.628V154.654C455.127 157.022 456.705 159.785 458.809 160.969L471.301 168.204L471.038 168.731Z" fill="#42E8E0"/>
<path d="M475.772 165.968L463.28 158.732C461.176 157.416 459.335 154.391 459.335 151.891V148.865C459.335 146.497 457.757 143.734 455.653 142.55L453.023 141.103L453.286 140.577L455.916 142.024C458.02 143.208 459.861 146.365 459.861 148.865V151.891C459.861 154.259 461.439 157.022 463.543 158.206L476.035 165.442L475.772 165.968Z" fill="#42E8E0"/>
<path d="M480.638 163.074L468.145 155.838C466.041 154.654 464.2 151.496 464.2 148.997V145.971C464.2 143.603 462.622 140.84 460.518 139.656L457.888 138.209L458.151 137.682L460.781 139.13C462.885 140.314 464.726 143.471 464.726 145.971V148.997C464.726 151.365 466.304 154.128 468.408 155.312L480.901 162.547L480.638 163.074Z" fill="#42E8E0"/>
<path d="M485.503 160.311L473.011 153.075C470.907 151.76 469.066 148.734 469.066 146.234V143.208C469.066 140.84 467.488 138.077 465.384 136.893L462.754 135.446L463.017 134.92L465.647 136.367C467.751 137.551 469.592 140.708 469.592 143.208V146.234C469.592 148.602 471.17 151.365 473.274 152.549L485.766 159.785L485.503 160.311Z" fill="#42E8E0"/>
<path d="M289.961 245.563L289.698 245.037L357.553 205.568C359.525 204.384 361.235 201.621 361.235 199.253V196.227C361.235 193.728 362.944 190.702 365.18 189.386L367.81 187.939L368.073 188.465L365.443 189.912C363.47 191.096 361.761 193.859 361.761 196.227V199.253C361.761 201.753 360.051 204.779 357.816 206.094L289.961 245.563Z" fill="#42E8E0"/>
<path d="M285.227 242.8L284.964 242.274L352.819 202.805C354.791 201.621 356.501 198.858 356.501 196.49V193.464C356.501 190.965 358.21 187.939 360.446 186.623L363.076 185.176L363.339 185.702L360.709 187.149C358.736 188.333 357.027 191.096 357.027 193.464V196.49C357.027 198.99 355.317 202.016 353.082 203.331L285.227 242.8Z" fill="#42E8E0"/>
<path d="M280.361 240.037L280.098 239.511L347.953 200.043C349.925 198.859 351.635 196.096 351.635 193.728V190.702C351.635 188.202 353.344 185.176 355.58 183.861L358.21 182.413L358.473 182.94L355.843 184.387C353.87 185.571 352.161 188.334 352.161 190.702V193.728C352.161 196.227 350.451 199.253 348.216 200.569L280.361 240.037Z" fill="#42E8E0"/>
<path d="M275.496 237.274L275.233 236.748L343.087 197.28C345.06 196.096 346.769 193.333 346.769 190.965V187.939C346.769 185.439 348.479 182.413 350.714 181.098L353.345 179.65L353.608 180.177L350.977 181.624C349.005 182.808 347.295 185.571 347.295 187.939V190.965C347.295 193.464 345.586 196.49 343.35 197.806L275.496 237.274Z" fill="#42E8E0"/>
<path d="M270.63 234.38L270.367 233.854L338.222 194.385C340.195 193.201 341.904 190.439 341.904 188.07V185.176C341.904 182.676 343.614 179.65 345.849 178.335L348.479 176.888L348.742 177.414L346.112 178.861C344.14 180.045 342.43 182.808 342.43 185.176V188.202C342.43 190.702 340.721 193.728 338.485 195.043L270.63 234.38Z" fill="#42E8E0"/>
<path d="M265.764 231.617L265.501 231.091L333.356 191.623C335.329 190.439 337.038 187.676 337.038 185.308V182.282C337.038 179.782 338.748 176.756 340.983 175.441L343.613 173.993L343.876 174.52L341.246 175.967C339.274 177.151 337.564 179.914 337.564 182.282V185.308C337.564 187.807 335.855 190.833 333.619 192.149L265.764 231.617Z" fill="#42E8E0"/>
<path d="M261.031 228.854L260.768 228.328L328.622 188.86C330.595 187.676 332.304 184.913 332.304 182.545V179.519C332.304 177.019 334.014 173.993 336.249 172.678L338.879 171.23L339.142 171.757L336.512 173.204C334.54 174.388 332.83 177.151 332.83 179.519V182.545C332.83 185.044 331.121 188.07 328.885 189.386L261.031 228.854Z" fill="#42E8E0"/>
<path d="M256.165 226.092L255.902 225.565L323.757 186.097C325.729 184.913 327.439 182.15 327.439 179.782V176.756C327.439 174.256 329.148 171.231 331.384 169.915L334.014 168.468L334.277 168.994L331.647 170.441C329.674 171.625 327.965 174.388 327.965 176.756V179.782C327.965 182.282 326.255 185.308 324.02 186.623L256.165 226.092Z" fill="#42E8E0"/>
<path d="M251.3 223.329L251.037 222.803L318.891 183.334C320.864 182.15 322.573 179.387 322.573 177.019V173.993C322.573 171.494 324.283 168.468 326.518 167.152L329.149 165.705L329.412 166.231L326.782 167.678C324.809 168.863 323.099 171.625 323.099 173.993V177.019C323.099 179.519 321.39 182.545 319.154 183.861L251.3 223.329Z" fill="#42E8E0"/>
<path d="M246.434 220.434L246.171 219.908L314.026 180.44C315.998 179.256 317.708 176.493 317.708 174.125V171.099C317.708 168.599 319.417 165.573 321.653 164.258L324.283 162.811L324.546 163.337L321.916 164.784C319.943 165.968 318.234 168.731 318.234 171.099V174.125C318.234 176.624 316.524 179.65 314.289 180.966L246.434 220.434Z" fill="#42E8E0"/>
<path d="M241.568 217.672L241.305 217.145L309.16 177.677C311.133 176.493 312.842 173.73 312.842 171.362V168.336C312.842 165.837 314.552 162.811 316.787 161.495L319.417 160.048L319.68 160.574L317.05 162.021C315.078 163.205 313.368 165.968 313.368 168.336V171.362C313.368 173.862 311.659 176.888 309.423 178.203L241.568 217.672Z" fill="#42E8E0"/>
<path d="M236.834 214.909L236.571 214.383L304.426 174.914C306.399 173.73 308.108 170.968 308.108 168.599V165.574C308.108 163.074 309.818 160.048 312.053 158.732L314.683 157.285L314.946 157.811L312.316 159.259C310.344 160.443 308.634 163.205 308.634 165.574V168.599C308.634 171.099 306.925 174.125 304.689 175.441L236.834 214.909Z" fill="#42E8E0"/>
<path d="M231.969 212.146L231.706 211.62L299.561 172.152C301.533 170.968 303.243 168.205 303.243 165.837V162.811C303.243 160.311 304.952 157.285 307.188 155.97L309.818 154.522L310.081 155.049L307.451 156.496C305.478 157.68 303.769 160.443 303.769 162.811V165.837C303.769 168.336 302.059 171.362 299.824 172.678L231.969 212.146Z" fill="#42E8E0"/>
<path d="M227.103 209.252L226.84 208.726L294.695 169.257C296.668 168.073 298.377 165.31 298.377 162.942V159.916C298.377 157.417 300.087 154.391 302.322 153.075L304.952 151.628L305.215 152.154L302.585 153.601C300.613 154.785 298.903 157.548 298.903 159.916V162.942C298.903 165.442 297.194 168.468 294.958 169.783L227.103 209.252Z" fill="#42E8E0"/>
<path d="M222.238 206.489L221.975 205.963L289.829 166.494C291.802 165.31 293.511 162.547 293.511 160.179V157.153C293.511 154.654 295.221 151.628 297.456 150.312L300.086 148.865L300.349 149.391L297.719 150.838C295.747 152.022 294.037 154.785 294.037 157.153V160.179C294.037 162.679 292.328 165.705 290.092 167.02L222.238 206.489Z" fill="#42E8E0"/>
<path d="M217.372 203.726L217.109 203.2L284.964 163.732C286.936 162.547 288.646 159.785 288.646 157.417V154.391C288.646 151.891 290.355 148.865 292.591 147.549L295.221 146.102L295.484 146.629L292.854 148.076C290.881 149.26 289.172 152.023 289.172 154.391V157.417C289.172 159.916 287.462 162.942 285.227 164.258L217.372 203.726Z" fill="#42E8E0"/>
<path d="M212.638 200.963L212.375 200.437L280.23 160.969C282.203 159.785 283.912 157.022 283.912 154.654V151.628C283.912 149.128 285.622 146.102 287.857 144.787L290.487 143.339L290.75 143.866L288.12 145.313C286.148 146.497 284.438 149.26 284.438 151.628V154.654C284.438 157.153 282.729 160.179 280.493 161.495L212.638 200.963Z" fill="#42E8E0"/>
<path d="M207.773 198.201L207.51 197.674L275.364 158.206C277.337 157.022 279.046 154.259 279.046 151.891V148.865C279.046 146.365 280.756 143.339 282.991 142.024L285.621 140.577L285.884 141.103L283.254 142.55C281.282 143.734 279.572 146.497 279.572 148.865V151.891C279.572 154.391 277.863 157.416 275.627 158.732L207.773 198.201Z" fill="#42E8E0"/>
<path d="M202.907 195.306L202.644 194.78L270.499 155.312C272.471 154.128 274.181 151.365 274.181 148.997V145.971C274.181 143.471 275.89 140.445 278.126 139.13L280.756 137.682L281.019 138.209L278.389 139.656C276.416 140.84 274.707 143.603 274.707 145.971V148.997C274.707 151.496 272.997 154.522 270.762 155.838L202.907 195.306Z" fill="#42E8E0"/>
<path d="M198.041 192.544L197.778 192.017L265.633 152.549C267.606 151.365 269.315 148.602 269.315 146.234V143.208C269.315 140.708 271.025 137.682 273.26 136.367L275.89 134.92L276.153 135.446L273.523 136.893C271.551 138.077 269.841 140.84 269.841 143.208V146.234C269.841 148.734 268.132 151.76 265.896 153.075L198.041 192.544Z" fill="#42E8E0"/>
<g opacity="0.1">
<path opacity="0.1" d="M422.777 305.029L408.049 296.609V313.58L422.777 322L437.374 313.58V296.609L422.777 305.029Z" fill="#42E8E0"/>
<path opacity="0.1" d="M422.777 322L408.049 313.58V296.609L422.777 305.029V322Z" fill="#42E8E0"/>
<path opacity="0.1" d="M437.374 313.58L422.777 322V305.029L437.374 296.609V313.58Z" fill="#2FD3C7"/>
<path opacity="0.1" d="M422.777 305.029L408.049 296.609L422.777 288.189L437.374 296.609L422.777 305.029Z" fill="#42E8E0"/>
<path opacity="0.1" d="M422.777 305.029L408.049 296.609V297.398L422.777 305.818L437.374 297.398V296.609L422.777 305.029Z" fill="white"/>
</g>
<path opacity="0.2" d="M422.777 294.767L408.049 286.347L422.777 277.927L437.374 286.347L422.777 294.767Z" fill="#03002D"/>
<path d="M422.777 265.034L408.049 256.614V273.585L422.777 282.005L437.374 273.585V256.614L422.777 265.034Z" fill="#42E8E0"/>
<path d="M422.777 282.005L408.049 273.585V256.614L422.777 265.034V282.005Z" fill="#42E8E0"/>
<path d="M437.374 273.585L422.777 282.005V265.034L437.374 256.614V273.585Z" fill="#2FD3C7"/>
<path d="M422.777 265.034L408.049 256.614L422.777 248.194L437.374 256.614L422.777 265.034Z" fill="#42E8E0"/>
<path d="M422.777 265.034L408.049 256.614V257.272L422.777 265.823L437.374 257.272V256.614L422.777 265.034Z" fill="white"/>
<g opacity="0.1">
<path opacity="0.1" d="M207.641 303.844L192.913 295.293V312.264L207.641 320.684L222.237 312.264V295.293L207.641 303.844Z" fill="#42E8E0"/>
<path opacity="0.1" d="M207.641 320.684L192.913 312.264V295.293L207.641 303.844V320.684Z" fill="#42E8E0"/>
<path opacity="0.1" d="M222.238 312.264L207.641 320.684V303.844L222.238 295.293V312.264Z" fill="#2FD3C7"/>
<path opacity="0.1" d="M207.641 303.844L192.913 295.293L207.641 286.873L222.237 295.293L207.641 303.844Z" fill="#42E8E0"/>
<path opacity="0.1" d="M207.641 303.844L192.913 295.293V296.082L207.641 304.502L222.237 296.082V295.293L207.641 303.844Z" fill="white"/>
</g>
<path opacity="0.2" d="M207.641 293.583L192.913 285.031L207.641 276.611L222.237 285.031L207.641 293.583Z" fill="#03002D"/>
<path d="M207.641 263.719L192.913 255.299V272.27L207.641 280.69L222.237 272.27V255.299L207.641 263.719Z" fill="#42E8E0"/>
<path d="M207.641 280.69L192.913 272.27V255.299L207.641 263.719V280.69Z" fill="#42E8E0"/>
<path d="M222.238 272.27L207.641 280.69V263.719L222.238 255.299V272.27Z" fill="#2FD3C7"/>
<path d="M207.641 263.718L192.913 255.298L207.641 246.878L222.237 255.298L207.641 263.718Z" fill="#42E8E0"/>
<path d="M207.641 263.718L192.913 255.299V256.088L207.641 264.508L222.237 256.088V255.299L207.641 263.718Z" fill="white"/>
<g opacity="0.1">
<path opacity="0.1" d="M180.289 142.813L165.692 134.262V151.233L180.289 159.653L195.017 151.233V134.262L180.289 142.813Z" fill="#42E8E0"/>
<path opacity="0.1" d="M180.289 159.653L165.692 151.233V134.262L180.289 142.813V159.653Z" fill="#42E8E0"/>
<path opacity="0.1" d="M195.017 151.233L180.289 159.653V142.813L195.017 134.262V151.233Z" fill="#2FD3C7"/>
<path opacity="0.1" d="M180.289 142.813L165.692 134.262L180.289 125.842L195.017 134.262L180.289 142.813Z" fill="#42E8E0"/>
<path opacity="0.1" d="M180.289 142.813L165.692 134.262V135.051L180.289 143.471L195.017 135.051V134.262L180.289 142.813Z" fill="white"/>
</g>
<path opacity="0.2" d="M180.289 132.552L165.692 124L180.289 115.58L195.017 124L180.289 132.552Z" fill="#03002D"/>
<path d="M180.289 102.819L165.692 94.2676V111.239L180.289 119.659L195.017 111.239V94.2676L180.289 102.819Z" fill="#42E8E0"/>
<path d="M180.289 119.659L165.692 111.239V94.2676L180.289 102.819V119.659Z" fill="#42E8E0"/>
<path d="M195.017 111.239L180.289 119.659V102.819L195.017 94.2676V111.239Z" fill="#2FD3C7"/>
<path d="M180.289 102.819L165.693 94.2673L180.289 85.8474L195.017 94.2673L180.289 102.819Z" fill="#42E8E0"/>
<path d="M180.289 102.819L165.692 94.2676V95.0569L180.289 103.477L195.017 95.0569V94.2676L180.289 102.819Z" fill="white"/>
<path opacity="0.4" d="M387.798 180.966L286.936 122.684C284.306 121.237 284.701 118.606 287.725 116.764L346.638 82.8212C349.663 81.1109 354.265 80.8478 356.764 82.4265L457.625 140.708C460.255 142.155 459.861 144.787 456.836 146.628L397.924 180.571C394.899 182.282 390.428 182.545 387.798 180.966Z" fill="#24126A"/>
<path d="M484.32 95.3195L482.61 95.0564C482.479 94.9248 482.216 94.7933 482.084 94.6617L352.161 19.6717C348.742 17.6983 342.956 17.9614 339.011 20.198L263.266 64.0079C262.214 64.5342 261.425 65.192 260.899 65.9813L259.979 65.7182V68.3494C259.979 69.5335 260.768 70.7175 262.214 71.6385L392.137 146.628C395.557 148.602 401.343 148.339 405.288 146.102L481.032 102.292C483.136 100.977 484.32 99.3979 484.188 97.9507V95.3195H484.32Z" fill="#9FFFF8"/>
<path d="M392.269 143.997L262.345 69.0074C258.926 67.034 259.452 63.745 263.266 61.5084L339.011 17.6985C342.824 15.4619 348.742 15.1988 352.161 17.1722L482.084 92.1622C485.503 94.1356 484.977 97.4247 481.164 99.6612L405.419 143.471C401.474 145.708 395.556 145.971 392.269 143.997Z" fill="#42E8E0"/>
<path d="M392.269 143.997L262.345 69.0074C258.926 67.034 259.452 63.745 263.266 61.5084L339.011 17.6985C342.824 15.4619 348.742 15.1988 352.161 17.1722L482.084 92.1622C485.503 94.1356 484.977 97.4247 481.164 99.6612L405.419 143.471C401.474 145.708 395.556 145.971 392.269 143.997Z" fill="url(#paint11_radial)"/>
<path opacity="0.7" d="M413.178 138.998L271.156 56.9037L286.279 48.2207L428.3 130.183L413.178 138.998Z" fill="#453C9E"/>
<path opacity="0.7" d="M410.942 102.819L368.204 78.0853L378.593 72.0334L421.462 96.767L410.942 102.819Z" fill="white"/>
<path d="M242.752 65.3237C256.954 61.7716 271.813 47.4314 275.758 33.3543C277.731 26.25 276.679 20.5929 273.391 17.1723L269.841 13.6201L269.972 14.9357C266.685 13.357 262.345 13.0939 257.217 14.4095C243.015 17.9617 228.155 32.3018 224.21 46.3789C222.763 51.2467 222.895 55.4566 224.21 58.7457L223.026 58.8772L226.577 62.561L226.708 62.6925C230.259 65.85 235.782 67.034 242.752 65.3237Z" fill="#9FFFF8"/>
<path d="M259.607 49.6369C272.502 37.1602 277.102 20.9915 269.882 13.5229C262.661 6.05438 246.356 10.1143 233.461 22.5909C220.567 35.0676 215.967 51.2363 223.187 58.7049C230.407 66.1734 246.713 62.1135 259.607 49.6369Z" fill="#42E8E0"/>
<path d="M234.598 59.7984C230.916 59.7984 227.76 58.6143 225.525 56.3778C222.369 53.0887 221.58 47.9578 223.289 41.7745C226.84 29.2761 240.122 16.3831 252.746 13.2257C258.926 11.6469 264.055 12.5678 267.342 15.8569C270.498 19.1459 271.287 24.2768 269.578 30.4602C266.027 43.0901 252.877 55.8515 240.122 59.009C238.281 59.5352 236.308 59.7984 234.598 59.7984ZM258.4 13.2257C256.691 13.2257 254.981 13.4888 253.009 13.8835C240.516 17.0409 227.497 29.5393 223.947 41.906C222.237 47.8263 223.026 52.8256 225.919 55.8515C228.944 59.009 233.809 59.7984 239.859 58.3512C252.351 55.1937 265.37 42.6954 268.92 30.3286C270.63 24.4084 269.841 19.409 266.948 16.3831C264.975 14.2781 261.951 13.2257 258.4 13.2257Z" fill="#18B2A3"/>
<g opacity="0.1">
<path opacity="0.1" d="M306.135 208.989C306.135 194.254 295.878 176.493 283.123 169.126C276.811 165.442 271.024 165.047 266.816 167.547L262.477 170.047L263.792 170.178C261.556 172.941 260.11 177.151 260.11 182.414C260.11 197.148 270.367 214.909 283.123 222.277C287.462 224.776 291.539 225.697 295.089 225.303L294.958 226.487L299.429 223.855L299.56 223.724C303.637 221.356 306.135 216.225 306.135 208.989Z" fill="#9FFFF8"/>
<path opacity="0.1" d="M301.664 211.62C301.664 226.355 291.407 232.275 278.651 224.908C265.896 217.54 255.639 199.78 255.639 185.045C255.639 170.31 265.896 164.39 278.651 171.757C291.407 179.124 301.664 196.885 301.664 211.62Z" fill="#42E8E0"/>
</g>
<path opacity="0.4" d="M280.229 232.933C264.318 232.933 248.538 229.381 236.439 222.408C224.736 215.567 218.292 206.62 218.292 197.016C218.292 187.413 224.736 178.335 236.439 171.625C260.636 157.68 299.955 157.68 324.019 171.625C335.723 178.466 342.167 187.413 342.167 197.016C342.167 206.62 335.723 215.698 324.019 222.408C311.921 229.512 296.01 232.933 280.229 232.933ZM280.229 161.626C264.449 161.626 248.669 165.047 236.702 172.02C225.13 178.729 218.687 187.544 218.687 197.016C218.687 206.489 225.13 215.304 236.702 222.013C260.767 235.959 299.823 235.959 323.888 222.013C335.46 215.304 341.904 206.489 341.904 197.016C341.904 187.544 335.46 178.729 323.888 172.02C311.79 165.047 296.01 161.626 280.229 161.626Z" fill="#42E8E0"/>
<path opacity="0.2" d="M280.23 242.537C260.11 242.537 239.99 238.064 224.604 229.249C209.745 220.698 201.46 209.252 201.46 197.017C201.46 184.782 209.613 173.336 224.604 164.784C255.244 147.023 305.083 147.023 335.723 164.784C350.583 173.336 358.867 184.782 358.867 197.017C358.867 209.252 350.714 220.698 335.723 229.249C320.469 238.195 300.349 242.537 280.23 242.537ZM280.23 152.023C260.241 152.023 240.122 156.364 224.867 165.31C210.139 173.862 201.986 185.176 201.986 197.148C201.986 209.12 210.139 220.435 224.867 228.986C255.376 246.615 305.083 246.615 335.592 228.986L335.723 229.249L335.592 228.986C350.32 220.435 358.473 209.12 358.473 197.148C358.473 185.176 350.32 173.862 335.592 165.31C320.338 156.364 300.218 152.023 280.23 152.023Z" fill="#42E8E0"/>
<path d="M280.23 225.434C267.737 225.434 255.244 222.671 245.645 217.145C236.44 211.751 231.311 204.647 231.311 197.017C231.311 189.386 236.44 182.282 245.645 176.888C264.712 165.837 295.615 165.837 314.683 176.888C323.888 182.282 329.017 189.386 329.017 197.017C329.017 204.647 323.888 211.751 314.683 217.145C305.215 222.671 292.722 225.434 280.23 225.434ZM280.23 169.257C267.868 169.257 255.376 172.02 245.908 177.414C236.834 182.676 231.706 189.649 231.706 197.148C231.706 204.647 236.703 211.62 245.908 216.882C264.844 227.802 295.615 227.802 314.551 216.882C323.625 211.62 328.754 204.647 328.754 197.148C328.754 189.649 323.757 182.676 314.551 177.414C305.083 171.888 292.591 169.257 280.23 169.257Z" fill="#42E8E0"/>
<path d="M306.135 208.989C306.135 194.254 295.878 176.493 283.123 169.126C276.811 165.442 271.024 165.047 266.816 167.547L262.477 170.047L263.792 170.178C261.556 172.941 260.11 177.151 260.11 182.414C260.11 197.148 270.367 214.909 283.123 222.277C287.462 224.776 291.539 225.697 295.089 225.303L294.958 226.487L299.429 223.855L299.56 223.724C303.637 221.356 306.135 216.225 306.135 208.989Z" fill="#9FFFF8"/>
<path d="M301.664 211.62C301.664 226.355 291.407 232.275 278.651 224.908C265.896 217.54 255.639 199.78 255.639 185.045C255.639 170.31 265.896 164.39 278.651 171.757C291.407 179.124 301.664 196.885 301.664 211.62Z" fill="#42E8E0"/>
<path d="M287.988 225.434C285.095 225.434 281.939 224.513 278.52 222.54C266.948 215.83 257.611 199.648 257.611 186.36C257.611 179.914 259.847 175.046 263.792 172.678C267.868 170.31 273.128 170.836 278.783 174.125C290.355 180.835 299.692 197.017 299.692 210.304C299.692 216.882 297.456 221.619 293.511 223.987C291.802 224.908 289.961 225.434 287.988 225.434ZM269.446 171.888C267.474 171.888 265.764 172.283 264.186 173.204C260.373 175.441 258.269 180.045 258.269 186.36C258.269 199.385 267.474 215.435 278.783 222.013C284.175 225.171 289.303 225.697 293.117 223.461C296.93 221.224 299.034 216.619 299.034 210.304C299.034 197.28 289.829 181.229 278.52 174.651C275.364 172.809 272.208 171.888 269.446 171.888Z" fill="#18B2A3"/>
<g opacity="0.1">
<path opacity="0.1" d="M497.602 257.535C497.602 242.8 507.859 225.039 520.614 217.672C526.926 213.988 532.712 213.594 536.92 216.093L541.26 218.593L539.945 218.725C542.181 221.487 543.627 225.697 543.627 230.96C543.627 245.695 533.37 263.455 520.614 270.823C516.275 273.322 512.198 274.243 508.648 273.849L508.779 275.033L504.308 272.402L504.177 272.27C500.1 269.77 497.602 264.771 497.602 257.535Z" fill="#9FFFF8"/>
<path opacity="0.1" d="M541.175 256.165C550.144 240.623 550.124 223.812 541.13 218.617C532.136 213.422 517.574 221.81 508.605 237.352C499.636 252.894 499.655 269.704 508.649 274.9C517.643 280.095 532.205 271.707 541.175 256.165Z" fill="#42E8E0"/>
</g>
<path opacity="0.4" d="M523.507 281.479C507.596 281.479 491.815 277.927 479.717 270.954C468.014 264.113 461.57 255.167 461.57 245.563C461.57 235.959 468.014 226.881 479.717 220.172C503.914 206.226 543.232 206.226 567.297 220.172C579.001 227.013 585.444 235.959 585.444 245.563C585.444 255.167 579.001 264.245 567.297 270.954C555.199 277.927 539.287 281.479 523.507 281.479ZM523.507 210.041C507.727 210.041 491.947 213.462 479.98 220.435C468.408 227.144 461.965 236.09 461.965 245.431C461.965 254.904 468.408 263.718 479.98 270.428C504.045 284.373 543.101 284.373 567.166 270.428C578.738 263.718 585.181 254.772 585.181 245.431C585.181 235.959 578.738 227.144 567.166 220.435C555.068 213.593 539.287 210.041 523.507 210.041Z" fill="#42E8E0"/>
<path opacity="0.2" d="M523.507 291.083C503.387 291.083 483.268 286.61 467.882 277.795C453.022 269.244 444.738 257.798 444.738 245.563C444.738 233.328 452.891 221.882 467.882 213.33C498.522 195.57 548.361 195.57 579.001 213.33C593.86 221.882 602.145 233.328 602.145 245.563C602.145 257.798 593.992 269.244 579.001 277.795C563.747 286.61 543.627 291.083 523.507 291.083ZM523.507 200.437C503.519 200.437 483.399 204.779 468.145 213.725C453.417 222.277 445.264 233.591 445.264 245.563C445.264 257.535 453.417 268.849 468.145 277.401C498.653 295.03 548.361 295.03 578.869 277.401C593.597 268.849 601.751 257.535 601.751 245.563C601.751 233.591 593.597 222.277 578.869 213.725C563.615 204.91 543.495 200.437 523.507 200.437Z" fill="#42E8E0"/>
<path d="M523.507 273.848C511.015 273.848 498.522 271.086 488.922 265.56C479.717 260.166 474.589 253.062 474.589 245.431C474.589 237.801 479.717 230.696 488.922 225.302C507.99 214.251 538.893 214.251 557.961 225.302C567.166 230.696 572.294 237.801 572.294 245.431C572.294 253.062 567.166 260.166 557.961 265.56C548.492 271.086 536 273.848 523.507 273.848ZM523.507 217.672C511.146 217.672 498.653 220.435 489.185 225.829C480.112 231.091 474.983 238.064 474.983 245.563C474.983 253.062 479.98 260.034 489.185 265.297C508.122 276.216 538.893 276.216 557.829 265.297C566.903 260.034 572.031 253.062 572.031 245.563C572.031 238.064 567.034 231.091 557.829 225.829C548.229 220.435 535.868 217.672 523.507 217.672Z" fill="#42E8E0"/>
<path d="M497.602 257.535C497.602 242.8 507.859 225.039 520.614 217.672C526.926 213.988 532.712 213.594 536.92 216.093L541.26 218.593L539.945 218.725C542.181 221.487 543.627 225.697 543.627 230.96C543.627 245.695 533.37 263.455 520.614 270.823C516.275 273.322 512.198 274.243 508.648 273.849L508.779 275.033L504.308 272.402L504.177 272.27C500.1 269.77 497.602 264.771 497.602 257.535Z" fill="#9FFFF8"/>
<path d="M541.175 256.165C550.144 240.623 550.124 223.812 541.13 218.617C532.136 213.422 517.574 221.81 508.605 237.352C499.636 252.894 499.655 269.704 508.649 274.9C517.643 280.095 532.205 271.707 541.175 256.165Z" fill="#42E8E0"/>
<path d="M515.749 273.849C513.776 273.849 511.804 273.323 510.226 272.402C506.149 270.033 504.045 265.166 504.045 258.719C504.045 245.431 513.382 229.249 524.954 222.54C530.608 219.251 535.868 218.725 539.945 221.093C544.022 223.461 546.126 228.329 546.126 234.775C546.126 248.063 536.789 264.245 525.217 270.954C521.798 272.928 518.642 273.849 515.749 273.849ZM534.159 220.303C531.397 220.303 528.241 221.224 525.085 223.066C513.776 229.644 504.571 245.563 504.571 258.719C504.571 265.034 506.675 269.639 510.489 271.875C514.302 274.112 519.431 273.586 524.822 270.428C536.131 263.85 545.337 247.931 545.337 234.775C545.337 228.46 543.233 223.855 539.419 221.619C537.841 220.83 536.131 220.303 534.159 220.303Z" fill="#18B2A3"/>
<defs>
<radialGradient id="paint0_radial" cx="0" cy="0" r="1" gradientUnits="userSpaceOnUse" gradientTransform="translate(8.12889 74.9424) scale(8.1594 8.16312)">
<stop stop-color="#7BFFF5"/>
<stop offset="0.0615483" stop-color="#6BDBDC"/>
<stop offset="0.1565" stop-color="#56A9BB"/>
<stop offset="0.2563" stop-color="#437D9D"/>
<stop offset="0.3592" stop-color="#335884"/>
<stop offset="0.4661" stop-color="#263A70"/>
<stop offset="0.5782" stop-color="#1C2260"/>
<stop offset="0.6977" stop-color="#151255"/>
<stop offset="0.83" stop-color="#10084E"/>
<stop offset="1" stop-color="#0F054C"/>
</radialGradient>
<linearGradient id="paint1_linear" x1="174.466" y1="161.62" x2="570.355" y2="161.62" gradientUnits="userSpaceOnUse">
<stop stop-color="#BCBEFF"/>
<stop offset="0.151" stop-color="#A3A7F5"/>
<stop offset="0.3866" stop-color="#8289E8"/>
<stop offset="0.6124" stop-color="#6A73DF"/>
<stop offset="0.8221" stop-color="#5C66D9"/>
<stop offset="1" stop-color="#5761D7"/>
</linearGradient>
<radialGradient id="paint2_radial" cx="0" cy="0" r="1" gradientUnits="userSpaceOnUse" gradientTransform="translate(386.067 70.883) scale(371.95 372.12)">
<stop stop-color="#42E8E0"/>
<stop offset="0.1055" stop-color="#37B6BF"/>
<stop offset="0.2197" stop-color="#2C87A1"/>
<stop offset="0.338" stop-color="#235F87"/>
<stop offset="0.4587" stop-color="#1C3F72"/>
<stop offset="0.5824" stop-color="#162561"/>
<stop offset="0.7105" stop-color="#121355"/>
<stop offset="0.8458" stop-color="#10084E"/>
<stop offset="1" stop-color="#0F054C"/>
</radialGradient>
<linearGradient id="paint3_linear" x1="427.552" y1="217.653" x2="316.978" y2="70.9844" gradientUnits="userSpaceOnUse">
<stop stop-color="#42E8E0"/>
<stop offset="0.1055" stop-color="#37B6BF"/>
<stop offset="0.2197" stop-color="#2C87A1"/>
<stop offset="0.338" stop-color="#235F87"/>
<stop offset="0.4587" stop-color="#1C3F72"/>
<stop offset="0.5824" stop-color="#162561"/>
<stop offset="0.7105" stop-color="#121355"/>
<stop offset="0.8458" stop-color="#10084E"/>
<stop offset="1" stop-color="#0F054C"/>
</linearGradient>
<linearGradient id="paint4_linear" x1="226.798" y1="167.127" x2="471.835" y2="167.127" gradientUnits="userSpaceOnUse">
<stop stop-color="#706EC4"/>
<stop offset="0.0222208" stop-color="#6D6BC2"/>
<stop offset="0.2509" stop-color="#5651AC"/>
<stop offset="0.4865" stop-color="#463F9D"/>
<stop offset="0.7314" stop-color="#3C3494"/>
<stop offset="1" stop-color="#393091"/>
</linearGradient>
<linearGradient id="paint5_linear" x1="296.144" y1="134.001" x2="443.221" y2="134.001" gradientUnits="userSpaceOnUse">
<stop stop-color="#42E8E0"/>
<stop offset="0.1507" stop-color="#43E3E0"/>
<stop offset="0.3285" stop-color="#45D5DF"/>
<stop offset="0.5199" stop-color="#49BDDD"/>
<stop offset="0.7209" stop-color="#4E9CDB"/>
<stop offset="0.9274" stop-color="#5472D8"/>
<stop offset="1" stop-color="#5761D7"/>
</linearGradient>
<linearGradient id="paint6_linear" x1="369.682" y1="107.407" x2="443.221" y2="107.407" gradientUnits="userSpaceOnUse">
<stop stop-color="#42E8E0"/>
<stop offset="0.1507" stop-color="#43E3E0"/>
<stop offset="0.3285" stop-color="#45D5DF"/>
<stop offset="0.5199" stop-color="#49BDDD"/>
<stop offset="0.7209" stop-color="#4E9CDB"/>
<stop offset="0.9274" stop-color="#5472D8"/>
<stop offset="1" stop-color="#5761D7"/>
</linearGradient>
<linearGradient id="paint7_linear" x1="296.144" y1="107.406" x2="369.684" y2="107.406" gradientUnits="userSpaceOnUse">
<stop stop-color="#42E8E0"/>
<stop offset="0.1507" stop-color="#43E3E0"/>
<stop offset="0.3285" stop-color="#45D5DF"/>
<stop offset="0.5199" stop-color="#49BDDD"/>
<stop offset="0.7209" stop-color="#4E9CDB"/>
<stop offset="0.9274" stop-color="#5472D8"/>
<stop offset="1" stop-color="#5761D7"/>
</linearGradient>
<linearGradient id="paint8_linear" x1="296.144" y1="123.289" x2="443.222" y2="123.289" gradientUnits="userSpaceOnUse">
<stop stop-color="#42E8E0"/>
<stop offset="0.1507" stop-color="#43E3E0"/>
<stop offset="0.3285" stop-color="#45D5DF"/>
<stop offset="0.5199" stop-color="#49BDDD"/>
<stop offset="0.7209" stop-color="#4E9CDB"/>
<stop offset="0.9274" stop-color="#5472D8"/>
<stop offset="1" stop-color="#5761D7"/>
</linearGradient>
<linearGradient id="paint9_linear" x1="369.684" y1="149.884" x2="443.221" y2="149.884" gradientUnits="userSpaceOnUse">
<stop stop-color="#42E8E0"/>
<stop offset="0.1507" stop-color="#43E3E0"/>
<stop offset="0.3285" stop-color="#45D5DF"/>
<stop offset="0.5199" stop-color="#49BDDD"/>
<stop offset="0.7209" stop-color="#4E9CDB"/>
<stop offset="0.9274" stop-color="#5472D8"/>
<stop offset="1" stop-color="#5761D7"/>
</linearGradient>
<linearGradient id="paint10_linear" x1="296.144" y1="149.883" x2="369.684" y2="149.883" gradientUnits="userSpaceOnUse">
<stop stop-color="#42E8E0"/>
<stop offset="0.1507" stop-color="#43E3E0"/>
<stop offset="0.3285" stop-color="#45D5DF"/>
<stop offset="0.5199" stop-color="#49BDDD"/>
<stop offset="0.7209" stop-color="#4E9CDB"/>
<stop offset="0.9274" stop-color="#5472D8"/>
<stop offset="1" stop-color="#5761D7"/>
</linearGradient>
<radialGradient id="paint11_radial" cx="0" cy="0" r="1" gradientUnits="userSpaceOnUse" gradientTransform="translate(329.697 15.6686) scale(244.995 245.107)">
<stop stop-color="#42E8E0"/>
<stop offset="0.0167089" stop-color="#43E0DE"/>
<stop offset="0.1117" stop-color="#47BAD1"/>
<stop offset="0.2141" stop-color="#4B9AC7"/>
<stop offset="0.3237" stop-color="#4E7FBE"/>
<stop offset="0.4431" stop-color="#506BB7"/>
<stop offset="0.5775" stop-color="#525CB3"/>
<stop offset="0.7389" stop-color="#5354B0"/>
<stop offset="1" stop-color="#5351AF"/>
</radialGradient>
</defs>
</svg>
