<svg width="32" height="36" viewBox="0 0 32 36" fill="none" xmlns="http://www.w3.org/2000/svg">
<path d="M25.2179 35.9764H6.24751C5.16006 35.9753 4.0997 35.6371 3.21251 35.0082C2.32533 34.3794 1.65498 33.4909 1.29382 32.4651C0.932659 31.4394 0.89846 30.3269 1.19593 29.2809C1.49341 28.235 2.10792 27.307 2.9548 26.6248L26.4674 7.7251C26.9903 7.32138 27.3727 6.76319 27.5603 6.1298C27.748 5.4964 27.7313 4.81999 27.5126 4.19663C27.2973 3.57541 26.8927 3.03734 26.3556 2.65813C25.8185 2.27892 25.176 2.07767 24.5185 2.08269H6.01176C4.96965 2.08269 3.97023 2.49666 3.23336 3.23354C2.49648 3.97042 2.0825 4.96984 2.0825 6.01194C2.0825 7.05405 2.49648 8.05347 3.23336 8.79034C3.97023 9.52722 4.96965 9.94119 6.01176 9.94119H6.60114C6.86169 9.96385 7.10427 10.0834 7.281 10.2761C7.45774 10.4689 7.55578 10.7209 7.55578 10.9824C7.55578 11.244 7.45774 11.496 7.281 11.6888C7.10427 11.8815 6.86169 12.001 6.60114 12.0237H6.01176C4.41734 12.0237 2.88823 11.3903 1.7608 10.2629C0.63338 9.13547 0 7.60636 0 6.01194C0 4.41753 0.63338 2.88841 1.7608 1.76099C2.88823 0.633566 4.41734 0.00018599 6.01176 0.00018599H24.4792C25.5699 -0.00904148 26.6358 0.325292 27.5259 0.955788C28.4159 1.58628 29.0849 2.48095 29.438 3.51294C29.8054 4.5382 29.8422 5.65283 29.5434 6.70014C29.2446 7.74745 28.6251 8.67479 27.772 9.35181L4.25931 28.2908C3.7306 28.6937 3.34325 29.2539 3.15291 29.8908C2.96257 30.5278 2.97904 31.2086 3.19997 31.8356C3.42089 32.4625 3.83488 33.0033 4.38246 33.3802C4.93003 33.7571 5.58299 33.9507 6.24751 33.9332H25.2179C26.26 33.9332 27.2595 33.5192 27.9963 32.7824C28.7332 32.0455 29.1472 31.0461 29.1472 30.004C29.1472 28.9619 28.7332 27.9624 27.9963 27.2256C27.2595 26.4887 26.26 26.0747 25.2179 26.0747H24.1099C23.8494 26.0521 23.6068 25.9325 23.43 25.7398C23.2533 25.547 23.1553 25.295 23.1553 25.0335C23.1553 24.7719 23.2533 24.5199 23.43 24.3271C23.6068 24.1344 23.8494 24.0149 24.1099 23.9922H25.2179C26.8103 23.9922 28.3374 24.6248 29.4633 25.7507C30.5893 26.8767 31.2218 28.4038 31.2218 29.9961C31.2218 31.5884 30.5893 33.1155 29.4633 34.2415C28.3374 35.3674 26.8103 36 25.2179 36" fill="#268FF1"/>
<path d="M2.9155 21.6347C2.76354 21.6318 2.61413 21.5951 2.47818 21.5271C2.34223 21.4591 2.22316 21.3617 2.12965 21.2418C2.04416 21.1352 1.98059 21.0127 1.9426 20.8813C1.90461 20.75 1.89295 20.6125 1.90828 20.4767C1.92362 20.3408 1.96565 20.2094 2.03196 20.0898C2.09827 19.9703 2.18756 19.8651 2.29468 19.7801L18.2867 7.07294H9.43806C9.29947 7.07193 9.16245 7.04337 9.03499 6.98891C8.90754 6.93445 8.79219 6.85519 8.69565 6.75573C8.59912 6.65627 8.52333 6.5386 8.4727 6.40958C8.42207 6.28055 8.39761 6.14275 8.40074 6.00418C8.41061 5.73295 8.5233 5.47563 8.71595 5.28444C8.90859 5.09325 9.16676 4.98252 9.43806 4.97472H18.3182C18.7254 4.97059 19.125 5.08505 19.4682 5.30412C19.8115 5.5232 20.0836 5.83744 20.2514 6.2085C20.4396 6.6227 20.483 7.08815 20.3747 7.53001C20.2663 7.97187 20.0126 8.36446 19.6541 8.64464L3.56776 21.4069C3.38128 21.5524 3.15206 21.6325 2.9155 21.6347Z" fill="#268FF1"/>
<path d="M21.2258 30.9704H12.2671C11.8421 30.9654 11.4292 30.8289 11.0848 30.5798C10.7405 30.3306 10.4817 29.981 10.3439 29.579C10.2062 29.1769 10.1962 28.7421 10.3154 28.3341C10.4347 27.9262 10.6772 27.5651 11.0098 27.3005L27.0725 14.5383C27.1794 14.4537 27.3018 14.3909 27.4329 14.3536C27.5639 14.3163 27.7011 14.3052 27.8364 14.3209C27.9718 14.3366 28.1027 14.3788 28.2218 14.445C28.3408 14.5113 28.4457 14.6004 28.5303 14.7073C28.6149 14.8141 28.6777 14.9365 28.715 15.0676C28.7523 15.1986 28.7634 15.3358 28.7477 15.4711C28.732 15.6065 28.6898 15.7374 28.6235 15.8565C28.5573 15.9756 28.4682 16.0804 28.3613 16.165L12.3378 28.8879H21.2258C21.3702 28.8754 21.5155 28.893 21.6527 28.9396C21.7899 28.9862 21.9159 29.0609 22.0227 29.1588C22.1295 29.2567 22.2147 29.3757 22.2731 29.5084C22.3314 29.641 22.3615 29.7843 22.3615 29.9292C22.3615 30.0741 22.3314 30.2174 22.2731 30.35C22.2147 30.4826 22.1295 30.6017 22.0227 30.6996C21.9159 30.7975 21.7899 30.8721 21.6527 30.9188C21.5155 30.9654 21.3702 30.983 21.2258 30.9704Z" fill="#268FF1"/>
</svg>
