<svg width="446" height="434" viewBox="0 0 446 434" fill="none" xmlns="http://www.w3.org/2000/svg">
<g clip-path="url(#clip0)">
<g opacity="0.5">
<path opacity="0.5" d="M431.2 112.4L417.4 196.8" stroke="#BFCBDD" stroke-miterlimit="10" stroke-linecap="round" stroke-linejoin="round" stroke-dasharray="5 5"/>
<path opacity="0.5" d="M402.1 207.2L249.8 228.7L381.8 327.6L342.1 400.9" stroke="#BFCBDD" stroke-miterlimit="10" stroke-linecap="round" stroke-linejoin="round" stroke-dasharray="5 5"/>
<path opacity="0.5" d="M40.3 372.8L126 366.2" stroke="#BFCBDD" stroke-miterlimit="10" stroke-linecap="round" stroke-linejoin="round" stroke-dasharray="5 5"/>
<path opacity="0.5" d="M29.1001 362.4L51.3001 225.3L170.9 227.2" stroke="#BFCBDD" stroke-miterlimit="10" stroke-linecap="round" stroke-linejoin="round" stroke-dasharray="5 5"/>
<path opacity="0.5" d="M84.2002 28.8999H184.3L232 183.3" stroke="#BFCBDD" stroke-miterlimit="10" stroke-linecap="round" stroke-linejoin="round" stroke-dasharray="5 5"/>
<path opacity="0.5" d="M73.4001 38.5V114.7L175.2 198.2" stroke="#BFCBDD" stroke-miterlimit="10" stroke-linecap="round" stroke-linejoin="round" stroke-dasharray="5 5"/>
<path opacity="0.5" d="M263.5 334.9L325.1 402.9" stroke="#BFCBDD" stroke-miterlimit="10" stroke-linecap="round" stroke-linejoin="round" stroke-dasharray="5 5"/>
<path opacity="0.5" d="M241.8 328.7L77.4001 260" stroke="#BFCBDD" stroke-miterlimit="10" stroke-linecap="round" stroke-linejoin="round" stroke-dasharray="5 5"/>
<path opacity="0.5" d="M196.8 264.2L124.3 346" stroke="#BFCBDD" stroke-miterlimit="10" stroke-linecap="round" stroke-linejoin="round" stroke-dasharray="5 5"/>
<path opacity="0.5" d="M252.1 317.8L242.9 264.1" stroke="#BFCBDD" stroke-miterlimit="10" stroke-linecap="round" stroke-linejoin="round" stroke-dasharray="5 5"/>
<path opacity="0.5" d="M279.2 15.2L339.2 90.4L248.6 186.9" stroke="#BFCBDD" stroke-miterlimit="10" stroke-linecap="round" stroke-linejoin="round" stroke-dasharray="5 5"/>
<path opacity="0.5" d="M184.3 27.6L260.2 14" stroke="#BFCBDD" stroke-miterlimit="10" stroke-linecap="round" stroke-linejoin="round" stroke-dasharray="5 5"/>
<path opacity="0.5" d="M419.5 102.3H358.3" stroke="#BFCBDD" stroke-miterlimit="10" stroke-linecap="round" stroke-linejoin="round" stroke-dasharray="5 5"/>
<path opacity="0.5" d="M252.1 338.6L231.6 414.8" stroke="#BFCBDD" stroke-miterlimit="10" stroke-linecap="round" stroke-linejoin="round" stroke-dasharray="5 5"/>
<path opacity="0.5" d="M381.8 308.1L334.8 108.5" stroke="#BFCBDD" stroke-miterlimit="10" stroke-linecap="round" stroke-linejoin="round" stroke-dasharray="5 5"/>
</g>
<path d="M259 384.2V428C259 431 256.6 433.4 253.6 433.4H209.8C206.8 433.4 204.4 431 204.4 428V384.2C204.4 383.5 204.5 382.9 204.8 382.3C205.6 380.3 207.5 378.9 209.8 378.9H253.6C256.6 378.9 259 381.3 259 384.2Z" fill="#CCD3FF"/>
<path d="M257.7 384.2V428C257.7 431 255.3 433.4 252.3 433.4H208.5C205.5 433.4 203.1 431 203.1 428V384.2C203.1 381.2 205.5 378.9 208.5 378.9H252.3C255.3 378.9 257.7 381.3 257.7 384.2Z" fill="#8082F0"/>
<path d="M259 384.2V428C259 431 256.6 433.4 253.6 433.4H209.8C206.8 433.4 204.4 431 204.4 428V384.2C204.4 383.5 204.5 382.9 204.8 382.3C205.6 380.3 207.5 378.9 209.8 378.9H253.6C256.6 378.9 259 381.3 259 384.2Z" fill="#CCD3FF"/>
<path d="M252.4 385.6H211.1V418.7H252.4V385.6Z" fill="white"/>
<path d="M252.6 385.6H251.1V418.7H252.6V385.6Z" fill="#EDF0FF"/>
<path d="M231.6 412.4C236.792 412.4 241 408.191 241 403C241 397.808 236.792 393.6 231.6 393.6C226.409 393.6 222.2 397.808 222.2 403C222.2 408.191 226.409 412.4 231.6 412.4Z" stroke="#8082F0" stroke-width="4" stroke-miterlimit="10" stroke-linecap="round" stroke-linejoin="round"/>
<path opacity="0.502" d="M259 384.2V428C259 431 256.6 433.4 253.6 433.4H250.5C249.7 430.7 249.2 427.8 247.7 425.5C245.3 421.8 241 420.3 236.8 418.7C235.2 418.1 233.7 417.5 232.2 416.7C227.3 414.1 223.4 409.6 221.6 404.4C219.8 399.2 219.9 393.4 217.8 388.3C217.4 387.4 216.9 386.5 216.4 385.6C214.5 382.8 211.7 380.7 208.4 380.9C207.1 381 205.9 381.5 204.8 382.3C204.1 382.8 203.5 383.5 203.1 384.2C203.1 381.2 205.5 378.9 208.5 378.9H253.6C256.6 378.9 259 381.3 259 384.2Z" fill="url(#paint0_linear)"/>
<path d="M236.3 422.8H211.1V424.6H236.3V422.8Z" fill="#8082F0"/>
<path d="M230.6 426.9H211.1V428.7H230.6V426.9Z" fill="#8082F0"/>
<path d="M412.7 305.5V353.9C412.7 357.2 410 359.8 406.8 359.8H358.4C355.1 359.8 352.5 357.1 352.5 353.9V305.5C352.5 304.7 352.6 304 352.9 303.4C353.8 301.2 355.9 299.6 358.4 299.6H406.8C410 299.5 412.7 302.2 412.7 305.5Z" fill="#CCD3FF"/>
<path d="M411.2 305.5V353.9C411.2 357.2 408.5 359.8 405.3 359.8H356.9C353.6 359.8 351 357.1 351 353.9V305.5C351 302.2 353.7 299.6 356.9 299.6H405.3C408.5 299.5 411.2 302.2 411.2 305.5Z" fill="#8082F0"/>
<path d="M412.7 305.5V353.9C412.7 357.2 410 359.8 406.8 359.8H358.4C355.1 359.8 352.5 357.1 352.5 353.9V305.5C352.5 304.7 352.6 304 352.9 303.4C353.8 301.2 355.9 299.6 358.4 299.6H406.8C410 299.5 412.7 302.2 412.7 305.5Z" fill="#CCD3FF"/>
<path d="M405.4 307H359.7V343.6H405.4V307Z" fill="white"/>
<path d="M405.6 307H403.9V343.6H405.6V307Z" fill="#EDF0FF"/>
<path d="M378.4 320.2V331.7L389.2 326L378.4 320.2Z" fill="#8082F0"/>
<path d="M382.6 338.3C375.8 338.3 370.2 332.8 370.2 325.9C370.2 319.1 375.7 313.5 382.6 313.5C389.4 313.5 395 319 395 325.9C394.9 332.8 389.4 338.3 382.6 338.3ZM382.6 315.5C376.8 315.5 372.1 320.2 372.1 326C372.1 331.8 376.8 336.5 382.6 336.5C388.4 336.5 393.1 331.8 393.1 326C393.1 320.2 388.3 315.5 382.6 315.5Z" fill="#8082F0"/>
<path opacity="0.502" d="M412.7 305.5V353.9C412.7 357.2 410 359.8 406.8 359.8H403.4C402.5 356.8 402 353.6 400.3 351C397.6 346.9 392.9 345.3 388.3 343.5C386.6 342.8 384.8 342.1 383.2 341.3C377.8 338.5 373.5 333.5 371.4 327.7C369.4 321.9 369.5 315.6 367.2 309.9C366.8 308.9 366.3 307.9 365.6 306.9C363.5 303.8 360.4 301.4 356.7 301.7C355.3 301.8 353.9 302.4 352.8 303.3C352.1 303.9 351.4 304.6 350.9 305.4C350.9 302.1 353.6 299.5 356.8 299.5H406.7C410 299.5 412.7 302.2 412.7 305.5Z" fill="url(#paint1_linear)"/>
<path d="M387.5 348.2H359.7V350.2H387.5V348.2Z" fill="#8082F0"/>
<path d="M381.3 352.6H359.7V354.6H381.3V352.6Z" fill="#8082F0"/>
<path d="M407.2 363.7C414.214 363.7 419.9 358.014 419.9 351C419.9 343.986 414.214 338.3 407.2 338.3C400.186 338.3 394.5 343.986 394.5 351C394.5 358.014 400.186 363.7 407.2 363.7Z" fill="#FCBE1C"/>
<path d="M410.861 359.793C415.704 357.773 417.992 352.21 415.973 347.368C413.953 342.525 408.391 340.236 403.548 342.256C398.705 344.275 396.416 349.838 398.436 354.681C400.455 359.523 406.018 361.812 410.861 359.793Z" fill="#FB8400"/>
<path d="M409.5 351.9L408.7 351.1C408.6 351.4 408.5 351.7 408.2 351.9C407.6 352.5 406.8 352.6 406 352.3C405.8 352.2 405.6 352.1 405.5 351.9L403 349.4C402.3 348.7 402.2 347.4 403 346.7C403.7 346 405 346 405.7 346.7L408.2 349.2C408.4 349.4 408.5 349.5 408.6 349.7C408.8 349.8 409 349.9 409.1 350.1L409.8 350.8C409.8 350.2 409.7 349.6 409.4 349C409.3 348.8 409.1 348.6 409 348.5L406.5 346C405.4 344.9 403.5 344.9 402.3 346C401.2 347.1 401.2 349 402.3 350.2L404.8 352.7C405 352.9 405.1 353 405.3 353.1C405.8 353.4 406.5 353.6 407.1 353.5C407.8 353.4 408.4 353.2 408.9 352.6C409.2 352.4 409.4 352.2 409.5 351.9Z" fill="white"/>
<path d="M412.4 351.9L409.9 349.4C409.7 349.2 409.6 349.1 409.4 349C408.9 348.7 408.2 348.5 407.6 348.6C407.2 348.6 406.8 348.7 406.5 348.9C406.2 349 406 349.2 405.7 349.4C405.2 349.9 404.9 350.6 404.9 351.3C404.9 351.9 405 352.5 405.4 353.1C405.5 353.3 405.6 353.4 405.8 353.6L408.3 356.1C409.4 357.2 411.3 357.2 412.4 356.1C413.5 354.9 413.5 353.1 412.4 351.9ZM408.9 355.4L406.4 352.9C406.2 352.7 406.1 352.6 406 352.4C405.7 351.7 405.8 350.8 406.4 350.2C406.6 350 406.9 349.8 407.2 349.7C407.6 349.6 408.1 349.6 408.6 349.8C408.8 349.9 409 350 409.1 350.2L411.6 352.7C411.7 352.8 411.8 352.9 411.8 353C412.3 353.7 412.3 354.8 411.6 355.5C410.9 356.1 409.7 356.1 408.9 355.4Z" fill="white"/>
<path d="M433.6 284.3C433.6 278.3 428.7 273.5 422.8 273.5H403.7C397.7 273.5 392.9 278.4 392.9 284.3C392.9 290.3 397.8 295.1 403.7 295.1H422.8C428.7 295.1 433.6 290.2 433.6 284.3Z" fill="#6166E9"/>
<path d="M401 302.6L401.6 294.6H408L401 302.6Z" fill="#6166E9"/>
<path d="M424.7 284.3C424.7 283.1 423.7 282 422.4 282C421.2 282 420.1 283 420.1 284.3C420.1 285.6 421.1 286.6 422.4 286.6C423.6 286.5 424.7 285.5 424.7 284.3Z" fill="white"/>
<path d="M415.4 284.3C415.4 283.1 414.4 282 413.1 282C411.9 282 410.8 283 410.8 284.3C410.8 285.6 411.8 286.6 413.1 286.6C414.3 286.5 415.4 285.5 415.4 284.3Z" fill="white"/>
<path d="M406 284.3C406 283.1 405 282 403.7 282C402.4 282 401.4 283 401.4 284.3C401.4 285.6 402.4 286.6 403.7 286.6C405 286.6 406 285.5 406 284.3Z" fill="white"/>
<path d="M104.5 92.4001V135.7C104.5 138.6 102.1 141 99.1999 141H56C53.1 141 50.7 138.6 50.7 135.7V92.4001C50.7 91.7001 50.7999 91.1001 51.0999 90.5001C51.8999 88.5001 53.8 87.1001 56 87.1001H99.3C102.1 87.1001 104.5 89.5001 104.5 92.4001Z" fill="#CCD3FF"/>
<path d="M103.2 92.4001V135.7C103.2 138.6 100.8 141 97.9001 141H54.6C51.7 141 49.3 138.6 49.3 135.7V92.4001C49.3 89.5001 51.7 87.1001 54.6 87.1001H97.9001C100.8 87.1001 103.2 89.5001 103.2 92.4001Z" fill="#8082F0"/>
<path d="M104.5 92.4001V135.7C104.5 138.6 102.1 141 99.1999 141H56C53.1 141 50.7 138.6 50.7 135.7V92.4001C50.7 91.7001 50.7999 91.1001 51.0999 90.5001C51.8999 88.5001 53.8 87.1001 56 87.1001H99.3C102.1 87.1001 104.5 89.5001 104.5 92.4001Z" fill="#CCD3FF"/>
<path d="M98.0999 93.8H57.2V126.5H98.0999V93.8Z" fill="white"/>
<path d="M98.2 93.8H96.7V126.5H98.2V93.8Z" fill="#EDF0FF"/>
<path opacity="0.502" d="M104.5 92.4V135.7C104.5 138.6 102.1 141 99.2 141H96.1C95.3 138.3 94.8001 135.5 93.3001 133.2C90.9001 129.6 86.7001 128.1 82.5 126.5C80.9 125.9 79.4 125.3 78 124.5C73.1 122 69.3 117.5 67.5 112.4C65.7001 107.3 65.8 101.5 63.8 96.5C63.4 95.6 63.0001 94.7 62.4001 93.8C60.5001 91 57.7 88.9 54.5 89.2C53.2 89.3 52 89.8 51 90.6C50.3 91.1 49.7 91.8 49.3 92.5C49.3 89.6 51.7 87.2 54.6 87.2H99.2C102.1 87.1 104.5 89.5 104.5 92.4Z" fill="url(#paint2_linear)"/>
<path d="M82.0999 130.6H57.2V132.4H82.0999V130.6Z" fill="#8082F0"/>
<path d="M76.5 134.6H57.2V136.4H76.5V134.6Z" fill="#8082F0"/>
<path d="M69.6001 110.2L76.2001 117.8L87.1001 103.7" stroke="#8082F0" stroke-width="4" stroke-miterlimit="10" stroke-linecap="round" stroke-linejoin="round"/>
<path d="M445.7 185.6V228.9C445.7 231.8 443.3 234.2 440.4 234.2H397.1C394.2 234.2 391.8 231.8 391.8 228.9V185.6C391.8 184.9 391.9 184.3 392.2 183.7C393 181.7 394.9 180.3 397.1 180.3H440.4C443.3 180.3 445.7 182.7 445.7 185.6Z" fill="#CCD3FF"/>
<path d="M444.3 185.6V228.9C444.3 231.8 441.9 234.2 439 234.2H395.7C392.8 234.2 390.4 231.8 390.4 228.9V185.6C390.4 182.7 392.8 180.3 395.7 180.3H439C441.9 180.3 444.3 182.7 444.3 185.6Z" fill="#8082F0"/>
<path d="M445.7 185.6V228.9C445.7 231.8 443.3 234.2 440.4 234.2H397.1C394.2 234.2 391.8 231.8 391.8 228.9V185.6C391.8 184.9 391.9 184.3 392.2 183.7C393 181.7 394.9 180.3 397.1 180.3H440.4C443.3 180.3 445.7 182.7 445.7 185.6Z" fill="#CCD3FF"/>
<path d="M439.2 186.9H398.3V219.6H439.2V186.9Z" fill="white"/>
<path d="M439.3 186.9H437.8V219.6H439.3V186.9Z" fill="#EDF0FF"/>
<path opacity="0.502" d="M445.7 185.6V228.9C445.7 231.8 443.3 234.2 440.4 234.2H437.3C436.5 231.5 436 228.7 434.5 226.4C432.1 222.8 427.9 221.3 423.7 219.7C422.1 219.1 420.6 218.5 419.2 217.7C414.3 215.2 410.5 210.7 408.7 205.6C406.9 200.5 407 194.7 405 189.7C404.6 188.8 404.2 187.9 403.6 187C401.7 184.2 398.9 182.1 395.7 182.4C394.4 182.5 393.2 183 392.2 183.8C391.5 184.3 390.9 185 390.5 185.7C390.5 182.8 392.9 180.4 395.8 180.4H440.4C443.3 180.3 445.7 182.7 445.7 185.6Z" fill="url(#paint3_linear)"/>
<path d="M423.2 223.7H398.3V225.5H423.2V223.7Z" fill="#8082F0"/>
<path d="M417.6 227.7H398.3V229.5H417.6V227.7Z" fill="#8082F0"/>
<path d="M410.7 203.4L417.4 210.9L428.2 196.8" stroke="#8082F0" stroke-width="4" stroke-miterlimit="10" stroke-linecap="round" stroke-linejoin="round"/>
<path d="M162.8 342.5V396.3C162.8 399.9 159.9 402.9 156.2 402.9H102.4C98.8 402.9 95.8 400 95.8 396.3V342.5C95.8 341.7 96 340.9 96.2 340.1C97.2 337.6 99.6 335.9 102.4 335.9H156.2C159.8 335.9 162.8 338.9 162.8 342.5Z" fill="#CCD3FF"/>
<path d="M161.1 342.5V396.3C161.1 399.9 158.2 402.9 154.5 402.9H100.7C97.1001 402.9 94.1001 400 94.1001 396.3V342.5C94.1001 338.9 97.1001 335.9 100.7 335.9H154.5C158.1 335.9 161.1 338.9 161.1 342.5Z" fill="#8082F0"/>
<path d="M162.8 342.5V396.3C162.8 399.9 159.9 402.9 156.2 402.9H102.4C98.8 402.9 95.8 400 95.8 396.3V342.5C95.8 341.7 96 340.9 96.2 340.1C97.2 337.6 99.6 335.9 102.4 335.9H156.2C159.8 335.9 162.8 338.9 162.8 342.5Z" fill="#CCD3FF"/>
<path d="M154.7 344.2H103.9V384.8H154.7V344.2Z" fill="white"/>
<path d="M154.8 344.2H153V384.8H154.8V344.2Z" fill="#EDF0FF"/>
<path opacity="0.502" d="M162.8 342.5V396.3C162.8 399.9 159.9 402.9 156.2 402.9H152.4C151.4 399.6 150.8 396 149 393.2C146 388.7 140.8 386.9 135.6 384.9C133.7 384.2 131.7 383.4 130 382.5C124 379.3 119.2 373.8 116.9 367.4C114.6 361 114.8 353.9 112.3 347.6C111.8 346.5 111.2 345.3 110.5 344.3C108.2 340.9 104.7 338.2 100.7 338.5C99.1002 338.6 97.6002 339.3 96.3002 340.2C95.5002 340.8 94.7002 341.7 94.2002 342.5C94.2002 338.9 97.2002 335.9 100.8 335.9H156.3C159.8 335.9 162.8 338.9 162.8 342.5Z" fill="url(#paint4_linear)"/>
<path d="M126.6 392.5H101.7V394.3H126.6V392.5Z" fill="#8082F0"/>
<path d="M121 396.5H101.7V398.3H121V396.5Z" fill="#8082F0"/>
<path d="M119.4 364.6L127.6 374.1L141.1 356.5" stroke="#8082F0" stroke-width="5" stroke-miterlimit="10" stroke-linecap="round" stroke-linejoin="round"/>
<path d="M94.5 409.6C101.514 409.6 107.2 403.914 107.2 396.9C107.2 389.886 101.514 384.2 94.5 384.2C87.486 384.2 81.8 389.886 81.8 396.9C81.8 403.914 87.486 409.6 94.5 409.6Z" fill="#FCBE1C"/>
<path d="M98.1612 405.704C103.004 403.684 105.293 398.121 103.273 393.279C101.254 388.436 95.6908 386.147 90.8481 388.167C86.0054 390.186 83.7167 395.749 85.7361 400.592C87.7556 405.434 93.3185 407.723 98.1612 405.704Z" fill="#FB8400"/>
<path d="M96.8002 397.8L96.0001 397C95.9001 397.3 95.8001 397.6 95.5001 397.8C94.9001 398.4 94.1002 398.5 93.3002 398.2C93.1002 398.1 92.9002 398 92.8002 397.8L90.3002 395.3C89.6002 394.6 89.5002 393.3 90.3002 392.6C91.0002 391.9 92.3001 391.9 93.0001 392.6L95.5001 395.1C95.7001 395.3 95.8001 395.4 95.9001 395.6C96.1001 395.7 96.3001 395.8 96.4001 396L97.1001 396.7C97.1001 396.1 97.0001 395.5 96.7001 394.9C96.6001 394.7 96.4002 394.5 96.3002 394.4L93.8002 391.9C92.7002 390.8 90.8001 390.8 89.6001 391.9C88.5001 393 88.5001 394.9 89.6001 396.1L92.1001 398.6C92.3001 398.8 92.4001 398.9 92.6001 399C93.1001 399.3 93.8001 399.5 94.4001 399.4C95.1001 399.3 95.7001 399.1 96.2001 398.5C96.5001 398.3 96.7002 398.1 96.8002 397.8Z" fill="white"/>
<path d="M99.7002 397.8L97.2002 395.3C97.0002 395.1 96.9002 395 96.7002 394.9C96.2002 394.6 95.5002 394.4 94.9002 394.5C94.5002 394.5 94.1002 394.6 93.8002 394.8C93.5002 394.9 93.3002 395.1 93.0002 395.3C92.5002 395.8 92.2002 396.5 92.2002 397.2C92.2002 397.8 92.3002 398.4 92.7002 399C92.8002 399.2 92.9002 399.3 93.1002 399.5L95.6002 402C96.7002 403.1 98.6002 403.1 99.7002 402C100.8 400.8 100.8 398.9 99.7002 397.8ZM96.3002 401.2L93.8002 398.7C93.6002 398.5 93.5002 398.4 93.4002 398.2C93.1002 397.5 93.2002 396.6 93.8002 396C94.0002 395.8 94.3002 395.6 94.6002 395.5C95.0002 395.4 95.5002 395.4 96.0002 395.6C96.2002 395.7 96.4002 395.8 96.5002 396L99.0002 398.5C99.1002 398.6 99.2002 398.7 99.2002 398.8C99.7002 399.5 99.7002 400.6 99.0002 401.3C98.2002 402 97.0002 402 96.3002 401.2Z" fill="white"/>
<path d="M373.6 66.2001V125.4C373.6 129.4 370.4 132.7 366.3 132.7H307.1C303.1 132.7 299.8 129.5 299.8 125.4V66.2001C299.8 65.3001 300 64.4001 300.3 63.6001C301.3 60.9001 304 59.0001 307.1 59.0001H366.3C370.3 58.9001 373.6 62.1001 373.6 66.2001Z" fill="#CCD3FF"/>
<path d="M371.7 66.2001V125.4C371.7 129.4 368.5 132.7 364.4 132.7H305.2C301.2 132.7 297.9 129.5 297.9 125.4V66.1001C297.9 62.1001 301.2 58.9001 305.2 58.9001H364.4C368.5 58.9001 371.7 62.1001 371.7 66.2001Z" fill="#8082F0"/>
<path d="M373.6 66.2001V125.4C373.6 129.4 370.4 132.7 366.3 132.7H307.1C303.1 132.7 299.8 129.5 299.8 125.4V66.2001C299.8 65.3001 300 64.4001 300.3 63.6001C301.3 60.9001 304 59.0001 307.1 59.0001H366.3C370.3 58.9001 373.6 62.1001 373.6 66.2001Z" fill="#CCD3FF"/>
<path d="M364.7 68.0002H308.7V112.8H364.7V68.0002Z" fill="white"/>
<path d="M364.8 68.0002H362.8V112.8H364.8V68.0002Z" fill="#EDF0FF"/>
<path d="M349.6 80.0002H325.4V105.2H349.6V80.0002Z" fill="#8082F0"/>
<path d="M341.3 84.3002L337.3 77.5002L333.7 83.9002L332.4 83.1002L337.3 74.5002L342.5 83.6002L341.3 84.3002Z" fill="#8082F0"/>
<path d="M346.6 83.2002H328.3V102H346.6V83.2002Z" fill="white"/>
<path opacity="0.502" d="M373.6 66.2001V125.4C373.6 129.4 370.4 132.7 366.3 132.7H362.1C361 129 360.4 125.2 358.3 122C355 117 349.3 115 343.6 112.8C341.5 112 339.4 111.1 337.4 110.1C330.8 106.6 325.5 100.6 323 93.5001C320.5 86.5001 320.7 78.6001 317.9 71.7001C317.4 70.4001 316.7 69.2001 316 68.0001C313.5 64.2001 309.6 61.3001 305.2 61.6001C303.4 61.7001 301.8 62.4001 300.4 63.5001C299.5 64.2001 298.7 65.1001 298.1 66.1001C298.1 62.1001 301.4 58.9001 305.4 58.9001H366.5C370.3 58.9001 373.6 62.1001 373.6 66.2001Z" fill="url(#paint5_linear)"/>
<path d="M342.8 118.4H308.7V120.9H342.8V118.4Z" fill="#8082F0"/>
<path d="M335.1 123.9H308.7V126.4H335.1V123.9Z" fill="#8082F0"/>
<path d="M328 74.5001C335.014 74.5001 340.7 68.8141 340.7 61.8001C340.7 54.7861 335.014 49.1001 328 49.1001C320.986 49.1001 315.3 54.7861 315.3 61.8001C315.3 68.8141 320.986 74.5001 328 74.5001Z" fill="#FCBE1C"/>
<path d="M328 71.3001C333.246 71.3001 337.5 67.0468 337.5 61.8C337.5 56.5533 333.246 52.3 328 52.3C322.753 52.3 318.5 56.5533 318.5 61.8C318.5 67.0468 322.753 71.3001 328 71.3001Z" fill="#FB8400"/>
<path d="M330.3 62.7001L329.5 61.9001C329.4 62.2001 329.3 62.5001 329 62.7001C328.4 63.3001 327.6 63.4001 326.8 63.1001C326.6 63.0001 326.4 62.9001 326.3 62.7001L323.8 60.2001C323.1 59.5001 323 58.2001 323.8 57.5001C324.5 56.8001 325.8 56.8001 326.5 57.5001L329 60.0001C329.2 60.2001 329.3 60.3001 329.4 60.5001C329.6 60.6001 329.8 60.7001 329.9 60.9001L330.6 61.6001C330.6 61.0001 330.5 60.4001 330.2 59.8001C330.1 59.6001 329.9 59.4001 329.8 59.3001L327.3 56.8001C326.2 55.7001 324.3 55.7001 323.1 56.8001C322 57.9001 322 59.8001 323.1 61.0001L325.6 63.5001C325.8 63.7001 325.9 63.8001 326.1 63.9001C326.6 64.2001 327.3 64.4001 327.9 64.3001C328.6 64.2001 329.2 64.0001 329.7 63.4001C330 63.2001 330.2 62.9001 330.3 62.7001Z" fill="white"/>
<path d="M333.2 62.7L330.7 60.2C330.5 60 330.4 59.9 330.2 59.8C329.7 59.5 329 59.3 328.4 59.4C328 59.4 327.6 59.5 327.3 59.7C327 59.8 326.8 60 326.5 60.2C326 60.7 325.7 61.4 325.7 62.1C325.7 62.7 325.8 63.3 326.2 63.9C326.3 64.1 326.4 64.2 326.6 64.4L329.1 66.9C330.2 68 332.1 68 333.2 66.9C334.3 65.7 334.3 63.8 333.2 62.7ZM329.7 66.1L327.2 63.6C327 63.4 326.9 63.3 326.8 63.1C326.5 62.4 326.6 61.5 327.2 60.9C327.4 60.7 327.7 60.5 328 60.4C328.4 60.3 328.9 60.3 329.4 60.5C329.6 60.6 329.8 60.7 329.9 60.9L332.4 63.4C332.5 63.5 332.6 63.6 332.6 63.7C333.1 64.4 333.1 65.5 332.4 66.2C331.7 66.9 330.5 66.9 329.7 66.1Z" fill="white"/>
<path d="M371.3 138.5C378.314 138.5 384 132.814 384 125.8C384 118.786 378.314 113.1 371.3 113.1C364.286 113.1 358.6 118.786 358.6 125.8C358.6 132.814 364.286 138.5 371.3 138.5Z" fill="#FCBE1C"/>
<path d="M371.3 135.3C376.547 135.3 380.8 131.047 380.8 125.8C380.8 120.553 376.547 116.3 371.3 116.3C366.053 116.3 361.8 120.553 361.8 125.8C361.8 131.047 366.053 135.3 371.3 135.3Z" fill="#FB8400"/>
<path d="M373.5 126.6L372.7 125.8C372.6 126.1 372.5 126.4 372.2 126.6C371.6 127.2 370.8 127.3 370 127C369.8 126.9 369.6 126.8 369.5 126.6L367 124.1C366.3 123.4 366.2 122.1 367 121.4C367.7 120.7 369 120.7 369.7 121.4L372.2 123.9C372.4 124.1 372.5 124.2 372.6 124.4C372.8 124.5 373 124.6 373.1 124.8L373.8 125.5C373.8 124.9 373.7 124.3 373.4 123.7C373.3 123.5 373.1 123.3 373 123.2L370.5 120.7C369.4 119.6 367.5 119.6 366.3 120.7C365.2 121.8 365.2 123.7 366.3 124.9L368.8 127.4C369 127.6 369.1 127.7 369.3 127.8C369.8 128.1 370.5 128.3 371.1 128.2C371.8 128.1 372.4 127.9 372.9 127.3C373.2 127.2 373.4 126.9 373.5 126.6Z" fill="white"/>
<path d="M376.4 126.7L373.9 124.2C373.7 124 373.6 123.9 373.4 123.8C372.9 123.5 372.2 123.3 371.6 123.4C371.2 123.4 370.8 123.5 370.5 123.7C370.2 123.8 370 124 369.7 124.2C369.2 124.7 368.9 125.4 368.9 126.1C368.9 126.7 369 127.3 369.4 127.9C369.5 128.1 369.6 128.2 369.8 128.4L372.3 130.9C373.4 132 375.3 132 376.4 130.9C377.6 129.7 377.6 127.8 376.4 126.7ZM373 130.1L370.5 127.6C370.3 127.4 370.2 127.3 370.1 127.1C369.8 126.4 369.9 125.5 370.5 124.9C370.7 124.7 371 124.5 371.3 124.4C371.7 124.3 372.2 124.3 372.7 124.5C372.9 124.6 373.1 124.7 373.2 124.9L375.7 127.4C375.8 127.5 375.9 127.6 375.9 127.7C376.4 128.4 376.4 129.5 375.7 130.2C374.9 130.8 373.7 130.8 373 130.1Z" fill="white"/>
<path d="M88.1999 201.1V260.3C88.1999 264.3 84.9999 267.6 80.8999 267.6H21.6999C17.6999 267.6 14.3999 264.4 14.3999 260.3V201.1C14.3999 200.2 14.5999 199.3 14.8999 198.5C15.8999 195.8 18.5999 193.9 21.6999 193.9H80.8999C84.8999 193.8 88.1999 197.1 88.1999 201.1Z" fill="#CCD3FF"/>
<path d="M86.3 201.1V260.3C86.3 264.3 83.1 267.6 79 267.6H19.8C15.8 267.6 12.5 264.4 12.5 260.3V201C12.5 197 15.8 193.8 19.8 193.8H79C83.1 193.8 86.3 197.1 86.3 201.1Z" fill="#8082F0"/>
<path d="M88.1999 201.1V260.3C88.1999 264.3 84.9999 267.6 80.8999 267.6H21.6999C17.6999 267.6 14.3999 264.4 14.3999 260.3V201.1C14.3999 200.2 14.5999 199.3 14.8999 198.5C15.8999 195.8 18.5999 193.9 21.6999 193.9H80.8999C84.8999 193.8 88.1999 197.1 88.1999 201.1Z" fill="#CCD3FF"/>
<path d="M79.3001 202.9H23.3V247.7H79.3001V202.9Z" fill="white"/>
<path d="M79.3999 202.9H77.3999V247.7H79.3999V202.9Z" fill="#EDF0FF"/>
<path d="M60.9286 227.542C62.1796 222.22 58.8788 216.891 53.5561 215.64C48.2334 214.389 42.9043 217.69 41.6533 223.012C40.4023 228.335 43.7031 233.664 49.0258 234.915C54.3486 236.166 59.6776 232.865 60.9286 227.542Z" stroke="#8082F0" stroke-width="5" stroke-miterlimit="10" stroke-linecap="round" stroke-linejoin="round"/>
<path opacity="0.502" d="M88.2 201.1V260.3C88.2 264.3 85 267.6 80.9 267.6H76.6999C75.5999 263.9 75 260.1 72.9 256.9C69.6 251.9 63.9 249.9 58.2 247.7C56.1 246.9 54 246 52 245C45.4 241.5 40.0999 235.5 37.5999 228.4C35.0999 221.4 35.2999 213.5 32.5 206.6C32 205.3 31.3 204.1 30.6 202.9C28.1 199.1 24.2 196.2 19.8 196.5C18 196.6 16.4 197.3 15 198.4C14.1 199.1 13.3 200 12.7 201C12.7 197 16 193.8 20 193.8H81.1C84.9 193.8 88.2 197.1 88.2 201.1Z" fill="url(#paint6_linear)"/>
<path d="M57.4001 253.3H23.3V255.8H57.4001V253.3Z" fill="#8082F0"/>
<path d="M49.7001 258.8H23.3V261.3H49.7001V258.8Z" fill="#8082F0"/>
<path d="M0 287C0 294.7 6.2 300.9 13.9 300.9H38.3C46 300.9 52.2 294.7 52.2 287C52.2 279.3 46 273.1 38.3 273.1H13.9C6.2 273.2 0 279.4 0 287Z" fill="#268FF1"/>
<path d="M41.8 263.6L41 273.8H32.8L41.8 263.6Z" fill="#268FF1"/>
<path d="M11.3999 287C11.3999 288.6 12.6999 289.9 14.2999 289.9C15.8999 289.9 17.1999 288.6 17.1999 287C17.1999 285.4 15.8999 284.1 14.2999 284.1C12.6999 284.1 11.3999 285.4 11.3999 287Z" fill="white"/>
<path d="M23.3999 287C23.3999 288.6 24.6999 289.9 26.2999 289.9C27.8999 289.9 29.1999 288.6 29.1999 287C29.1999 285.4 27.8999 284.1 26.2999 284.1C24.6999 284.1 23.3999 285.4 23.3999 287Z" fill="white"/>
<path d="M35.2998 287C35.2998 288.6 36.5998 289.9 38.1998 289.9C39.7998 289.9 41.0998 288.6 41.0998 287C41.0998 285.4 39.7998 284.1 38.1998 284.1C36.5998 284.1 35.2998 285.4 35.2998 287Z" fill="white"/>
<path d="M205.6 14.0999V48.5999C205.6 50.8999 203.7 52.7999 201.4 52.7999H166.9C164.6 52.7999 162.7 50.8999 162.7 48.5999V14.0999C162.7 13.5999 162.8 13.0999 163 12.5999C163.6 10.9999 165.1 9.8999 166.9 9.8999H201.4C203.7 9.8999 205.6 11.7999 205.6 14.0999Z" fill="#CCD3FF"/>
<path d="M204.5 14.0999V48.5999C204.5 50.8999 202.6 52.7999 200.3 52.7999H165.8C163.5 52.7999 161.6 50.8999 161.6 48.5999V14.0999C161.6 11.7999 163.5 9.8999 165.8 9.8999H200.3C202.7 9.8999 204.5 11.7999 204.5 14.0999Z" fill="#8082F0"/>
<path d="M205.6 14.0999V48.5999C205.6 50.8999 203.7 52.7999 201.4 52.7999H166.9C164.6 52.7999 162.7 50.8999 162.7 48.5999V14.0999C162.7 13.5999 162.8 13.0999 163 12.5999C163.6 10.9999 165.1 9.8999 166.9 9.8999H201.4C203.7 9.8999 205.6 11.7999 205.6 14.0999Z" fill="#CCD3FF"/>
<path d="M200.4 15.2H167.9V41.2H200.4V15.2Z" fill="white"/>
<path d="M200.6 15.2H199.4V41.2H200.6V15.2Z" fill="#EDF0FF"/>
<path opacity="0.502" d="M205.6 14.0999V48.5999C205.6 50.8999 203.7 52.7999 201.4 52.7999H199C198.4 50.6999 198 48.3999 196.8 46.5999C194.9 43.6999 191.5 42.4999 188.2 41.2999C187 40.7999 185.7 40.2999 184.6 39.6999C180.7 37.6999 177.7 34.0999 176.2 29.9999C174.8 25.8999 174.9 21.2999 173.2 17.2999C172.9 16.5999 172.5 15.8999 172.1 15.1999C170.6 12.9999 168.4 11.2999 165.8 11.4999C164.8 11.5999 163.8 11.9999 163 12.5999C162.5 12.9999 162 13.4999 161.6 14.0999C161.6 11.7999 163.5 9.8999 165.8 9.8999H201.3C203.7 9.8999 205.6 11.7999 205.6 14.0999Z" fill="url(#paint7_linear)"/>
<path d="M187.7 44.5H167.9V45.9H187.7V44.5Z" fill="#8082F0"/>
<path d="M183.3 47.7H167.9V49.0999H183.3V47.7Z" fill="#8082F0"/>
<path d="M190.1 27.6C190.1 30.8 187.5 33.5 184.2 33.5C181 33.5 178.3 30.9 178.3 27.6C178.3 24.4 180.9 21.7 184.2 21.7C187.5 21.8 190.1 24.4 190.1 27.6Z" stroke="#8082F0" stroke-width="3" stroke-miterlimit="10" stroke-linecap="round" stroke-linejoin="round"/>
<path d="M290.6 192.7V254.2C290.6 258.2 286.7 261.1 282.8 259.8L225.3 240.5L168.5 259.6C164.4 261 160.1 257.9 160.1 253.6V190.9C160.1 189.6 160.6 188.3 161.3 187.4C162 186.5 162.9 185.9 164 185.5L219 167.1C223.2 165.7 227.7 165.7 231.8 167.1L285 184.9C286.5 185.4 287.9 186.4 288.8 187.6C289.9 189 290.6 190.8 290.6 192.7Z" fill="#6166E9"/>
<g opacity="0.451">
<path opacity="0.451" d="M290.6 192.7V254.2C290.6 258.2 286.7 261.1 282.8 259.8L225.3 240.5L168.5 259.6C164.4 261 160.1 257.9 160.1 253.6V190.9C160.1 189.6 160.6 188.3 161.3 187.4C162 186.5 162.9 185.9 164 185.5L219 167.1C223.2 165.7 227.7 165.7 231.8 167.1L285 184.9C286.5 185.4 287.9 186.4 288.8 187.6C289.9 189 290.6 190.8 290.6 192.7Z" fill="url(#paint8_linear)"/>
</g>
<path d="M225.4 208.8V284.4C225.4 284.4 178.5 268.4 164.2 263.4C161.7 262.6 160.1 260.3 160.1 257.7V190.8C160.1 189.5 160.6 188.2 161.3 187.3L225.4 208.8Z" fill="#484AE5"/>
<path opacity="0.651" d="M166.4 255.1V201.4C166.4 199.1 168.7 197.4 170.9 198.1L216.6 213.5C218 214 218.9 215.3 218.9 216.8V270.5C218.9 272.8 216.6 274.5 214.4 273.8L168.7 258.4C167.4 257.8 166.4 256.5 166.4 255.1Z" fill="url(#paint9_linear)"/>
<path opacity="0.7098" d="M178.4 254.5V217.3C178.4 215.9 179.8 214.9 181.2 215.3L213 226C213.9 226.3 214.4 227.1 214.4 228V262.7C214.4 265.4 211.8 267.3 209.2 266.4L179.9 256.6C179 256.2 178.4 255.4 178.4 254.5Z" fill="#484AE5"/>
<path opacity="0.949" d="M173.5 248.2V211C173.5 209.6 174.9 208.6 176.3 209L208.1 219.7C209 220 209.5 220.8 209.5 221.7V258.9C209.5 260.3 208.1 261.3 206.7 260.9L174.9 250.2C174.1 249.9 173.5 249.1 173.5 248.2Z" fill="white"/>
<path d="M173.5 212.9V210.9C173.5 209.5 174.9 208.5 176.3 208.9L208.1 219.6C209 219.9 209.5 220.7 209.5 221.6V225L173.5 212.9Z" fill="#31AFF5"/>
<path d="M191.3 249.1C189.1 249.1 186.9 248.4 184.9 247C182.4 245.2 180.6 242.4 179.9 239.2C178.5 232.6 182.2 226.1 188.2 224.8C191.1 224.2 194.2 224.8 196.7 226.7C199.2 228.5 201 231.3 201.7 234.5C202.4 237.7 201.9 240.9 200.4 243.6C198.8 246.4 196.3 248.2 193.4 248.9C192.7 249 192 249.1 191.3 249.1ZM182.5 238.6C183.1 241.2 184.5 243.4 186.5 244.8C188.5 246.2 190.7 246.7 192.9 246.3C195.1 245.8 197 244.4 198.2 242.3C199.4 240.2 199.8 237.6 199.2 235C198.6 232.4 197.2 230.2 195.2 228.8C193.2 227.4 191 226.9 188.8 227.3C184.2 228.3 181.3 233.4 182.5 238.6Z" fill="#31AFF5"/>
<path d="M188 231.7V241.9L195.4 237.3L188 231.7Z" fill="#31AFF5"/>
<path d="M290.6 192.7V258.3C290.6 260.8 289 263.1 286.6 263.9L225.3 284.5V208.9L288.8 187.6C289.9 189 290.6 190.8 290.6 192.7Z" fill="#8082F0"/>
<path opacity="0.4392" d="M290.6 192.7V258.3C290.6 260.8 289 263.1 286.6 263.9L225.3 284.5V208.9L288.8 187.6C289.9 189 290.6 190.8 290.6 192.7Z" fill="url(#paint10_linear)"/>
<path opacity="0.651" d="M285.4 255.1V201.4C285.4 199.1 283.1 197.4 280.9 198.1L235.2 213.5C233.8 214 232.9 215.3 232.9 216.8V270.5C232.9 272.8 235.2 274.5 237.4 273.8L283.1 258.4C284.5 257.8 285.4 256.5 285.4 255.1Z" fill="url(#paint11_linear)"/>
<g opacity="0.2">
<path opacity="0.2" d="M245.2 255.3C244.9 255.4 244.7 255.4 244.6 255.2C244.4 255.1 244.3 255 244.3 254.9L238.9 246.9V256.4C238.9 256.6 238.8 256.8 238.7 257C238.6 257.2 238.4 257.3 238.2 257.4L235.1 258.4C234.9 258.5 234.8 258.4 234.6 258.3C234.5 258.2 234.4 258 234.4 257.8V239.6C234.4 239.4 234.5 239.2 234.6 239C234.7 238.8 234.9 238.7 235.1 238.6L237.6 237.9C237.9 237.8 238.1 237.8 238.3 238C238.5 238.1 238.6 238.2 238.6 238.3L244 246.3V236.9C244 236.7 244.1 236.5 244.2 236.3C244.3 236.1 244.5 236 244.6 236L247.7 235.1C247.9 235.1 248 235.1 248.1 235.2C248.2 235.3 248.3 235.5 248.3 235.7V253.6C248.3 253.8 248.2 254 248.1 254.2C248 254.4 247.8 254.5 247.7 254.6L245.2 255.3Z" fill="#484AE5"/>
<path opacity="0.2" d="M262.5 230.9C262.7 230.9 262.8 230.9 262.9 231C263 231.1 263.1 231.3 263.1 231.5V234.4C263.1 234.6 263 234.8 262.9 235C262.8 235.2 262.6 235.3 262.5 235.3L255.7 237.3V241.1L262 239.2C262.2 239.2 262.3 239.2 262.4 239.3C262.5 239.4 262.6 239.6 262.6 239.8V242.7C262.6 242.9 262.5 243.1 262.4 243.3C262.3 243.5 262.1 243.6 262 243.6L255.7 245.5V251.5C255.7 251.7 255.6 251.9 255.5 252.1C255.4 252.3 255.2 252.4 255.1 252.5L252.1 253.4C251.9 253.5 251.8 253.4 251.7 253.3C251.6 253.2 251.5 253 251.5 252.8V234.9C251.5 234.7 251.6 234.5 251.7 234.3C251.8 234.1 252 234 252.1 234L262.5 230.9Z" fill="#484AE5"/>
<path opacity="0.2" d="M276.8 226.8C277 226.8 277.1 226.8 277.2 226.9C277.3 227 277.4 227.2 277.4 227.4V230.2C277.4 230.4 277.3 230.6 277.2 230.8C277.1 231 276.9 231.1 276.8 231.1L273 232.2V246C273 246.2 272.9 246.4 272.8 246.6C272.7 246.8 272.5 246.9 272.4 246.9L269.5 247.8C269.3 247.8 269.2 247.8 269.1 247.7C269 247.6 268.9 247.4 268.9 247.2L268.8 233.3L264.9 234.4C264.7 234.4 264.6 234.4 264.5 234.3C264.4 234.2 264.3 234 264.3 233.8V230.9C264.3 230.7 264.4 230.5 264.5 230.3C264.6 230.1 264.8 230 264.9 230L276.8 226.8Z" fill="#484AE5"/>
</g>
<g opacity="0.949">
<path opacity="0.949" d="M249.7 250.5C249.4 250.6 249.2 250.6 249.1 250.4C248.9 250.3 248.8 250.2 248.8 250.1L243.4 242.1V251.6C243.4 251.8 243.3 252 243.2 252.2C243.1 252.4 242.9 252.5 242.7 252.6L239.6 253.6C239.4 253.7 239.3 253.6 239.1 253.5C239 253.4 238.9 253.2 238.9 253V234.8C238.9 234.6 239 234.4 239.1 234.2C239.2 234 239.4 233.9 239.6 233.8L242.1 233.1C242.4 233 242.6 233 242.8 233.2C243 233.3 243.1 233.4 243.1 233.5L248.5 241.5V232.1C248.5 231.9 248.6 231.7 248.7 231.5C248.8 231.3 249 231.2 249.1 231.2L252.2 230.3C252.4 230.3 252.5 230.3 252.6 230.4C252.7 230.5 252.8 230.7 252.8 230.9V248.8C252.8 249 252.7 249.2 252.6 249.4C252.5 249.6 252.3 249.7 252.2 249.8L249.7 250.5Z" fill="white"/>
<path opacity="0.949" d="M266.9 226.1C267.1 226.1 267.2 226.1 267.3 226.2C267.4 226.3 267.5 226.5 267.5 226.7V229.6C267.5 229.8 267.4 230 267.3 230.2C267.2 230.4 267 230.5 266.9 230.5L260.1 232.5V236.3L266.4 234.4C266.6 234.4 266.7 234.4 266.8 234.5C266.9 234.6 267 234.8 267 235V237.9C267 238.1 266.9 238.3 266.8 238.5C266.7 238.7 266.5 238.8 266.4 238.8L260.1 240.7V246.7C260.1 246.9 260 247.1 259.9 247.3C259.8 247.5 259.6 247.6 259.5 247.7L256.5 248.6C256.3 248.7 256.2 248.6 256.1 248.5C256 248.4 255.9 248.2 255.9 248V230.1C255.9 229.9 256 229.7 256.1 229.5C256.2 229.3 256.4 229.2 256.5 229.2L266.9 226.1Z" fill="white"/>
<path opacity="0.949" d="M281.2 222.1C281.4 222.1 281.5 222.1 281.6 222.2C281.7 222.3 281.8 222.5 281.8 222.7V225.5C281.8 225.7 281.7 225.9 281.6 226.1C281.5 226.3 281.3 226.4 281.2 226.4L277.4 227.5L277.5 241.3C277.5 241.5 277.4 241.7 277.3 241.9C277.2 242.1 277 242.2 276.9 242.2L274 243.1C273.8 243.1 273.7 243.1 273.6 243C273.5 242.9 273.4 242.7 273.4 242.5L273.3 228.6L269.4 229.7C269.2 229.7 269.1 229.7 269 229.6C268.9 229.5 268.8 229.3 268.8 229.1V226.2C268.8 226 268.9 225.8 269 225.6C269.1 225.4 269.3 225.3 269.4 225.3L281.2 222.1Z" fill="white"/>
</g>
<path d="M258.6 133C258.6 123.2 250.7 115.3 240.9 115.3H209.8C200 115.3 192.1 123.2 192.1 133C192.1 142.8 200 150.7 209.8 150.7H240.9C250.7 150.8 258.6 142.8 258.6 133Z" fill="#D662F2"/>
<path d="M205.4 163L206.4 150H216.8L205.4 163Z" fill="#D662F2"/>
<path opacity="0.6" d="M240.9 115.3H209.8C200 115.3 192.1 123.2 192.1 133C192.1 141.6 198.2 148.8 206.4 150.4L205.4 163L216.1 150.8H240.9C250.7 150.8 258.6 142.9 258.6 133.1C258.6 123.3 250.7 115.3 240.9 115.3Z" fill="url(#paint12_linear)"/>
<path d="M244 133C244 131 242.3 129.3 240.3 129.3C238.3 129.3 236.6 131 236.6 133C236.6 135 238.3 136.7 240.3 136.7C242.4 136.7 244 135.1 244 133Z" fill="white"/>
<path d="M228.8 133C228.8 131 227.1 129.3 225.1 129.3C223.1 129.3 221.4 131 221.4 133C221.4 135 223.1 136.7 225.1 136.7C227.2 136.7 228.8 135.1 228.8 133Z" fill="white"/>
<path d="M213.6 133C213.6 131 211.9 129.3 209.9 129.3C207.9 129.3 206.2 131 206.2 133C206.2 135 207.9 136.7 209.9 136.7C211.9 136.7 213.6 135.1 213.6 133Z" fill="white"/>
<path d="M84.8 21.6V34.8L73.4 38.6L62 34.8V21.6L73.4 17.8L84.8 21.6Z" fill="#F9F9F9" stroke="#8082F0" stroke-miterlimit="10" stroke-linecap="round" stroke-linejoin="round"/>
<path d="M62 34.7999V21.7L73.4 25.5V38.5L62 34.7999Z" fill="#F9F9F9" stroke="#8082F0" stroke-miterlimit="10" stroke-linecap="round" stroke-linejoin="round"/>
<path d="M84.7999 34.7999V21.7L73.3999 25.5V38.5L84.7999 34.7999Z" fill="#F9F9F9" stroke="#8082F0" stroke-miterlimit="10" stroke-linecap="round" stroke-linejoin="round"/>
<path d="M347.8 402.8V415.9L336.4 419.8L325 415.9V402.8L336.4 399V398.9V399L347.8 402.8Z" fill="#F9F9F9" stroke="#8082F0" stroke-miterlimit="10" stroke-linecap="round" stroke-linejoin="round"/>
<path d="M336.4 398.9V399V398.9Z" fill="#F9F9F9" stroke="#8082F0" stroke-miterlimit="10" stroke-linecap="round" stroke-linejoin="round"/>
<path d="M336.4 398.9V399V398.9Z" fill="#F9F9F9" stroke="#8082F0" stroke-miterlimit="10" stroke-linecap="round" stroke-linejoin="round"/>
<path d="M325.1 416V402.9L336.4 406.6V419.7L325.1 416Z" fill="#F9F9F9" stroke="#8082F0" stroke-miterlimit="10" stroke-linecap="round" stroke-linejoin="round"/>
<path d="M347.8 416V402.9L336.4 406.6V419.7L347.8 416Z" fill="#F9F9F9" stroke="#8082F0" stroke-miterlimit="10" stroke-linecap="round" stroke-linejoin="round"/>
<path d="M262 322.9V334.3L252.1 337.7L242.2 334.3V322.9L252.1 319.6L262 322.9Z" fill="#F9F9F9" stroke="#D0D5FF" stroke-miterlimit="10" stroke-linecap="round" stroke-linejoin="round"/>
<path d="M242.2 334.4V323L252.1 326.2V337.6L242.2 334.4Z" fill="#F9F9F9" stroke="#D0D5FF" stroke-miterlimit="10" stroke-linecap="round" stroke-linejoin="round"/>
<path d="M262 334.4V323L252.1 326.2V337.6L262 334.4Z" fill="#F9F9F9" stroke="#D0D5FF" stroke-miterlimit="10" stroke-linecap="round" stroke-linejoin="round"/>
<path d="M281.6 3.9V15.4L271.6 18.8L261.6 15.4V3.9L271.6 0.5L281.6 3.9Z" fill="#F9F9F9" stroke="#D0D5FF" stroke-miterlimit="10" stroke-linecap="round" stroke-linejoin="round"/>
<path d="M261.6 15.3999V3.8999L271.6 7.1999V18.6999L261.6 15.3999Z" fill="#F9F9F9" stroke="#D0D5FF" stroke-miterlimit="10" stroke-linecap="round" stroke-linejoin="round"/>
<path d="M281.6 15.3999V3.8999L271.6 7.1999V18.6999L281.6 15.3999Z" fill="#F9F9F9" stroke="#D0D5FF" stroke-miterlimit="10" stroke-linecap="round" stroke-linejoin="round"/>
<path d="M40.5 366.2V379.4L29.1 383.2L17.7 379.4V366.2L29.1 362.4L40.5 366.2Z" fill="#F9F9F9" stroke="#D0D5FF" stroke-miterlimit="10" stroke-linecap="round" stroke-linejoin="round"/>
<path d="M17.7 379.4V366.3L29.1 370V383.1L17.7 379.4Z" fill="#F9F9F9" stroke="#D0D5FF" stroke-miterlimit="10" stroke-linecap="round" stroke-linejoin="round"/>
<path d="M40.5001 379.4V366.3L29.1001 370V383.1L40.5001 379.4Z" fill="#F9F9F9" stroke="#D0D5FF" stroke-miterlimit="10" stroke-linecap="round" stroke-linejoin="round"/>
<path d="M441 95.9001V107.2L431.2 110.5L421.5 107.2V95.9001L431.2 92.6001L441 95.9001Z" fill="#F9F9F9" stroke="#8082F0" stroke-miterlimit="10" stroke-linecap="round" stroke-linejoin="round"/>
<path d="M421.5 107.2V95.8999L431.2 99.1999V110.4L421.5 107.2Z" fill="#F9F9F9" stroke="#8082F0" stroke-miterlimit="10" stroke-linecap="round" stroke-linejoin="round"/>
<path d="M441 107.2V96L431.2 99.2V110.4L441 107.2Z" fill="#F9F9F9" stroke="#8082F0" stroke-miterlimit="10" stroke-linecap="round" stroke-linejoin="round"/>
</g>
<defs>
<linearGradient id="paint0_linear" x1="255.397" y1="378.136" x2="215.551" y2="424.042" gradientUnits="userSpaceOnUse">
<stop stop-color="#FF91E2"/>
<stop offset="0.2268" stop-color="#FEA1E7" stop-opacity="0.7732"/>
<stop offset="0.6664" stop-color="#FDCAF4" stop-opacity="0.3336"/>
<stop offset="1" stop-color="#FCEDFF" stop-opacity="0"/>
</linearGradient>
<linearGradient id="paint1_linear" x1="408.647" y1="298.724" x2="364.591" y2="349.479" gradientUnits="userSpaceOnUse">
<stop stop-color="#FF91E2"/>
<stop offset="0.2268" stop-color="#FEA1E7" stop-opacity="0.7732"/>
<stop offset="0.6664" stop-color="#FDCAF4" stop-opacity="0.3336"/>
<stop offset="1" stop-color="#FCEDFF" stop-opacity="0"/>
</linearGradient>
<linearGradient id="paint2_linear" x1="100.914" y1="86.4149" x2="61.5371" y2="131.78" gradientUnits="userSpaceOnUse">
<stop stop-color="#FF91E2"/>
<stop offset="0.2268" stop-color="#FEA1E7" stop-opacity="0.7732"/>
<stop offset="0.6664" stop-color="#FDCAF4" stop-opacity="0.3336"/>
<stop offset="1" stop-color="#FCEDFF" stop-opacity="0"/>
</linearGradient>
<linearGradient id="paint3_linear" x1="442.05" y1="179.566" x2="402.673" y2="224.931" gradientUnits="userSpaceOnUse">
<stop stop-color="#FF91E2"/>
<stop offset="0.2268" stop-color="#FEA1E7" stop-opacity="0.7732"/>
<stop offset="0.6664" stop-color="#FDCAF4" stop-opacity="0.3336"/>
<stop offset="1" stop-color="#FCEDFF" stop-opacity="0"/>
</linearGradient>
<linearGradient id="paint4_linear" x1="158.287" y1="335.049" x2="109.323" y2="391.459" gradientUnits="userSpaceOnUse">
<stop stop-color="#FF91E2"/>
<stop offset="0.2268" stop-color="#FEA1E7" stop-opacity="0.7732"/>
<stop offset="0.6664" stop-color="#FDCAF4" stop-opacity="0.3336"/>
<stop offset="1" stop-color="#FCEDFF" stop-opacity="0"/>
</linearGradient>
<linearGradient id="paint5_linear" x1="368.621" y1="57.9095" x2="314.69" y2="120.043" gradientUnits="userSpaceOnUse">
<stop stop-color="#FF91E2"/>
<stop offset="0.2268" stop-color="#FEA1E7" stop-opacity="0.7732"/>
<stop offset="0.6664" stop-color="#FDCAF4" stop-opacity="0.3336"/>
<stop offset="1" stop-color="#FCEDFF" stop-opacity="0"/>
</linearGradient>
<linearGradient id="paint6_linear" x1="83.2153" y1="192.827" x2="29.2838" y2="254.96" gradientUnits="userSpaceOnUse">
<stop stop-color="#FF91E2"/>
<stop offset="0.2268" stop-color="#FEA1E7" stop-opacity="0.7732"/>
<stop offset="0.6664" stop-color="#FDCAF4" stop-opacity="0.3336"/>
<stop offset="1" stop-color="#FCEDFF" stop-opacity="0"/>
</linearGradient>
<linearGradient id="paint7_linear" x1="202.745" y1="9.3289" x2="171.374" y2="45.4715" gradientUnits="userSpaceOnUse">
<stop stop-color="#FF91E2"/>
<stop offset="0.2268" stop-color="#FEA1E7" stop-opacity="0.7732"/>
<stop offset="0.6664" stop-color="#FDCAF4" stop-opacity="0.3336"/>
<stop offset="1" stop-color="#FCEDFF" stop-opacity="0"/>
</linearGradient>
<linearGradient id="paint8_linear" x1="287.635" y1="224.567" x2="160.383" y2="208.334" gradientUnits="userSpaceOnUse">
<stop stop-color="#FF91E2"/>
<stop offset="0.2268" stop-color="#FEA1E7" stop-opacity="0.7732"/>
<stop offset="0.6664" stop-color="#FDCAF4" stop-opacity="0.3336"/>
<stop offset="1" stop-color="#FCEDFF" stop-opacity="0"/>
</linearGradient>
<linearGradient id="paint9_linear" x1="172.354" y1="208.853" x2="220.772" y2="273.135" gradientUnits="userSpaceOnUse">
<stop stop-color="#5657C7"/>
<stop offset="0.0407927" stop-color="#5D56C8" stop-opacity="0.9686"/>
<stop offset="0.5021" stop-color="#A54ED8" stop-opacity="0.6141"/>
<stop offset="0.8334" stop-color="#D249E2" stop-opacity="0.3594"/>
<stop offset="1" stop-color="#E347E6" stop-opacity="0.2314"/>
</linearGradient>
<linearGradient id="paint10_linear" x1="294.549" y1="192.511" x2="219.263" y2="279.246" gradientUnits="userSpaceOnUse">
<stop stop-color="#FF91E2"/>
<stop offset="0.2268" stop-color="#FEA1E7" stop-opacity="0.7732"/>
<stop offset="0.6664" stop-color="#FDCAF4" stop-opacity="0.3336"/>
<stop offset="1" stop-color="#FCEDFF" stop-opacity="0"/>
</linearGradient>
<linearGradient id="paint11_linear" x1="279.52" y1="208.853" x2="231.102" y2="273.135" gradientUnits="userSpaceOnUse">
<stop stop-color="#5657C7"/>
<stop offset="0.0407927" stop-color="#5D56C8" stop-opacity="0.9686"/>
<stop offset="0.5021" stop-color="#A54ED8" stop-opacity="0.6141"/>
<stop offset="0.8334" stop-color="#D249E2" stop-opacity="0.3594"/>
<stop offset="1" stop-color="#E347E6" stop-opacity="0.2314"/>
</linearGradient>
<linearGradient id="paint12_linear" x1="209.39" y1="160.83" x2="253.765" y2="83.5114" gradientUnits="userSpaceOnUse">
<stop stop-color="#5657C7"/>
<stop offset="0.0407927" stop-color="#5D56C8" stop-opacity="0.9686"/>
<stop offset="0.5021" stop-color="#A54ED8" stop-opacity="0.6141"/>
<stop offset="0.8334" stop-color="#D249E2" stop-opacity="0.3594"/>
<stop offset="1" stop-color="#E347E6" stop-opacity="0.2314"/>
</linearGradient>
<clipPath id="clip0">
<rect width="445.7" height="433.4" fill="white"/>
</clipPath>
</defs>
</svg>
