<svg width="350" height="306" viewBox="0 0 350 306" fill="none" xmlns="http://www.w3.org/2000/svg">
<g clip-path="url(#clip0)">
<path d="M111.912 275.422C109.06 275.422 106.207 274.872 104.232 273.662L3.18182 215.146C1.09718 213.936 0 212.396 0 210.526C0 208.326 1.64577 206.236 4.38871 204.587L197.053 93.1639C202.32 90.0841 210.219 89.7541 214.828 92.3939L315.878 150.91C317.853 152.12 319.06 153.66 319.06 155.53C319.06 157.73 317.414 159.82 314.671 161.469L121.897 272.892C119.044 274.542 115.313 275.422 111.912 275.422ZM104.342 273.222C108.73 275.752 116.52 275.422 121.677 272.452L314.342 160.919C316.975 159.38 318.511 157.4 318.511 155.42C318.511 153.77 317.523 152.34 315.549 151.24L214.498 92.7239C210.11 90.1941 202.32 90.524 197.163 93.4938L4.60815 205.027C1.97492 206.566 0.438871 208.546 0.438871 210.526C0.438871 212.176 1.42633 213.606 3.40125 214.706L104.342 273.222Z" fill="#42E8E0"/>
<path d="M318.731 128.472L304.248 131.001L214.718 79.1949C210.22 76.555 202.43 76.885 197.163 79.9648L25.8937 178.958L0.219727 183.358V192.487C0.219727 194.137 1.20719 195.787 3.29183 196.887L104.232 255.403C108.731 258.043 116.521 257.713 121.787 254.633L314.452 143.101C317.195 141.451 318.731 139.471 318.731 137.491V128.472Z" fill="url(#paint0_linear)"/>
<path d="M104.235 246.274L3.29419 187.758C-1.20424 185.118 -0.65565 180.608 4.50109 177.638L197.166 66.1057C202.322 63.1359 210.222 62.8059 214.721 65.3357L315.771 123.852C320.269 126.492 319.721 131.001 314.564 133.971L121.79 245.504C116.633 248.584 108.733 248.914 104.235 246.274Z" fill="#24126A"/>
<path d="M314.452 134.081L121.787 245.504C116.63 248.474 108.731 248.804 104.232 246.274L3.29192 187.758C1.53644 186.768 0.548974 185.338 0.329539 183.908C0.000384943 185.888 0.987846 187.648 3.29192 188.968L104.232 247.484C108.731 250.124 116.521 249.794 121.787 246.714L314.452 135.181C317.524 133.421 318.95 131.001 318.731 128.912C318.402 130.671 316.975 132.541 314.452 134.081Z" fill="white"/>
<path opacity="0.51" d="M104.452 243.964L7.02217 187.648C2.63345 185.118 3.18204 180.718 8.22907 177.858L197.273 68.4156C202.32 65.5557 209.891 65.2258 214.279 67.7556L311.709 124.182C316.098 126.712 315.549 131.111 310.502 133.971L121.458 243.414C116.411 246.164 108.84 246.494 104.452 243.964Z" fill="#453C9E"/>
<path opacity="0.8" d="M111.803 243.524C108.95 243.524 106.317 242.974 104.232 241.764L6.91243 185.338C4.93751 184.238 3.84033 182.588 3.84033 180.828C3.84033 178.738 5.37638 176.538 8.11933 174.999L197.163 65.5557C202.21 62.5859 210 62.2559 214.389 64.8957L311.818 121.322C313.793 122.422 314.89 124.072 314.89 125.832C314.89 127.922 313.354 130.121 310.611 131.661L121.568 241.104C118.825 242.644 115.204 243.524 111.803 243.524ZM104.561 241.214C108.84 243.634 116.301 243.414 121.238 240.554L310.282 131.111C312.806 129.682 314.232 127.702 314.232 125.832C314.232 124.292 313.245 122.862 311.489 121.872L214.06 65.4457C209.781 63.0259 202.32 63.2458 197.383 66.1057L8.44848 175.549C5.92497 176.978 4.49864 178.958 4.49864 180.828C4.49864 182.368 5.4861 183.798 7.24159 184.788L104.561 241.214Z" fill="url(#paint1_linear)"/>
<g opacity="0.1">
<path opacity="0.5" d="M104.452 241.434L7.02217 185.118C2.63345 182.588 3.18204 178.188 8.22907 175.329L197.273 65.8857C202.32 63.0259 209.891 62.6959 214.279 65.2257L311.709 121.652C316.097 124.182 315.549 128.582 310.502 131.441L121.458 240.884C116.411 243.634 108.84 243.964 104.452 241.434Z" fill="url(#paint2_radial)"/>
<g opacity="0.1">
<path opacity="0.1" d="M212.085 220.316C212.085 207.996 203.527 193.147 192.884 186.988C187.618 183.908 182.79 183.578 179.279 185.668L175.658 187.758L176.755 187.868C174.89 190.178 173.683 193.697 173.683 198.097C173.683 210.416 182.241 225.265 192.884 231.425C196.505 233.515 199.906 234.285 202.868 233.955L202.759 234.945L206.489 232.745L206.599 232.635C210 230.655 212.085 226.365 212.085 220.316Z" fill="#9FFFF8"/>
<path opacity="0.1" d="M202.728 234.951C210.232 230.608 210.249 216.553 202.765 203.559C195.282 190.565 183.132 183.553 175.628 187.896C168.124 192.24 168.107 206.294 175.591 219.288C183.074 232.282 195.224 239.295 202.728 234.951Z" fill="#42E8E0"/>
</g>
</g>
<path opacity="0.4" d="M290.862 130.891C289.326 131.771 286.912 131.771 285.486 130.891C283.949 130.012 283.949 128.582 285.486 127.812C287.022 126.932 289.435 126.932 290.862 127.812C292.398 128.692 292.398 130.012 290.862 130.891Z" fill="#24126A"/>
<path opacity="0.4" d="M270.345 115.932L280.878 121.982C282.194 122.752 281.975 124.072 280.549 124.842C279.013 125.722 276.818 125.832 275.502 125.062L264.969 119.012C263.652 118.242 263.872 116.922 265.298 116.152C266.834 115.272 269.028 115.162 270.345 115.932Z" fill="#24126A"/>
<path opacity="0.4" d="M210.219 79.3048L220.752 85.3544C222.069 86.1244 221.85 87.4443 220.423 88.2143C218.887 89.0942 216.693 89.2042 215.376 88.4342L204.843 82.3846C203.527 81.6147 203.746 80.2948 205.172 79.5248C206.708 78.6449 208.903 78.5349 210.219 79.3048Z" fill="#24126A"/>
<path d="M290.862 127.152C289.326 128.032 286.912 128.032 285.486 127.152C283.949 126.272 283.949 124.842 285.486 124.072C287.022 123.192 289.435 123.192 290.862 124.072C292.398 124.842 292.398 126.272 290.862 127.152Z" fill="#42E8E0"/>
<path d="M270.345 112.083L280.878 118.132C282.194 118.902 281.975 120.222 280.549 120.992C279.013 121.872 276.818 121.982 275.502 121.212L264.969 115.162C263.652 114.392 263.872 113.073 265.298 112.303C266.834 111.423 269.028 111.423 270.345 112.083Z" fill="#42E8E0"/>
<path d="M210.219 75.565L220.752 81.6146C222.069 82.3846 221.85 83.7045 220.423 84.4745C218.887 85.3544 216.693 85.4644 215.376 84.6944L204.843 78.6448C203.527 77.8749 203.746 76.555 205.172 75.785C206.708 74.9051 208.903 74.7951 210.219 75.565Z" fill="#42E8E0"/>
<g opacity="0.3">
<path opacity="0.3" d="M350 260.353V255.403L348.683 254.633C348.244 256.943 345.611 258.483 343.307 258.813L327.727 267.942L320.925 270.362L299.31 259.143L299.859 258.813C297.994 257.933 297.006 255.953 296.019 254.193L294.592 255.073L293.715 255.293V260.353C293.715 261.343 294.373 262.333 295.58 262.993L317.304 275.532C319.827 276.962 323.997 276.962 326.52 275.532L348.244 262.993C349.451 262.223 350.11 261.343 350.11 260.353C350 260.353 350 260.353 350 260.353Z" fill="url(#paint3_linear)"/>
<path opacity="0.3" d="M343.198 258.813L327.618 267.942L321.693 270.032V276.742C323.339 276.742 324.984 276.412 326.301 275.642L348.025 263.103C349.232 262.333 349.89 261.453 349.89 260.463V260.353V255.403L348.683 254.743H348.574C348.135 256.943 345.502 258.483 343.198 258.813Z" fill="#0F054C"/>
<g opacity="0.3">
<path opacity="0.3" d="M317.194 270.582L295.47 258.043C292.947 256.613 292.947 254.193 295.47 252.653L317.194 240.114C319.718 238.684 323.887 238.684 326.411 240.114L348.135 252.653C350.658 254.083 350.658 256.503 348.135 257.933L326.411 270.582C323.778 272.122 319.718 272.122 317.194 270.582Z" fill="url(#paint4_linear)"/>
</g>
<g opacity="0.3">
<path opacity="0.3" d="M317.194 270.582L295.47 258.043C292.947 256.613 292.947 254.193 295.47 252.653L317.194 240.114C319.718 238.684 323.887 238.684 326.411 240.114L348.135 252.653C350.658 254.083 350.658 256.503 348.135 257.933L326.411 270.582C323.778 272.122 319.718 272.122 317.194 270.582Z" fill="#0F054C"/>
</g>
</g>
<path d="M321.803 254.743C320.267 254.743 318.84 254.413 317.743 253.753L296.019 241.214C294.922 240.554 294.264 239.674 294.264 238.684C294.264 237.694 294.922 236.815 296.019 236.155L317.743 223.615C320.047 222.296 323.668 222.296 325.972 223.615L347.696 236.155C348.793 236.815 349.452 237.694 349.452 238.684C349.452 239.674 348.793 240.554 347.696 241.214L325.862 253.753C324.765 254.413 323.229 254.743 321.803 254.743ZM321.803 223.065C320.376 223.065 318.95 223.395 317.853 223.945L296.129 236.485C295.141 237.035 294.593 237.804 294.593 238.684C294.593 239.454 295.141 240.224 296.129 240.884L317.853 253.423C320.047 254.633 323.449 254.633 325.643 253.423L347.367 240.884C348.355 240.334 348.903 239.564 348.903 238.684C348.903 237.804 348.355 237.145 347.367 236.485L325.643 223.945C324.546 223.395 323.119 223.065 321.803 223.065Z" fill="#42E8E0"/>
<path opacity="0.4" d="M350 233.845V226.365L348.683 225.595C348.354 227.905 345.611 229.445 343.307 229.775L327.727 238.904L320.925 241.324L299.31 230.105L299.859 229.775C297.994 228.895 297.006 226.915 296.019 225.155L294.592 226.035L293.715 226.255V233.845C293.715 234.835 294.373 235.825 295.58 236.485L317.304 249.024C319.827 250.454 323.997 250.454 326.52 249.024L348.244 236.485C349.451 235.715 350.11 234.835 350.11 233.845C350 233.955 350 233.955 350 233.845Z" fill="#42E8E0"/>
<path d="M350 227.245V222.295L348.683 221.526C348.354 223.835 345.611 225.375 343.307 225.705L327.727 234.835L320.925 237.255L299.31 226.035L299.859 225.705C297.994 224.825 297.006 222.845 296.019 221.086L294.592 221.966L293.715 222.185V227.245C293.715 228.235 294.373 229.225 295.58 229.885L317.304 242.424C319.827 243.854 323.997 243.854 326.52 242.424L348.244 229.885C349.451 229.115 350.11 228.235 350.11 227.245C350 227.355 350 227.355 350 227.245Z" fill="url(#paint5_linear)"/>
<path opacity="0.3" d="M343.198 225.815L327.618 234.945L321.693 237.035V243.744C323.339 243.744 324.984 243.414 326.301 242.644L348.025 230.105C349.232 229.335 349.89 228.455 349.89 227.465V227.355V222.405L348.683 221.746H348.574C348.135 223.945 345.502 225.485 343.198 225.815Z" fill="#0F054C"/>
<path d="M317.194 237.585L295.47 225.045C292.947 223.615 292.947 221.196 295.47 219.656L317.194 207.116C319.718 205.687 323.887 205.687 326.411 207.116L348.135 219.656C350.658 221.086 350.658 223.505 348.135 225.045L326.411 237.585C323.778 239.014 319.718 239.014 317.194 237.585Z" fill="url(#paint6_linear)"/>
<path d="M348.026 225.045L326.411 237.584C323.888 239.014 319.718 239.014 317.195 237.584L295.471 225.045C294.373 224.385 293.715 223.505 293.605 222.735C293.496 223.835 294.044 224.935 295.471 225.705L317.195 238.244C319.718 239.674 323.888 239.674 326.411 238.244L348.135 225.705C349.562 224.935 350.22 223.835 350 222.735C349.781 223.505 349.232 224.385 348.026 225.045Z" fill="white"/>
<g opacity="0.3">
<path opacity="0.3" d="M253.339 289.611V284.661L252.022 283.891C251.693 286.201 248.95 287.741 246.646 288.071L231.066 297.201L224.263 299.62L202.649 288.401L203.198 288.071C201.332 287.191 200.345 285.211 199.358 283.451L197.931 284.331L197.053 284.551V289.611C197.053 290.601 197.712 291.591 198.919 292.251L220.643 304.79C223.166 306.22 227.336 306.22 229.859 304.79L251.583 292.251C252.79 291.481 253.448 290.601 253.448 289.611C253.339 289.721 253.339 289.721 253.339 289.611Z" fill="url(#paint7_linear)"/>
<path opacity="0.3" d="M246.536 288.071L230.957 297.201L225.032 299.29V306C226.678 306 228.323 305.67 229.64 304.9L251.364 292.361C252.571 291.591 253.229 290.711 253.229 289.721V289.611V284.661L252.022 284.001H251.913C251.583 286.311 248.841 287.851 246.536 288.071Z" fill="#0F054C"/>
<g opacity="0.3">
<path opacity="0.3" d="M220.533 299.95L198.809 287.411C196.286 285.981 196.286 283.561 198.809 282.022L220.533 269.482C223.057 268.052 227.226 268.052 229.75 269.482L251.474 282.022C253.997 283.451 253.997 285.871 251.474 287.411L229.75 299.95C227.226 301.38 223.057 301.38 220.533 299.95Z" fill="url(#paint8_linear)"/>
</g>
<g opacity="0.3">
<path opacity="0.3" d="M220.533 299.95L198.809 287.411C196.286 285.981 196.286 283.561 198.809 282.022L220.533 269.482C223.057 268.052 227.226 268.052 229.75 269.482L251.474 282.022C253.997 283.451 253.997 285.871 251.474 287.411L229.75 299.95C227.226 301.38 223.057 301.38 220.533 299.95Z" fill="#0F054C"/>
</g>
</g>
<path d="M225.142 281.692C223.606 281.692 222.179 281.362 221.082 280.702L199.358 268.162C198.261 267.502 197.603 266.623 197.603 265.633C197.603 264.643 198.261 263.763 199.358 263.103L221.082 250.564C223.386 249.244 227.007 249.244 229.311 250.564L251.035 263.103C252.132 263.763 252.791 264.643 252.791 265.633C252.791 266.623 252.132 267.502 251.035 268.162L229.311 280.702C228.104 281.362 226.568 281.692 225.142 281.692ZM221.192 280.372C223.386 281.582 226.787 281.582 228.982 280.372L250.706 267.832C251.693 267.283 252.242 266.513 252.242 265.633C252.242 264.863 251.693 264.093 250.706 263.433L228.982 250.894C226.787 249.684 223.386 249.684 221.192 250.894L199.468 263.433C198.48 263.983 197.932 264.753 197.932 265.633C197.932 266.403 198.48 267.173 199.468 267.832L221.192 280.372Z" fill="#42E8E0"/>
<path opacity="0.4" d="M253.339 260.793V253.313L252.022 252.544C251.693 254.853 248.95 256.393 246.646 256.723L231.066 265.853L224.263 268.272L202.649 257.053L203.198 256.723C201.332 255.843 200.345 253.863 199.358 252.104L197.931 252.983L197.053 253.203V260.793C197.053 261.783 197.712 262.773 198.919 263.433L220.533 276.082C223.057 277.512 227.226 277.512 229.749 276.082L251.474 263.543C252.68 262.773 253.339 261.893 253.339 260.903C253.339 260.903 253.339 260.903 253.339 260.793Z" fill="#42E8E0"/>
<path d="M253.339 254.193V249.244L252.022 248.474C251.693 250.784 248.95 252.323 246.646 252.653L231.066 261.783L224.263 264.203L202.649 252.983L203.198 252.653C201.332 251.774 200.345 249.794 199.358 248.034L197.931 248.914L197.053 249.134V254.193C197.053 255.183 197.712 256.173 198.919 256.833L220.533 269.482C223.057 270.912 227.226 270.912 229.749 269.482L251.474 256.943C252.68 256.173 253.339 255.293 253.339 254.303V254.193Z" fill="url(#paint9_linear)"/>
<path opacity="0.3" d="M246.536 252.653L230.957 261.783L225.032 263.873V270.582C226.678 270.582 228.323 270.252 229.64 269.482L251.364 256.943C252.571 256.173 253.229 255.293 253.229 254.303V254.193V249.244L252.022 248.584H251.913C251.583 250.894 248.841 252.323 246.536 252.653Z" fill="#0F054C"/>
<path d="M220.533 264.533L198.809 251.883C196.286 250.454 196.286 248.034 198.809 246.494L220.533 233.955C223.057 232.525 227.226 232.525 229.75 233.955L251.474 246.494C253.997 247.924 253.997 250.344 251.474 251.773L229.75 264.313C227.226 265.963 223.057 265.963 220.533 264.533Z" fill="url(#paint10_linear)"/>
<path d="M225.142 262.223C223.825 262.223 222.508 261.893 221.411 261.343L204.405 251.554C203.417 251.004 202.869 250.124 202.869 249.354C202.869 248.474 203.417 247.704 204.405 247.154L221.411 237.365C223.496 236.155 226.787 236.155 228.762 237.365L245.769 247.154C246.756 247.704 247.305 248.584 247.305 249.354C247.305 250.234 246.756 251.004 245.769 251.554L228.762 261.343C227.775 261.893 226.458 262.223 225.142 262.223ZM221.631 261.013C223.606 262.113 226.678 262.113 228.653 261.013L245.659 251.224C246.537 250.674 247.085 250.014 247.085 249.354C247.085 248.584 246.537 247.924 245.659 247.484L228.653 237.694C226.678 236.595 223.606 236.595 221.631 237.694L204.624 247.484C203.747 248.034 203.198 248.694 203.198 249.354C203.198 250.124 203.747 250.784 204.624 251.224L221.631 261.013Z" fill="#5351AF"/>
<path d="M251.474 251.884L229.75 264.423C227.226 265.853 223.057 265.853 220.534 264.423L198.809 251.884C197.712 251.224 197.054 250.344 196.944 249.574C196.835 250.674 197.383 251.774 198.809 252.543L220.534 265.083C223.057 266.513 227.226 266.513 229.75 265.083L251.474 252.543C252.9 251.774 253.559 250.674 253.339 249.574C253.229 250.454 252.571 251.224 251.474 251.884Z" fill="white"/>
<g opacity="0.3">
<path opacity="0.3" d="M67.6957 114.723V109.773L66.379 109.003C66.0499 111.313 63.3069 112.853 61.0029 113.183L45.4229 122.312L38.6204 124.732L17.006 113.513L17.5546 113.183C15.6894 112.303 14.7019 110.323 13.7145 108.563L12.2881 109.443L11.4104 109.663V114.723C11.4104 115.712 12.0687 116.702 13.2756 117.362L34.9997 129.902C37.5233 131.331 41.6925 131.331 44.216 129.902L65.8305 117.472C67.0374 116.702 67.6957 115.822 67.6957 114.833C67.6957 114.833 67.6957 114.833 67.6957 114.723Z" fill="url(#paint11_linear)"/>
<path opacity="0.3" d="M61.003 113.293L45.4231 122.422L39.4983 124.512V131.221C41.1441 131.221 42.7898 130.891 44.1064 130.121L65.8306 117.472C67.0375 116.702 67.6958 115.822 67.6958 114.832V114.722V109.773L66.4889 109.113H66.3792C65.9403 111.423 63.1973 112.963 61.003 113.293Z" fill="#0F054C"/>
<g opacity="0.3">
<path opacity="0.3" d="M34.8902 125.062L13.1661 112.523C10.6426 111.093 10.6426 108.673 13.1661 107.133L34.8902 94.5938C37.4137 93.1639 41.583 93.1639 44.1065 94.5938L65.8306 107.133C68.3542 108.563 68.3542 110.983 65.8306 112.523L44.1065 125.062C41.583 126.492 37.4137 126.492 34.8902 125.062Z" fill="url(#paint12_linear)"/>
</g>
<g opacity="0.3">
<path opacity="0.3" d="M34.8902 125.062L13.1661 112.523C10.6426 111.093 10.6426 108.673 13.1661 107.133L34.8902 94.5938C37.4137 93.1639 41.583 93.1639 44.1065 94.5938L65.8306 107.133C68.3542 108.563 68.3542 110.983 65.8306 112.523L44.1065 125.062C41.583 126.492 37.4137 126.492 34.8902 125.062Z" fill="#0F054C"/>
</g>
</g>
<path d="M39.4987 109.993C37.9626 109.993 36.5363 109.663 35.4391 109.003L13.715 96.4637C12.6178 95.8037 11.9595 94.9238 11.9595 93.9338C11.9595 92.9439 12.6178 92.064 13.715 91.404L35.4391 78.8648C37.7432 77.5449 41.3639 77.5449 43.6679 78.8648L65.3921 91.404C66.4893 92.064 67.1476 92.9439 67.1476 93.9338C67.1476 94.9238 66.4893 95.8037 65.3921 96.4637L43.5582 109.003C42.4611 109.663 41.0347 109.993 39.4987 109.993ZM39.4987 78.3149C38.0723 78.3149 36.646 78.6449 35.5488 79.1948L13.9344 91.844C12.9469 92.3939 12.3983 93.1639 12.3983 94.0438C12.3983 94.8138 12.9469 95.5837 13.9344 96.2437L35.6585 108.783C37.8529 109.993 41.2542 109.993 43.4485 108.783L65.1727 96.2437C66.1601 95.6937 66.7087 94.9238 66.7087 94.0438C66.7087 93.2739 66.1601 92.5039 65.1727 91.844L43.4485 79.3048C42.3513 78.6449 40.925 78.3149 39.4987 78.3149Z" fill="#42E8E0"/>
<path opacity="0.4" d="M67.6958 89.2041V81.7246L66.3792 80.9547C66.05 83.2645 63.3071 84.8044 61.003 85.1344L45.423 94.2638L38.6205 96.6836L17.0061 85.4644L17.5547 85.1344C15.6895 84.2544 14.702 82.2746 13.7146 80.5147L12.1785 81.3946L11.3008 81.6146V89.2041C11.3008 90.194 11.9591 91.184 13.166 91.8439L34.8901 104.493C37.4136 105.923 41.5829 105.923 44.1064 104.493L65.8306 91.9539C67.0375 91.184 67.6958 90.304 67.6958 89.3141C67.6958 89.2041 67.6958 89.2041 67.6958 89.2041Z" fill="#42E8E0"/>
<path d="M67.6957 82.4946V77.5449L66.379 76.775C66.0499 79.0848 63.3069 80.6247 61.0029 80.9547L45.4229 90.1941L38.6204 92.6139L17.006 81.3947L17.5546 81.0647C15.6894 80.1847 14.7019 78.2049 13.7145 76.445L12.2881 77.3249L11.4104 77.5449V82.6046C11.4104 83.5945 12.0687 84.5845 13.2756 85.2444L34.89 97.8936C37.4135 99.3235 41.5828 99.3235 44.1063 97.8936L65.8305 85.2444C67.0374 84.4745 67.6957 83.5945 67.6957 82.6046C67.6957 82.6046 67.6957 82.6046 67.6957 82.4946Z" fill="url(#paint13_linear)"/>
<path opacity="0.3" d="M61.003 81.0647L45.4231 90.1941L39.4983 92.2839V98.9935C41.1441 98.9935 42.7898 98.6635 44.1064 97.8936L65.8306 85.2444C67.0375 84.4745 67.6958 83.5945 67.6958 82.6046V82.4946V77.5449L66.4889 76.8849H66.3792C65.9403 79.1948 63.1973 80.7347 61.003 81.0647Z" fill="#0F054C"/>
<path d="M17.4449 81.0647L37.9621 69.1855C38.7301 68.7455 40.0467 68.7455 40.9245 69.1855L61.1126 80.8447L60.8931 80.9547C63.1972 80.6247 65.9401 79.0848 66.2693 76.775L43.6674 64.2358L37.0843 62.4759L31.7082 65.6657L13.6047 76.445C14.5922 78.3149 15.5797 80.2948 17.4449 81.0647Z" fill="url(#paint14_linear)"/>
<path opacity="0.3" d="M39.4982 63.1359L37.0844 62.4759L31.7082 65.6657L13.6047 76.445C14.5922 78.2049 15.5797 80.1848 17.4449 81.0647L37.9621 69.1855C38.401 68.9655 38.9496 68.8555 39.3884 68.8555V63.1359H39.4982Z" fill="#0F054C"/>
<path d="M34.8902 92.8339L13.1661 80.2947C10.6426 78.8648 10.6426 76.445 13.1661 74.9051L34.8902 62.3659C37.4137 60.936 41.583 60.936 44.1065 62.3659L65.8306 74.9051C68.3542 76.335 68.3542 78.7548 65.8306 80.1847L44.1065 92.8339C41.583 94.2638 37.4137 94.2638 34.8902 92.8339ZM41.0344 64.2358C40.2664 63.7958 38.9498 63.7958 38.072 64.2358L16.3479 76.775C15.5799 77.2149 15.5799 77.9849 16.3479 78.5349L38.072 91.074C38.8401 91.514 40.1567 91.514 41.0344 91.074L62.7585 78.5349C63.5266 78.0949 63.5266 77.3249 62.7585 76.775L41.0344 64.2358Z" fill="url(#paint15_linear)"/>
<path d="M62.6487 76.775L41.0343 64.2358C40.2663 63.7958 38.9496 63.7958 38.0719 64.2358L16.3478 76.775C15.7992 77.105 15.5797 77.5449 15.7992 77.9849C15.9089 77.7649 16.0186 77.5449 16.3478 77.435L38.0719 64.8958C38.8399 64.4558 40.1565 64.4558 41.0343 64.8958L62.7584 77.435C62.9778 77.5449 63.1973 77.7649 63.307 77.9849C63.4167 77.5449 63.1973 77.105 62.6487 76.775Z" fill="white"/>
<path d="M65.8307 80.2948L44.1066 92.8339C41.5831 94.2638 37.4138 94.2638 34.8903 92.8339L13.1661 80.2948C12.069 79.6348 11.4107 78.7549 11.3009 77.9849C11.1912 79.0848 11.7398 80.1848 13.1661 80.9547L34.8903 93.4939C37.4138 94.9238 41.5831 94.9238 44.1066 93.4939L65.8307 80.8447C67.2571 80.0748 67.9154 78.9749 67.6959 77.8749C67.5862 78.7549 66.9279 79.6348 65.8307 80.2948Z" fill="white"/>
<path d="M35.5484 92.5039L13.8242 79.9647C11.6299 78.6448 11.6299 76.6649 13.8242 75.345L35.5484 62.6959C37.7427 61.376 41.3634 61.376 43.5578 62.6959L65.2819 75.235C67.4763 76.555 67.4763 78.5348 65.2819 79.8547L43.5578 92.5039C41.2537 93.7138 37.7427 93.7138 35.5484 92.5039ZM41.5829 63.7958C40.4857 63.1358 38.5108 63.1358 37.4136 63.7958L15.6894 76.445C14.5923 77.1049 14.5923 78.2048 15.6894 78.8648L37.4136 91.404C38.5108 92.0639 40.4857 92.0639 41.5829 91.404L63.307 78.8648C64.4042 78.2048 64.4042 77.1049 63.307 76.445L41.5829 63.7958Z" fill="url(#paint16_linear)"/>
<path opacity="0.4" d="M41.0343 64.2358C40.2662 63.7958 38.9496 63.7958 38.0719 64.2358L16.3477 76.775C15.5797 77.215 15.5797 77.9849 16.3477 78.5349L38.0719 91.0741C38.8399 91.514 40.1565 91.514 41.0343 91.0741L62.7584 78.5349C63.5264 78.0949 63.5264 77.325 62.7584 76.775L41.0343 64.2358Z" fill="#42E8E0"/>
<path opacity="0.5" d="M63.307 77.5449V0H15.6895V77.5449C15.6895 77.8749 15.9089 78.2049 16.3478 78.4249L38.0719 90.964C38.8399 91.404 40.1565 91.404 41.0343 90.964L62.7584 78.4249C63.0876 78.2049 63.307 77.8749 63.307 77.5449Z" fill="url(#paint17_linear)"/>
<path d="M212.085 139.361C212.085 127.042 203.527 112.193 192.884 106.033C187.618 102.953 182.79 102.623 179.279 104.713L175.659 106.803L176.756 106.913C174.89 109.223 173.684 112.743 173.684 117.142C173.684 129.461 182.242 144.311 192.884 150.47C196.505 152.56 199.906 153.33 202.869 153L202.759 153.99L206.489 151.79L206.599 151.68C210 149.7 212.085 145.41 212.085 139.361Z" fill="#9FFFF8"/>
<path d="M202.711 154.002C210.215 149.659 210.232 135.604 202.748 122.61C195.265 109.616 183.115 102.603 175.611 106.947C168.107 111.29 168.09 125.345 175.574 138.339C183.057 151.333 195.207 158.346 202.711 154.002Z" fill="#42E8E0"/>
<path d="M167.211 86.3443C174.342 76.335 175.988 59.1761 170.831 48.0668C168.308 42.4572 164.577 39.4874 160.518 39.0474L156.348 38.7174L157.116 39.3774C154.154 40.1473 151.301 42.3472 148.778 45.977C141.646 55.9863 140 73.1452 145.157 84.2544C146.913 88.1042 149.217 90.744 151.74 92.0639L151.082 92.8339L155.361 93.1639H155.58C159.53 93.6038 163.7 91.294 167.211 86.3443Z" fill="#9FFFF8"/>
<path d="M169.409 67.278C170.84 52.3425 165.008 39.5614 156.383 38.7307C147.758 37.9 139.605 49.3342 138.174 64.2698C136.743 79.2054 142.574 91.9865 151.2 92.8172C159.825 93.6479 167.978 82.2136 169.409 67.278Z" fill="#42E8E0"/>
<g opacity="0.1">
<path opacity="0.1" d="M173.683 167.079C173.683 154.76 165.125 139.911 154.483 133.751C149.216 130.671 144.389 130.341 140.878 132.431L137.257 134.521L138.354 134.631C136.489 136.941 135.282 140.461 135.282 144.861C135.282 157.18 143.84 172.029 154.483 178.188C158.103 180.278 161.505 181.048 164.467 180.718L164.357 181.708L168.088 179.508L168.197 179.398C171.599 177.418 173.683 173.129 173.683 167.079Z" fill="#9FFFF8"/>
<path opacity="0.1" d="M164.401 181.68C171.905 177.337 171.922 163.282 164.439 150.288C156.955 137.294 144.805 130.282 137.301 134.625C129.797 138.968 129.78 153.023 137.264 166.017C144.748 179.011 156.897 186.024 164.401 181.68Z" fill="#42E8E0"/>
</g>
<path opacity="0.4" d="M152.069 187.098C138.793 187.098 125.627 184.128 115.533 178.298C105.768 172.579 100.392 165.099 100.392 157.07C100.392 149.04 105.768 141.451 115.533 135.841C135.721 124.182 168.527 124.182 188.605 135.841C198.37 141.561 203.746 149.04 203.746 157.07C203.746 165.099 198.37 172.689 188.605 178.298L188.496 178.078L188.605 178.298C178.511 184.238 165.345 187.098 152.069 187.098ZM152.069 127.482C138.903 127.482 125.737 130.341 115.753 136.171C106.097 141.781 100.721 149.15 100.721 157.07C100.721 164.989 106.097 172.359 115.753 177.968C135.831 189.628 168.417 189.628 188.496 177.968C198.151 172.359 203.527 164.989 203.527 157.07C203.527 149.15 198.151 141.781 188.496 136.171C178.401 130.341 165.235 127.482 152.069 127.482Z" fill="#42E8E0"/>
<path opacity="0.2" d="M152.069 195.237C135.282 195.237 118.495 191.497 105.658 184.128C93.2599 176.978 86.3477 167.409 86.3477 157.18C86.3477 146.95 93.1502 137.381 105.658 130.232C131.222 115.382 172.805 115.382 198.37 130.232C210.768 137.381 217.68 146.95 217.68 157.18C217.68 167.409 210.877 176.978 198.37 184.128C185.642 191.497 168.855 195.237 152.069 195.237ZM152.069 119.452C135.392 119.452 118.605 123.082 105.877 130.561C93.589 137.711 86.7865 147.17 86.7865 157.18C86.7865 167.189 93.589 176.648 105.877 183.798C131.332 198.537 172.805 198.537 198.26 183.798C210.548 176.648 217.351 167.189 217.351 157.18C217.351 147.17 210.548 137.711 198.26 130.561C185.533 123.082 168.746 119.452 152.069 119.452Z" fill="#42E8E0"/>
<path d="M152.069 180.828C141.646 180.828 131.223 178.518 123.213 173.899C115.533 169.389 111.254 163.449 111.254 157.07C111.254 150.69 115.533 144.751 123.213 140.241C139.122 131.001 164.906 131.001 180.815 140.241C188.496 144.751 192.775 150.69 192.775 157.07C192.775 163.449 188.496 169.389 180.815 173.899L180.706 173.679L180.815 173.899C172.916 178.518 162.492 180.828 152.069 180.828ZM152.069 133.861C141.756 133.861 131.333 136.171 123.433 140.681C115.862 145.081 111.583 150.91 111.583 157.18C111.583 163.449 115.753 169.279 123.433 173.679C139.232 182.808 164.906 182.808 180.706 173.679C188.276 169.279 192.555 163.449 192.555 157.18C192.555 151.02 188.386 145.081 180.706 140.681C172.806 136.061 162.383 133.861 152.069 133.861Z" fill="#42E8E0"/>
<path d="M173.683 167.079C173.683 154.76 165.125 139.911 154.483 133.751C149.216 130.671 144.389 130.341 140.878 132.431L137.257 134.521L138.354 134.631C136.489 136.941 135.282 140.461 135.282 144.861C135.282 157.18 143.84 172.029 154.483 178.188C158.103 180.278 161.505 181.048 164.467 180.718L164.357 181.708L168.088 179.508L168.197 179.398C171.599 177.418 173.683 173.129 173.683 167.079Z" fill="#9FFFF8"/>
<path d="M164.401 181.68C171.905 177.337 171.922 163.282 164.439 150.288C156.955 137.294 144.805 130.282 137.301 134.625C129.797 138.968 129.78 153.023 137.264 166.017C144.748 179.011 156.897 186.024 164.401 181.68Z" fill="#42E8E0"/>
<path opacity="0.4" d="M100.502 220.206L40.2666 185.338C38.5111 184.348 38.5111 181.708 40.2666 180.718L49.4829 175.329C52.555 173.569 56.3951 173.569 59.4672 175.329L119.702 210.196C121.458 211.186 121.458 213.826 119.702 214.816L110.486 220.206C107.414 221.966 103.574 221.966 100.502 220.206Z" fill="#24126A"/>
<path d="M70.3296 184.568L60.7842 178.958L62.6494 177.858L72.3046 183.468L70.3296 184.568Z" fill="#42E8E0"/>
<path d="M97.5395 200.627L94.5771 198.977L96.5521 197.877L99.5144 199.527L97.5395 200.627Z" fill="#42E8E0"/>
<path d="M75.9253 187.868L72.9629 186.108L74.9378 185.008L77.9002 186.768L75.9253 187.868Z" fill="#42E8E0"/>
<path d="M105.549 213.276C103.793 213.276 102.038 212.836 100.502 211.956L40.2667 177.088C39.3889 176.538 38.8403 175.659 38.8403 174.559C38.8403 173.459 39.3889 172.579 40.2667 172.029L49.483 166.639C52.6648 164.879 56.5049 164.879 59.6867 166.639L119.922 201.507C120.8 202.057 121.348 202.937 121.348 204.037C121.348 205.137 120.8 206.017 119.922 206.566L110.706 211.956C109.06 212.836 107.304 213.276 105.549 213.276ZM54.4203 165.649C52.7745 165.649 51.019 166.089 49.5927 166.969L40.3764 172.359C39.6084 172.799 39.1695 173.569 39.1695 174.449C39.1695 175.329 39.6084 176.098 40.3764 176.538L100.611 211.406C103.574 213.166 107.304 213.166 110.376 211.406L119.593 206.017C120.361 205.577 120.8 204.807 120.8 203.927C120.8 203.047 120.361 202.277 119.593 201.837L59.3576 166.969C57.8215 166.089 56.1758 165.649 54.4203 165.649Z" fill="#42E8E0"/>
</g>
<defs>
<linearGradient id="paint0_linear" x1="0.217861" y1="167.29" x2="318.717" y2="167.29" gradientUnits="userSpaceOnUse">
<stop stop-color="#BCBEFF"/>
<stop offset="0.151" stop-color="#A3A7F5"/>
<stop offset="0.3866" stop-color="#8289E8"/>
<stop offset="0.6124" stop-color="#6A73DF"/>
<stop offset="0.8221" stop-color="#5C66D9"/>
<stop offset="1" stop-color="#5761D7"/>
</linearGradient>
<linearGradient id="paint1_linear" x1="203.829" y1="212.463" x2="114.638" y2="94.3992" gradientUnits="userSpaceOnUse">
<stop stop-color="#42E8E0"/>
<stop offset="0.1055" stop-color="#37B6BF"/>
<stop offset="0.2197" stop-color="#2C87A1"/>
<stop offset="0.338" stop-color="#235F87"/>
<stop offset="0.4587" stop-color="#1C3F72"/>
<stop offset="0.5824" stop-color="#162561"/>
<stop offset="0.7105" stop-color="#121355"/>
<stop offset="0.8458" stop-color="#10084E"/>
<stop offset="1" stop-color="#0F054C"/>
</linearGradient>
<radialGradient id="paint2_radial" cx="0" cy="0" r="1" gradientUnits="userSpaceOnUse" gradientTransform="translate(151.563 156.343) scale(249.291 249.915)">
<stop stop-color="#42E8E0"/>
<stop offset="0.1055" stop-color="#37B6BF"/>
<stop offset="0.2197" stop-color="#2C87A1"/>
<stop offset="0.338" stop-color="#235F87"/>
<stop offset="0.4587" stop-color="#1C3F72"/>
<stop offset="0.5824" stop-color="#162561"/>
<stop offset="0.7105" stop-color="#121355"/>
<stop offset="0.8458" stop-color="#10084E"/>
<stop offset="1" stop-color="#0F054C"/>
</radialGradient>
<linearGradient id="paint3_linear" x1="299.147" y1="245.59" x2="343.978" y2="271.409" gradientUnits="userSpaceOnUse">
<stop stop-color="#BCBEFF"/>
<stop offset="0.2271" stop-color="#AAADF8"/>
<stop offset="0.6802" stop-color="#7C83E5"/>
<stop offset="1" stop-color="#5761D7"/>
</linearGradient>
<linearGradient id="paint4_linear" x1="293.532" y1="255.386" x2="349.966" y2="255.386" gradientUnits="userSpaceOnUse">
<stop stop-color="#E9E9FD"/>
<stop offset="0.3601" stop-color="#D3D2F9"/>
<stop offset="0.7062" stop-color="#C5C4F7"/>
<stop offset="1" stop-color="#C0BFF6"/>
</linearGradient>
<linearGradient id="paint5_linear" x1="299.146" y1="212.55" x2="343.978" y2="238.369" gradientUnits="userSpaceOnUse">
<stop stop-color="#BCBEFF"/>
<stop offset="0.2271" stop-color="#AAADF8"/>
<stop offset="0.6802" stop-color="#7C83E5"/>
<stop offset="1" stop-color="#5761D7"/>
</linearGradient>
<linearGradient id="paint6_linear" x1="293.532" y1="222.346" x2="349.966" y2="222.346" gradientUnits="userSpaceOnUse">
<stop stop-color="#E9E9FD"/>
<stop offset="0.3601" stop-color="#D3D2F9"/>
<stop offset="0.7062" stop-color="#C5C4F7"/>
<stop offset="1" stop-color="#C0BFF6"/>
</linearGradient>
<linearGradient id="paint7_linear" x1="202.52" y1="274.905" x2="247.351" y2="300.724" gradientUnits="userSpaceOnUse">
<stop stop-color="#BCBEFF"/>
<stop offset="0.2271" stop-color="#AAADF8"/>
<stop offset="0.6802" stop-color="#7C83E5"/>
<stop offset="1" stop-color="#5761D7"/>
</linearGradient>
<linearGradient id="paint8_linear" x1="196.905" y1="284.701" x2="253.339" y2="284.701" gradientUnits="userSpaceOnUse">
<stop stop-color="#E9E9FD"/>
<stop offset="0.3601" stop-color="#D3D2F9"/>
<stop offset="0.7062" stop-color="#C5C4F7"/>
<stop offset="1" stop-color="#C0BFF6"/>
</linearGradient>
<linearGradient id="paint9_linear" x1="202.52" y1="239.467" x2="247.351" y2="265.286" gradientUnits="userSpaceOnUse">
<stop stop-color="#BCBEFF"/>
<stop offset="0.2271" stop-color="#AAADF8"/>
<stop offset="0.6802" stop-color="#7C83E5"/>
<stop offset="1" stop-color="#5761D7"/>
</linearGradient>
<linearGradient id="paint10_linear" x1="196.905" y1="249.264" x2="253.339" y2="249.264" gradientUnits="userSpaceOnUse">
<stop stop-color="#E9E9FD"/>
<stop offset="0.3601" stop-color="#D3D2F9"/>
<stop offset="0.7062" stop-color="#C5C4F7"/>
<stop offset="1" stop-color="#C0BFF6"/>
</linearGradient>
<linearGradient id="paint11_linear" x1="16.9125" y1="100.033" x2="61.7441" y2="125.852" gradientUnits="userSpaceOnUse">
<stop stop-color="#BCBEFF"/>
<stop offset="0.2271" stop-color="#AAADF8"/>
<stop offset="0.6802" stop-color="#7C83E5"/>
<stop offset="1" stop-color="#5761D7"/>
</linearGradient>
<linearGradient id="paint12_linear" x1="11.2983" y1="109.829" x2="67.7324" y2="109.829" gradientUnits="userSpaceOnUse">
<stop stop-color="#E9E9FD"/>
<stop offset="0.3601" stop-color="#D3D2F9"/>
<stop offset="0.7062" stop-color="#C5C4F7"/>
<stop offset="1" stop-color="#C0BFF6"/>
</linearGradient>
<linearGradient id="paint13_linear" x1="16.9126" y1="67.8196" x2="61.7441" y2="93.6384" gradientUnits="userSpaceOnUse">
<stop stop-color="#BCBEFF"/>
<stop offset="0.2271" stop-color="#AAADF8"/>
<stop offset="0.6802" stop-color="#7C83E5"/>
<stop offset="1" stop-color="#5761D7"/>
</linearGradient>
<linearGradient id="paint14_linear" x1="19.5997" y1="66.0743" x2="59.5806" y2="89.0996" gradientUnits="userSpaceOnUse">
<stop offset="0.2421" stop-color="#5761D7"/>
<stop offset="0.3923" stop-color="#7A82E5"/>
<stop offset="0.5463" stop-color="#979CF0"/>
<stop offset="0.7" stop-color="#ACAFF8"/>
<stop offset="0.8519" stop-color="#B8BAFD"/>
<stop offset="1" stop-color="#BCBEFF"/>
</linearGradient>
<linearGradient id="paint15_linear" x1="11.2983" y1="77.6158" x2="67.7324" y2="77.6158" gradientUnits="userSpaceOnUse">
<stop stop-color="#E9E9FD"/>
<stop offset="0.3601" stop-color="#D3D2F9"/>
<stop offset="0.7062" stop-color="#C5C4F7"/>
<stop offset="1" stop-color="#C0BFF6"/>
</linearGradient>
<linearGradient id="paint16_linear" x1="12.1645" y1="77.6157" x2="66.8658" y2="77.6157" gradientUnits="userSpaceOnUse">
<stop stop-color="#E9E9FD"/>
<stop offset="0.3601" stop-color="#D3D2F9"/>
<stop offset="0.7062" stop-color="#C5C4F7"/>
<stop offset="1" stop-color="#C0BFF6"/>
</linearGradient>
<linearGradient id="paint17_linear" x1="39.5139" y1="91.3846" x2="39.5139" y2="0" gradientUnits="userSpaceOnUse">
<stop stop-color="#42E8E0"/>
<stop offset="0.1055" stop-color="#37B6BF"/>
<stop offset="0.2197" stop-color="#2C87A1"/>
<stop offset="0.338" stop-color="#235F87"/>
<stop offset="0.4587" stop-color="#1C3F72"/>
<stop offset="0.5824" stop-color="#162561"/>
<stop offset="0.7105" stop-color="#121355"/>
<stop offset="0.8458" stop-color="#10084E"/>
<stop offset="1" stop-color="#0F054C"/>
</linearGradient>
<clipPath id="clip0">
<rect width="350" height="306" fill="white"/>
</clipPath>
</defs>
</svg>
