<svg width="594" height="418" viewBox="0 0 594 418" fill="none" xmlns="http://www.w3.org/2000/svg">
<path d="M352.476 117.475V106.106H326.773L317.876 100.999C315.899 99.8455 312.274 100.01 309.967 101.328L301.729 106.106H276.026V117.804C276.026 118.628 276.356 119.287 277.344 119.946L310.626 139.059C312.603 140.212 316.228 140.047 318.535 138.729L350.663 120.276C351.981 119.452 352.64 118.464 352.476 117.475Z" fill="#173D7A"/>
<path d="M314.416 100.175C312.933 100.175 311.45 100.504 310.132 101.328L301.894 106.106H276.191V117.804C276.191 118.628 276.521 119.287 277.509 119.946L310.627 139.059C311.615 139.553 312.933 139.882 314.251 139.882V100.175H314.416Z" fill="url(#paint0_linear)"/>
<path d="M279.157 106.107H276.191V117.805C276.191 118.628 276.521 119.287 277.509 119.947L278.992 120.77V106.107H279.157Z" fill="#5793CE"/>
<path d="M311.121 139.223C312.933 140.047 315.404 139.883 317.382 139.223V125.878H311.121V139.223Z" fill="#5793CE"/>
<path d="M310.625 127.361L277.508 108.248C275.531 107.095 275.696 104.953 278.002 103.635L309.966 85.1817C312.273 83.8636 315.897 83.6989 317.875 84.8522L350.992 103.965C352.969 105.118 352.804 107.26 350.497 108.578L318.534 127.031C316.227 128.349 312.767 128.514 310.625 127.361Z" fill="url(#paint1_linear)"/>
<path d="M350.663 106.271L318.699 124.724C316.393 126.042 312.768 126.207 310.791 125.054L277.674 105.942C277.18 105.612 276.85 105.447 276.685 105.118C276.026 106.271 276.356 107.424 277.674 108.248L310.626 127.361C312.603 128.514 316.228 128.349 318.535 127.031L350.498 108.578C352.311 107.589 352.805 106.106 352.146 104.953C351.816 105.283 351.322 105.777 350.663 106.271Z" fill="white"/>
<path d="M340.283 120.441C340.283 121.264 339.624 122.253 338.965 122.747C338.306 123.242 337.647 122.747 337.647 121.923C337.647 121.1 338.306 120.111 338.965 119.617C339.789 119.287 340.283 119.617 340.283 120.441Z" fill="#D4ECFF"/>
<path d="M344.567 117.969C344.567 118.793 343.908 119.782 343.249 120.276C342.59 120.77 341.931 120.276 341.931 119.452C341.931 118.628 342.59 117.64 343.249 117.145C344.073 116.816 344.567 117.145 344.567 117.969Z" fill="#FF2C9C"/>
<path d="M349.016 115.498C349.016 116.321 348.357 117.31 347.697 117.804C347.038 118.299 346.379 117.804 346.379 116.981C346.379 116.157 347.038 115.168 347.697 114.674C348.357 114.344 349.016 114.674 349.016 115.498Z" fill="#D4ECFF"/>
<path d="M312.603 115.498L297.115 106.601C296.127 106.106 296.292 105.118 297.445 104.459L312.438 95.8911C313.592 95.2321 315.239 95.2321 316.228 95.7264L331.715 104.623C332.704 105.118 332.539 106.106 331.386 106.765L316.393 115.333C315.239 115.992 313.592 115.992 312.603 115.498Z" fill="#5793CE"/>
<path d="M314.086 107.919L311.944 106.601C311.78 106.601 311.78 106.436 311.944 106.271L314.086 105.118C314.251 104.953 314.416 104.953 314.581 105.118L316.722 106.436C316.887 106.436 316.887 106.601 316.722 106.765L314.581 107.919C314.416 108.084 314.251 108.084 314.086 107.919Z" fill="#D4ECFF"/>
<path d="M297.116 106.436C297.28 106.436 297.28 106.436 297.445 106.271L312.438 97.7036C313.592 97.0445 315.239 97.0445 316.228 97.5388L331.716 106.436C332.539 105.777 332.704 104.953 331.716 104.459L316.228 95.5617C315.239 95.0674 313.592 95.0674 312.438 95.7264L297.445 104.294C296.292 104.953 296.127 105.942 297.116 106.436Z" fill="#396CAA"/>
<path d="M532.066 241.211C531.572 241.211 531.077 241.046 530.748 240.881L491.699 218.309C490.381 217.485 489.887 215.838 490.711 214.684C491.535 213.366 493.182 212.872 494.336 213.696L533.384 236.268C534.702 237.092 535.196 238.739 534.373 239.893C534.043 240.717 533.055 241.211 532.066 241.211Z" fill="url(#paint2_linear)"/>
<path d="M452.98 195.572C452.486 195.572 451.991 195.407 451.662 195.242L411.625 172.176C410.307 171.352 409.812 169.704 410.636 168.551C411.46 167.233 413.108 166.739 414.261 167.562L454.298 190.629C455.616 191.453 456.11 193.1 455.287 194.254C454.957 195.078 453.968 195.572 452.98 195.572Z" fill="url(#paint3_linear)"/>
<path d="M372.906 149.274C372.412 149.274 371.918 149.109 371.588 148.944L332.54 126.372C331.221 125.548 330.727 123.9 331.551 122.747C332.375 121.429 334.022 120.935 335.176 121.759L374.224 144.331C375.542 145.155 376.037 146.802 375.213 147.956C374.718 148.779 373.895 149.274 372.906 149.274Z" fill="url(#paint4_linear)"/>
<path d="M189.691 267.573L291.349 208.918L176.84 214.355L169.755 221.11L168.107 231.325L169.261 238.245L172.721 246.648L176.016 253.238L179.97 258.346L189.691 267.573Z" fill="url(#paint5_linear)"/>
<path d="M275.038 155.535C275.202 155.37 275.367 155.37 275.532 155.205C279.651 153.063 285.088 153.393 291.184 156.853L429.913 236.927C429.254 237.421 428.76 237.916 428.266 238.41L422.993 235.444L394.984 296.406L380.485 316.177L370.929 319.473L361.373 315.683L315.239 289.486L223.797 237.092L190.35 217.32L181.618 214.519L173.709 214.025L275.038 155.535Z" fill="#D4ECFF"/>
<path d="M384.769 304.644C384.769 290.31 374.718 272.68 362.196 265.596V268.067C373.4 274.493 382.627 290.475 382.627 303.491C382.627 316.507 373.4 321.779 362.196 315.354L189.691 215.838C183.43 212.213 177.828 211.883 173.709 214.19L275.038 155.7C275.202 155.535 275.367 155.535 275.532 155.37C279.651 153.228 285.088 153.558 291.184 157.018L429.913 237.092C429.254 237.586 428.76 238.08 428.266 238.575L422.993 235.609L394.984 296.571L383.451 312.388C384.274 310.081 384.769 307.61 384.769 304.644Z" fill="url(#paint6_linear)"/>
<path d="M384.769 303.161C384.769 303.491 384.769 303.656 384.769 303.82C384.604 296.571 381.968 288.827 377.849 281.742C378.013 281.577 378.178 281.577 378.343 281.413C382.297 288.497 384.769 296.241 384.769 303.161Z" fill="white"/>
<path d="M189.691 214.19L362.196 313.706C373.235 320.132 382.133 315.189 382.627 302.832C382.627 302.996 382.627 303.161 382.627 303.326C382.627 316.342 373.4 321.614 362.196 315.189L189.691 215.673C183.43 212.048 177.828 211.719 173.709 214.025L178.652 211.224C181.947 210.895 185.737 211.883 189.691 214.19Z" fill="white"/>
<path d="M395.149 295.088L423.158 234.126L428.43 237.092C428.595 236.762 428.925 236.598 429.089 236.433L430.078 236.927C429.419 237.421 428.925 237.916 428.43 238.41L423.158 235.444L395.149 296.406L383.615 312.223C383.945 311.564 384.11 310.74 384.274 309.916L395.149 295.088Z" fill="white"/>
<path d="M463.854 206.776C476.212 214.025 486.427 231.49 486.427 245.824C486.427 252.744 484.12 257.687 480.166 260.158C480.001 260.323 479.672 260.488 479.507 260.488L378.178 319.143L384.439 307.939L383.78 296.736L381.803 290.475L378.837 283.719C378.837 283.719 376.366 279.106 376.201 279.106C376.037 278.941 372.577 274.493 372.577 274.493L369.117 270.868L365.492 268.561L362.361 265.596L463.854 206.776Z" fill="url(#paint7_linear)"/>
<path d="M189.691 267.573V265.101C178.487 258.676 169.261 242.694 169.261 229.678C169.261 216.662 178.487 211.389 189.691 217.815L362.196 317.331C374.553 324.58 384.769 318.649 384.769 304.315C384.769 289.98 374.718 272.351 362.196 265.266V267.738C373.4 274.163 382.627 290.145 382.627 303.161C382.627 316.177 373.4 321.45 362.196 315.024L189.691 215.508C177.334 208.259 167.119 214.19 167.119 228.524C167.119 242.859 177.334 260.488 189.691 267.573Z" fill="#173D7A"/>
<path d="M350.498 250.932L273.719 206.116L270.918 207.929L347.533 252.579L350.498 250.932Z" fill="#5793CE"/>
<path d="M349.18 235.279L286.736 198.867L283.77 200.515L346.215 236.927L349.18 235.279Z" fill="#5793CE"/>
<path d="M338.306 236.432L280.31 202.492L277.344 204.139L335.34 238.08L338.306 236.432Z" fill="#5793CE"/>
<path d="M356.924 247.142L342.755 238.904L339.789 240.552L353.958 248.955L356.924 247.142Z" fill="#5793CE"/>
<path d="M593.686 258.84V247.472H567.983L559.086 242.364C557.109 241.211 553.484 241.376 551.178 242.694L542.94 247.472H517.237V259.17C517.237 259.994 517.566 260.653 518.555 261.312L551.672 280.424C553.649 281.578 557.274 281.413 559.581 280.095L591.544 261.641C593.192 260.818 593.851 259.829 593.686 258.84Z" fill="#173D7A"/>
<path d="M555.627 241.54C554.144 241.54 552.661 241.87 551.343 242.694L543.105 247.472H517.402V259.17C517.402 259.994 517.731 260.653 518.72 261.312L551.837 280.424C552.826 280.918 554.144 281.248 555.462 281.248V241.54H555.627Z" fill="url(#paint8_linear)"/>
<path d="M520.368 247.472H517.402V259.17C517.402 259.994 517.731 260.653 518.72 261.312L520.203 262.135V247.472H520.368Z" fill="#5793CE"/>
<path d="M552.331 280.754C554.143 281.577 556.615 281.413 558.592 280.754V267.408H552.331V280.754Z" fill="#5793CE"/>
<path d="M551.837 268.726L518.72 249.614C516.743 248.46 516.908 246.318 519.215 245L551.178 226.547C553.485 225.229 557.11 225.064 559.087 226.218L592.204 245.33C594.181 246.483 594.016 248.625 591.71 249.943L559.746 268.396C557.439 269.715 553.979 269.879 551.837 268.726Z" fill="url(#paint9_linear)"/>
<path d="M591.874 247.636L559.91 266.09C557.603 267.408 553.978 267.573 552.001 266.419L518.884 247.307C518.39 246.977 518.06 246.813 517.896 246.483C517.237 247.636 517.566 248.79 518.884 249.614L552.001 268.726C553.978 269.879 557.603 269.714 559.91 268.396L591.874 249.943C593.686 248.955 594.18 247.472 593.521 246.318C593.027 246.813 592.533 247.307 591.874 247.636Z" fill="white"/>
<path d="M581.494 261.971C581.494 262.795 580.835 263.783 580.176 264.277C579.516 264.772 578.857 264.277 578.857 263.454C578.857 262.63 579.516 261.641 580.176 261.147C580.999 260.653 581.494 260.982 581.494 261.971Z" fill="#D4ECFF"/>
<path d="M585.778 259.499C585.778 260.323 585.119 261.312 584.46 261.806C583.801 262.3 583.142 261.806 583.142 260.982C583.142 260.158 583.801 259.17 584.46 258.675C585.284 258.181 585.778 258.511 585.778 259.499Z" fill="#D4ECFF"/>
<path d="M590.226 256.863C590.226 257.687 589.567 258.675 588.908 259.17C588.249 259.664 587.59 259.17 587.59 258.346C587.59 257.522 588.249 256.534 588.908 256.039C589.567 255.71 590.226 256.039 590.226 256.863Z" fill="#D4ECFF"/>
<path d="M553.814 256.863L538.326 247.966C537.338 247.472 537.503 246.483 538.656 245.824L553.649 237.256C554.803 236.597 556.45 236.597 557.439 237.092L572.926 245.989C573.915 246.483 573.75 247.472 572.597 248.131L557.603 256.698C556.45 257.357 554.803 257.357 553.814 256.863Z" fill="#5793CE"/>
<path d="M555.297 249.284L553.155 247.966C552.99 247.966 552.99 247.801 553.155 247.636L555.297 246.483C555.461 246.318 555.626 246.318 555.791 246.483L557.933 247.801C558.098 247.801 558.098 247.966 557.933 248.131L555.791 249.284C555.626 249.449 555.461 249.449 555.297 249.284Z" fill="#D4ECFF"/>
<path d="M538.326 247.966C538.491 247.966 538.491 247.966 538.656 247.801L553.649 239.234C554.803 238.575 556.45 238.575 557.439 239.069L572.926 247.966C573.75 247.307 573.915 246.483 572.926 245.989L557.439 237.092C556.45 236.597 554.803 236.597 553.649 237.256L538.656 245.824C537.503 246.318 537.338 247.307 538.326 247.966Z" fill="#396CAA"/>
<path d="M337.812 381.588C336.823 381.588 335.999 381.093 335.505 380.27C334.681 378.952 335.176 377.304 336.494 376.645L375.542 354.073C376.86 353.249 378.508 353.743 379.167 355.061C379.991 356.379 379.496 358.027 378.178 358.686L339.13 381.258C338.8 381.588 338.306 381.588 337.812 381.588Z" fill="url(#paint10_linear)"/>
<path d="M416.897 335.949C415.909 335.949 415.085 335.454 414.591 334.631C413.767 333.312 414.261 331.665 415.579 331.006L455.616 307.939C456.934 307.115 458.582 307.61 459.241 308.928C460.065 310.246 459.571 311.893 458.253 312.552L418.215 335.619C417.886 335.949 417.392 335.949 416.897 335.949Z" fill="url(#paint11_linear)"/>
<path d="M497.136 289.816C496.147 289.816 495.324 289.321 494.829 288.498C494.005 287.179 494.5 285.532 495.818 284.873L534.866 262.3C536.184 261.477 537.832 261.971 538.491 263.289C539.315 264.607 538.821 266.255 537.503 266.914L498.454 289.321C497.96 289.651 497.63 289.816 497.136 289.816Z" fill="url(#paint12_linear)"/>
<path d="M95.6122 241.211C94.6237 241.211 93.7999 240.717 93.3056 239.893C92.4818 238.575 92.9761 236.927 94.2942 236.268L133.343 213.696C134.661 212.872 136.308 213.366 136.967 214.684C137.791 216.002 137.297 217.65 135.979 218.309L96.9303 240.881C96.6008 241.046 96.1065 241.211 95.6122 241.211Z" fill="url(#paint13_linear)"/>
<path d="M174.698 195.572C173.709 195.572 172.885 195.078 172.391 194.254C171.567 192.936 172.062 191.288 173.38 190.629L213.417 167.562C214.735 166.739 216.382 167.233 217.041 168.551C217.865 169.869 217.371 171.517 216.053 172.176L176.016 195.242C175.686 195.407 175.192 195.572 174.698 195.572Z" fill="url(#paint14_linear)"/>
<path d="M254.937 149.274C253.948 149.274 253.124 148.779 252.63 147.956C251.806 146.638 252.301 144.99 253.619 144.331L292.502 121.759C293.82 120.935 295.468 121.429 296.127 122.747C296.951 124.065 296.457 125.713 295.139 126.372L256.255 148.944C255.761 149.109 255.266 149.274 254.937 149.274Z" fill="url(#paint15_linear)"/>
<path d="M109.782 258.676V247.307H84.0788L75.1817 242.2C73.2046 241.046 69.5798 241.211 67.2731 242.529L59.0351 247.307H33.3323V259.005C33.3323 259.829 33.6618 260.488 34.6504 261.147L67.7674 280.26C69.7446 281.413 73.3693 281.248 75.676 279.93L107.64 261.477C109.123 260.653 109.782 259.664 109.782 258.676Z" fill="#173D7A"/>
<path d="M71.557 241.376C70.0741 241.376 68.5912 241.705 67.2732 242.529L59.0351 247.307H33.3323V259.005C33.3323 259.829 33.6618 260.488 34.6504 261.147L67.7674 280.259C68.756 280.754 70.0741 281.083 71.3922 281.083V241.376H71.557Z" fill="url(#paint16_linear)"/>
<path d="M36.298 247.142H33.3323V258.84C33.3323 259.664 33.6618 260.323 34.6504 260.982L36.1332 261.806V247.142H36.298Z" fill="#5793CE"/>
<path d="M68.4265 280.424C70.2389 281.248 72.7103 281.083 74.6875 280.424V267.079H68.4265V280.424Z" fill="#5793CE"/>
<path d="M67.9314 268.561L34.8143 249.449C32.8372 248.296 33.002 246.154 35.3086 244.836L67.2724 226.382C69.579 225.064 73.2038 224.9 75.1809 226.053L108.298 245.165C110.275 246.319 110.11 248.46 107.804 249.779L75.84 268.232C73.5333 269.55 69.9086 269.715 67.9314 268.561Z" fill="url(#paint17_linear)"/>
<path d="M107.805 247.472L75.841 265.925C73.5344 267.243 69.9096 267.408 67.9325 266.255L34.8154 247.142C34.3211 246.813 33.9916 246.648 33.8268 246.318C33.1678 247.472 33.4973 248.625 34.8154 249.449L67.9325 268.561C69.9096 269.715 73.5344 269.55 75.841 268.232L107.805 249.778C109.617 248.79 110.111 247.307 109.452 246.154C109.123 246.483 108.629 246.977 107.805 247.472Z" fill="white"/>
<path d="M97.5893 261.641C97.5893 262.465 96.9303 263.454 96.2712 263.948C95.6122 264.442 94.9531 263.948 94.9531 263.124C94.9531 262.3 95.6122 261.312 96.2712 260.818C96.9303 260.488 97.5893 260.818 97.5893 261.641Z" fill="#D4ECFF"/>
<path d="M101.873 259.17C101.873 259.994 101.214 260.982 100.555 261.477C99.8961 261.971 99.2371 261.477 99.2371 260.653C99.2371 259.829 99.8961 258.84 100.555 258.346C101.214 258.017 101.873 258.346 101.873 259.17Z" fill="#D4ECFF"/>
<path d="M106.157 256.698C106.157 257.522 105.498 258.511 104.839 259.005C104.18 259.499 103.521 259.005 103.521 258.181C103.521 257.357 104.18 256.369 104.839 255.875C105.498 255.545 106.157 255.875 106.157 256.698Z" fill="#D4ECFF"/>
<path d="M69.9094 256.698L54.4218 247.801C53.4332 247.307 53.598 246.318 54.7513 245.659L69.7446 237.092C70.898 236.433 72.5456 236.433 73.5342 236.927L89.0217 245.824C90.0103 246.318 89.8455 247.307 88.6922 247.966L73.6989 256.534C72.5456 257.193 70.7332 257.193 69.9094 256.698Z" fill="#5793CE"/>
<path d="M71.3919 249.119L69.25 247.801C69.0853 247.801 69.0853 247.637 69.25 247.472L71.3919 246.319C71.5567 246.154 71.7215 246.154 71.8862 246.319L74.0281 247.637C74.1929 247.637 74.1929 247.801 74.0281 247.966L71.8862 249.119C71.7215 249.284 71.3919 249.284 71.3919 249.119Z" fill="#D4ECFF"/>
<path d="M54.4218 247.637C54.5866 247.637 54.5866 247.637 54.7513 247.472L69.7446 238.904C70.898 238.245 72.5456 238.245 73.5342 238.739L89.0217 247.637C89.8455 246.978 90.0103 246.154 89.0217 245.659L73.5342 236.762C72.5456 236.268 70.898 236.268 69.7446 236.927L54.7513 245.495C53.598 246.154 53.4332 247.142 54.4218 247.637Z" fill="#396CAA"/>
<path d="M289.701 383.565C289.207 383.565 288.713 383.4 288.383 383.235L249.335 360.663C248.017 359.839 247.522 358.192 248.346 357.038C249.17 355.72 250.818 355.226 251.971 356.05L291.019 378.622C292.337 379.446 292.832 381.093 292.008 382.247C291.514 383.071 290.69 383.565 289.701 383.565Z" fill="url(#paint18_linear)"/>
<path d="M210.616 337.926C210.122 337.926 209.628 337.761 209.298 337.596L169.261 314.53C167.943 313.706 167.449 312.058 168.272 310.905C169.096 309.587 170.744 309.093 171.897 309.917L211.934 332.983C213.252 333.807 213.747 335.455 212.923 336.608C212.428 337.432 211.605 337.926 210.616 337.926Z" fill="url(#paint19_linear)"/>
<path d="M130.377 291.628C129.883 291.628 129.389 291.463 129.059 291.298L90.0107 268.726C88.6926 267.902 88.1983 266.255 89.0221 265.101C89.8459 263.783 91.4936 263.289 92.6469 264.113L131.86 286.685C133.178 287.509 133.673 289.156 132.849 290.31C132.354 291.134 131.366 291.628 130.377 291.628Z" fill="url(#paint20_linear)"/>
<path d="M352.476 395.593V384.224H326.773L317.876 379.116C315.899 377.963 312.274 378.128 309.967 379.446L301.729 384.224H276.026V395.922C276.026 396.746 276.356 397.405 277.344 398.064L310.462 417.176C312.439 418.33 316.063 418.165 318.37 416.847L350.334 398.394C351.981 397.57 352.64 396.581 352.476 395.593Z" fill="#173D7A"/>
<path d="M314.416 378.292C312.933 378.292 311.45 378.622 310.132 379.446L301.894 384.224H276.191V395.922C276.191 396.746 276.521 397.405 277.509 398.064L310.627 417.176C311.615 417.67 312.933 418 314.251 418V378.292H314.416Z" fill="url(#paint21_linear)"/>
<path d="M279.157 384.059H276.191V395.757C276.191 396.581 276.521 397.24 277.509 397.899L278.992 398.723V384.059H279.157Z" fill="#5793CE"/>
<path d="M311.121 417.341C312.933 418.165 315.404 418 317.382 417.341V403.995H311.121V417.341Z" fill="#5793CE"/>
<path d="M310.625 405.478L277.508 386.366C275.531 385.213 275.696 383.071 278.002 381.753L309.966 363.299C312.273 361.981 315.897 361.816 317.875 362.97L350.992 382.082C352.969 383.235 352.804 385.377 350.497 386.695L318.534 405.149C316.227 406.467 312.767 406.632 310.625 405.478Z" fill="url(#paint22_linear)"/>
<path d="M350.663 384.389L318.699 402.842C316.393 404.16 312.768 404.325 310.791 403.171L277.674 384.059C277.18 383.73 276.85 383.565 276.685 383.235C276.026 384.389 276.356 385.542 277.674 386.366L310.791 405.478C312.768 406.631 316.393 406.467 318.699 405.149L350.663 386.695C352.476 385.707 352.97 384.224 352.311 383.071C351.817 383.4 351.322 383.894 350.663 384.389Z" fill="white"/>
<path d="M340.283 398.558C340.283 399.382 339.624 400.371 338.965 400.865C338.306 401.359 337.647 400.865 337.647 400.041C337.647 399.217 338.306 398.229 338.965 397.734C339.789 397.405 340.283 397.734 340.283 398.558Z" fill="#D4ECFF"/>
<path d="M344.567 396.087C344.567 396.91 343.908 397.899 343.249 398.393C342.59 398.888 341.931 398.393 341.931 397.57C341.931 396.746 342.59 395.757 343.249 395.263C344.073 394.933 344.567 395.263 344.567 396.087Z" fill="#D4ECFF"/>
<path d="M349.016 393.615C349.016 394.439 348.357 395.428 347.697 395.922C347.038 396.416 346.379 395.922 346.379 395.098C346.379 394.274 347.038 393.286 347.697 392.792C348.357 392.462 349.016 392.792 349.016 393.615Z" fill="#D4ECFF"/>
<path d="M312.603 393.615L297.115 384.718C296.127 384.224 296.292 383.235 297.445 382.576L312.438 374.009C313.592 373.35 315.239 373.35 316.228 373.844L331.715 382.741C332.704 383.235 332.539 384.224 331.386 384.883L316.393 393.451C315.239 394.11 313.592 394.11 312.603 393.615Z" fill="#5793CE"/>
<path d="M314.086 386.036L311.944 384.718C311.78 384.718 311.78 384.553 311.944 384.389L314.086 383.235C314.251 383.071 314.416 383.071 314.581 383.235L316.722 384.553C316.887 384.553 316.887 384.718 316.722 384.883L314.581 386.036C314.416 386.201 314.251 386.201 314.086 386.036Z" fill="#D4ECFF"/>
<path d="M297.116 384.553C297.28 384.553 297.28 384.553 297.445 384.389L312.438 375.821C313.592 375.162 315.239 375.162 316.228 375.656L331.716 384.553C332.539 383.894 332.704 383.071 331.716 382.576L316.228 373.679C315.239 373.185 313.592 373.185 312.438 373.844L297.445 382.411C296.292 383.071 296.127 384.059 297.116 384.553Z" fill="#396CAA"/>
<path d="M358.901 241.046C358.737 240.881 358.572 240.716 358.572 240.387L359.725 232.314L365.327 234.95L359.725 240.716C359.396 241.046 359.231 241.046 358.901 241.046Z" fill="white"/>
<path d="M379.992 215.343C375.213 215.673 368.952 212.707 366.316 208.753C363.68 204.799 365.328 201.174 370.106 200.844C374.884 200.515 381.145 203.481 383.781 207.435C386.582 211.389 384.77 215.014 379.992 215.343Z" fill="#396CAA"/>
<path d="M429.914 124.23L407.012 113.026L365.327 203.151L375.213 207.929L365.327 203.151L364.998 203.81C360.549 212.872 358.737 223.087 359.561 233.137C359.396 233.467 359.561 233.961 359.89 234.455C360.549 235.444 362.197 236.268 363.515 236.268C364.174 236.268 364.504 235.938 364.668 235.609L366.81 234.126C373.401 229.348 378.838 223.087 382.957 216.002L384.769 212.542L429.914 124.23Z" fill="url(#paint23_linear)"/>
<path d="M424.312 127.361C418.545 127.69 411.296 124.23 408.165 119.452C405.035 114.674 407.012 110.555 412.779 110.061C418.545 109.731 425.795 113.191 428.925 117.969C432.056 122.747 430.079 126.866 424.312 127.361Z" fill="#D4ECFF"/>
<path d="M426.124 123.406C420.357 123.736 413.108 120.276 409.977 115.498C406.847 110.72 408.824 106.601 414.591 106.106C420.357 105.777 427.607 109.237 430.737 114.015C434.032 118.793 431.89 123.077 426.124 123.406Z" fill="#D4ECFF"/>
<path d="M423.982 128.02C418.216 128.349 410.966 124.889 407.836 120.111C404.705 115.333 406.682 111.214 412.449 110.72C418.216 110.39 425.465 113.85 428.596 118.628C431.726 123.406 429.749 127.525 423.982 128.02Z" fill="#5793CE"/>
<path d="M423.982 128.02C418.216 128.349 410.966 124.889 407.836 120.111C406.518 118.134 406.188 116.321 406.353 114.839C404.87 116.651 404.87 119.287 406.682 122.088C409.813 126.866 417.062 130.326 422.829 129.997C426.289 129.832 428.266 128.184 428.76 125.878C427.937 127.031 426.289 127.855 423.982 128.02Z" fill="white"/>
<path d="M409.186 108.818L406.734 113.855L429.547 124.961L431.999 119.924L409.186 108.818Z" fill="#5793CE"/>
<path d="M475.388 31.1398L452.486 19.936L409.154 108.743L408.824 109.237C408.33 110.884 408.66 112.862 410.142 115.003C413.273 119.782 420.522 123.242 426.289 122.912C428.925 122.747 430.738 121.759 431.561 120.441L475.388 31.1398Z" fill="url(#paint24_linear)"/>
<path d="M435.68 50.9111L433.868 48.275C432.879 46.7921 432.879 44.6502 434.033 42.3435L438.811 32.6226C439.634 30.8102 442.106 29.1626 444.083 28.9979L448.696 28.6683C449.52 28.6683 450.344 28.174 451.003 27.515L453.145 27.6798L451.662 25.5379C451.497 25.2083 451.003 25.0436 450.509 25.0436L445.895 25.3731C441.612 25.7026 436.669 28.9979 434.856 32.7874L430.078 42.5083C428.431 45.8035 428.431 48.7692 429.913 50.9111L431.726 53.5473C432.714 55.0302 432.714 57.1721 431.561 59.4787L412.449 98.692C412.284 99.1863 412.284 99.6805 412.449 100.01L413.932 102.152L414.591 100.175C415.414 99.8453 416.238 99.1863 416.568 98.5272L435.68 59.314C436.998 56.0187 437.163 53.053 435.68 50.9111Z" fill="#5793CE"/>
<path d="M435.515 50.5816C434.527 49.0987 434.527 46.9568 435.68 44.6502L440.458 34.9292C441.282 33.1169 443.753 31.4692 445.731 31.3045L450.344 30.975C451.497 30.975 452.815 29.9864 453.31 28.9978C453.804 28.0092 453.31 27.1854 452.156 27.3502L447.543 27.6797C443.259 28.0092 438.316 31.3045 436.504 35.094L431.726 44.8149C430.078 48.1102 430.078 51.0759 431.561 53.2178L433.373 55.8539C434.362 57.3368 434.362 59.4787 433.209 61.7854L414.096 100.999C413.602 101.987 414.096 102.811 415.25 102.646C416.403 102.646 417.721 101.658 418.215 100.669L437.328 61.4558C438.975 58.1606 438.975 55.1949 437.493 53.053L435.515 50.5816Z" fill="#5793CE"/>
<path d="M469.621 34.1058C463.854 34.4354 456.605 30.9754 453.475 26.1973C450.344 21.4192 452.321 17.3002 458.088 16.8059C463.854 16.4764 471.104 19.9363 474.234 24.7144C477.365 29.4925 475.388 33.7763 469.621 34.1058Z" fill="#D4ECFF"/>
<path d="M467.644 30.9752C464.184 30.9752 459.9 28.6685 457.758 25.538C455.616 22.4076 456.77 19.9362 460.23 19.9362C463.69 19.9362 467.974 22.2428 470.115 25.3733C472.093 28.5038 470.939 30.9752 467.644 30.9752Z" fill="#396CAA"/>
<path d="M469.786 26.8561L459.9 22.078L469.127 3.13044C470.445 0.329498 473.74 -0.659071 476.541 0.659021C479.342 1.97711 480.331 5.27234 479.012 8.07329L469.786 26.8561Z" fill="#42E8E0"/>
<path d="M467.479 28.1742C465.008 28.339 461.877 26.8561 460.559 24.7142C459.241 22.5723 460.065 20.9247 462.536 20.7599C465.008 20.5952 468.138 22.078 469.456 24.2199C470.774 26.197 469.951 28.0094 467.479 28.1742Z" fill="#42E8E0"/>
<path d="M297.445 276.305C297.61 276.305 297.775 276.14 297.939 276.14C312.933 267.408 312.933 253.403 297.939 244.836C282.946 236.103 258.726 236.103 243.733 244.836C243.403 245 243.074 245.165 242.909 245.33C244.557 245.824 246.204 246.483 247.852 247.472L297.445 276.305Z" fill="#5793CE"/>
<path d="M309.143 246.648V239.563H307.166C305.354 236.433 302.223 233.467 297.939 230.996C282.946 222.263 258.726 222.263 243.733 230.996C239.449 233.467 236.319 236.433 234.506 239.563H232.529V246.483C232.529 252.25 236.319 257.852 243.733 262.136C258.726 270.868 282.946 270.868 297.939 262.136C305.354 258.017 309.143 252.25 309.143 246.648Z" fill="#42E8E0"/>
<path d="M297.94 255.216C282.946 263.948 258.726 263.948 243.733 255.216C228.74 246.483 228.74 232.479 243.733 223.911C258.726 215.179 282.946 215.179 297.94 223.911C312.933 232.643 312.933 246.648 297.94 255.216Z" fill="#42E8E0"/>
<path d="M297.939 255.216C282.946 263.948 258.726 263.948 243.733 255.216C236.483 251.097 232.859 245.659 232.529 240.222C232.2 246.154 235.989 252.085 243.733 256.534C258.726 265.266 282.946 265.266 297.939 256.534C305.683 252.085 309.473 245.989 309.143 240.222C308.814 245.659 305.024 251.097 297.939 255.216Z" fill="white"/>
<path d="M252.301 246.977C251.642 246.648 251.312 246.154 251.312 245.495V230.996C251.312 229.842 252.795 229.018 254.772 229.018C256.749 229.018 258.232 229.842 258.232 230.996V243.023L292.997 238.739C294.809 238.575 296.622 239.234 297.116 240.222C297.445 241.376 296.292 242.364 294.48 242.529L255.596 247.307C254.607 247.472 253.454 247.307 252.63 246.977C252.466 246.977 252.301 246.977 252.301 246.977Z" fill="white"/>
<defs>
<linearGradient id="paint0_linear" x1="276.173" y1="119.984" x2="314.35" y2="119.984" gradientUnits="userSpaceOnUse">
<stop stop-color="#699DD1"/>
<stop offset="1" stop-color="#173D7A"/>
</linearGradient>
<linearGradient id="paint1_linear" x1="276.166" y1="106.065" x2="352.53" y2="106.065" gradientUnits="userSpaceOnUse">
<stop stop-color="#E9F6FF"/>
<stop offset="1" stop-color="#D4ECFF"/>
</linearGradient>
<linearGradient id="paint2_linear" x1="490.405" y1="227.231" x2="534.83" y2="227.231" gradientUnits="userSpaceOnUse">
<stop stop-color="#699DD1"/>
<stop offset="1" stop-color="#173D7A"/>
</linearGradient>
<linearGradient id="paint3_linear" x1="410.258" y1="181.263" x2="455.737" y2="181.263" gradientUnits="userSpaceOnUse">
<stop stop-color="#699DD1"/>
<stop offset="1" stop-color="#173D7A"/>
</linearGradient>
<linearGradient id="paint4_linear" x1="331.169" y1="135.297" x2="375.594" y2="135.297" gradientUnits="userSpaceOnUse">
<stop stop-color="#699DD1"/>
<stop offset="1" stop-color="#173D7A"/>
</linearGradient>
<linearGradient id="paint5_linear" x1="168.15" y1="238.297" x2="291.32" y2="238.297" gradientUnits="userSpaceOnUse">
<stop stop-color="#699DD1"/>
<stop offset="1" stop-color="#173D7A"/>
</linearGradient>
<linearGradient id="paint6_linear" x1="173.799" y1="235.85" x2="430.077" y2="235.85" gradientUnits="userSpaceOnUse">
<stop stop-color="#E9F6FF"/>
<stop offset="1" stop-color="#D4ECFF"/>
</linearGradient>
<linearGradient id="paint7_linear" x1="362.215" y1="262.99" x2="486.355" y2="262.99" gradientUnits="userSpaceOnUse">
<stop stop-color="#699DD1"/>
<stop offset="1" stop-color="#173D7A"/>
</linearGradient>
<linearGradient id="paint8_linear" x1="517.384" y1="261.382" x2="555.561" y2="261.382" gradientUnits="userSpaceOnUse">
<stop stop-color="#699DD1"/>
<stop offset="1" stop-color="#173D7A"/>
</linearGradient>
<linearGradient id="paint9_linear" x1="517.379" y1="247.463" x2="593.742" y2="247.463" gradientUnits="userSpaceOnUse">
<stop stop-color="#E9F6FF"/>
<stop offset="1" stop-color="#D4ECFF"/>
</linearGradient>
<linearGradient id="paint10_linear" x1="335.158" y1="367.703" x2="379.583" y2="367.703" gradientUnits="userSpaceOnUse">
<stop stop-color="#699DD1"/>
<stop offset="1" stop-color="#173D7A"/>
</linearGradient>
<linearGradient id="paint11_linear" x1="414.249" y1="321.735" x2="459.728" y2="321.735" gradientUnits="userSpaceOnUse">
<stop stop-color="#699DD1"/>
<stop offset="1" stop-color="#173D7A"/>
</linearGradient>
<linearGradient id="paint12_linear" x1="494.392" y1="275.767" x2="538.819" y2="275.767" gradientUnits="userSpaceOnUse">
<stop stop-color="#699DD1"/>
<stop offset="1" stop-color="#173D7A"/>
</linearGradient>
<linearGradient id="paint13_linear" x1="92.9207" y1="227.231" x2="137.347" y2="227.231" gradientUnits="userSpaceOnUse">
<stop stop-color="#699DD1"/>
<stop offset="1" stop-color="#173D7A"/>
</linearGradient>
<linearGradient id="paint14_linear" x1="172.012" y1="181.264" x2="217.491" y2="181.264" gradientUnits="userSpaceOnUse">
<stop stop-color="#699DD1"/>
<stop offset="1" stop-color="#173D7A"/>
</linearGradient>
<linearGradient id="paint15_linear" x1="252.156" y1="135.297" x2="296.583" y2="135.297" gradientUnits="userSpaceOnUse">
<stop stop-color="#699DD1"/>
<stop offset="1" stop-color="#173D7A"/>
</linearGradient>
<linearGradient id="paint16_linear" x1="33.3959" y1="261.173" x2="71.5728" y2="261.173" gradientUnits="userSpaceOnUse">
<stop stop-color="#699DD1"/>
<stop offset="1" stop-color="#173D7A"/>
</linearGradient>
<linearGradient id="paint17_linear" x1="33.3897" y1="247.254" x2="109.753" y2="247.254" gradientUnits="userSpaceOnUse">
<stop stop-color="#E9F6FF"/>
<stop offset="1" stop-color="#D4ECFF"/>
</linearGradient>
<linearGradient id="paint18_linear" x1="247.969" y1="369.665" x2="292.396" y2="369.665" gradientUnits="userSpaceOnUse">
<stop stop-color="#699DD1"/>
<stop offset="1" stop-color="#173D7A"/>
</linearGradient>
<linearGradient id="paint19_linear" x1="167.824" y1="323.698" x2="213.304" y2="323.698" gradientUnits="userSpaceOnUse">
<stop stop-color="#699DD1"/>
<stop offset="1" stop-color="#173D7A"/>
</linearGradient>
<linearGradient id="paint20_linear" x1="88.7341" y1="277.731" x2="133.159" y2="277.731" gradientUnits="userSpaceOnUse">
<stop stop-color="#699DD1"/>
<stop offset="1" stop-color="#173D7A"/>
</linearGradient>
<linearGradient id="paint21_linear" x1="276.174" y1="398.084" x2="314.35" y2="398.084" gradientUnits="userSpaceOnUse">
<stop stop-color="#699DD1"/>
<stop offset="1" stop-color="#173D7A"/>
</linearGradient>
<linearGradient id="paint22_linear" x1="276.167" y1="384.165" x2="352.53" y2="384.165" gradientUnits="userSpaceOnUse">
<stop stop-color="#E9F6FF"/>
<stop offset="1" stop-color="#D4ECFF"/>
</linearGradient>
<linearGradient id="paint23_linear" x1="359.371" y1="174.782" x2="429.947" y2="174.782" gradientUnits="userSpaceOnUse">
<stop stop-color="#699DD1"/>
<stop offset="1" stop-color="#173D7A"/>
</linearGradient>
<linearGradient id="paint24_linear" x1="412.14" y1="81.1346" x2="556.009" y2="31.0561" gradientUnits="userSpaceOnUse">
<stop stop-color="#E9F6FF"/>
<stop offset="1" stop-color="#5793CE"/>
</linearGradient>
</defs>
</svg>
